<svg xmlns="http://www.w3.org/2000/svg" xmlns:xlink="http://www.w3.org/1999/xlink" width="169.116" height="49.25" viewBox="0 0 169.116 49.25">
  <defs>
    <linearGradient id="linear-gradient" x1="-56.046" y1="-79.608" x2="-56.146" y2="-79.582" gradientUnits="objectBoundingBox">
      <stop offset="0" stop-color="#00a0ff"/>
      <stop offset="0.007" stop-color="#00a1ff"/>
      <stop offset="0.26" stop-color="#00beff"/>
      <stop offset="0.512" stop-color="#00d2ff"/>
      <stop offset="0.76" stop-color="#00dfff"/>
      <stop offset="1" stop-color="#00e3ff"/>
    </linearGradient>
    <linearGradient id="linear-gradient-2" x1="-71.405" y1="-208.977" x2="-71.64" y2="-208.977" gradientUnits="objectBoundingBox">
      <stop offset="0" stop-color="#ffe000"/>
      <stop offset="0.409" stop-color="#ffbd00"/>
      <stop offset="0.775" stop-color="orange"/>
      <stop offset="1" stop-color="#ff9c00"/>
    </linearGradient>
    <linearGradient id="linear-gradient-3" x1="-44.45" y1="-147.048" x2="-44.531" y2="-146.911" gradientUnits="objectBoundingBox">
      <stop offset="0" stop-color="#ff3a44"/>
      <stop offset="1" stop-color="#c31162"/>
    </linearGradient>
    <linearGradient id="linear-gradient-4" x1="-44.513" y1="-146.709" x2="-44.476" y2="-146.648" gradientUnits="objectBoundingBox">
      <stop offset="0" stop-color="#32a071"/>
      <stop offset="0.068" stop-color="#2da771"/>
      <stop offset="0.476" stop-color="#15cf74"/>
      <stop offset="0.801" stop-color="#06e775"/>
      <stop offset="1" stop-color="#00f076"/>
    </linearGradient>
  </defs>
  <g id="icon-btn-google-play" transform="translate(0.5 0.5)">
    <g id="badge_appstore_de">
      <g id="badge_googleplay_de">
        <path id="Shape" d="M168.116,43.45a4.8,4.8,0,0,1-4.8,4.8H4.8A4.8,4.8,0,0,1,0,43.45V4.8A4.8,4.8,0,0,1,4.8,0H163.317a4.8,4.8,0,0,1,4.8,4.8V43.45Z" fill="none" stroke="#fff" stroke-width="1"/>
        <path id="Shape_1_" d="M74.2,22.036a5.314,5.314,0,0,0-5.431,5.431A5.391,5.391,0,0,0,74.2,32.9a5.314,5.314,0,0,0,5.431-5.431A5.24,5.24,0,0,0,74.2,22.036Zm0,8.589a3.135,3.135,0,0,1-3.031-3.284A3.135,3.135,0,0,1,74.2,24.057a3.06,3.06,0,0,1,3.031,3.284A3.135,3.135,0,0,1,74.2,30.625ZM62.457,22.036a5.314,5.314,0,0,0-5.431,5.431A5.391,5.391,0,0,0,62.457,32.9a5.314,5.314,0,0,0,5.431-5.431,5.24,5.24,0,0,0-5.431-5.431Zm0,8.589a3.135,3.135,0,0,1-3.031-3.284,3.135,3.135,0,0,1,3.031-3.284,3.06,3.06,0,0,1,3.031,3.284,3.135,3.135,0,0,1-3.031,3.284Zm-14.02-6.947v2.274h5.431A4.776,4.776,0,0,1,52.6,28.857,5.591,5.591,0,0,1,48.436,30.5,5.881,5.881,0,0,1,42.5,24.436a5.958,5.958,0,0,1,5.936-6.063A6.263,6.263,0,0,1,52.6,20.016l1.642-1.642A8.094,8.094,0,0,0,48.563,16.1,8.52,8.52,0,0,0,40.1,24.436a8.52,8.52,0,0,0,8.463,8.336,7.269,7.269,0,0,0,5.81-2.4,7.6,7.6,0,0,0,2.021-5.3,4.736,4.736,0,0,0-.126-1.389Zm57.344,1.768a4.908,4.908,0,0,0-4.547-3.41,5.087,5.087,0,0,0-5.052,5.431,5.286,5.286,0,0,0,5.3,5.431,5.181,5.181,0,0,0,4.421-2.4l-1.768-1.263a3.079,3.079,0,0,1-2.652,1.516,2.74,2.74,0,0,1-2.652-1.642l7.2-3.031-.253-.632Zm-7.326,1.768a3.068,3.068,0,0,1,2.779-3.158,2.234,2.234,0,0,1,2.021,1.137l-4.8,2.021Zm-5.936,5.179h2.4V16.605h-2.4V32.394Zm-3.789-9.22h0a4.159,4.159,0,0,0-2.905-1.263,5.427,5.427,0,0,0-5.179,5.431,5.23,5.23,0,0,0,5.179,5.3A3.627,3.627,0,0,0,88.6,31.383h.126v.758c0,2.021-1.137,3.158-2.905,3.158A2.806,2.806,0,0,1,83.171,33.4l-2.021.884a5.211,5.211,0,0,0,4.8,3.158C88.729,37.446,91,35.8,91,31.889v-9.6H88.729v.884ZM85.95,30.625a3.135,3.135,0,0,1-3.031-3.284,3.135,3.135,0,0,1,3.031-3.284,3.039,3.039,0,0,1,2.905,3.284,3.039,3.039,0,0,1-2.905,3.284Zm30.819-14.02h-5.684V32.394h2.4V26.457h3.284a4.932,4.932,0,1,0,0-9.852Zm.126,7.578h-3.41V18.752h3.41a2.774,2.774,0,0,1,2.779,2.652,2.891,2.891,0,0,1-2.779,2.779Zm14.525-2.274a4.245,4.245,0,0,0-4.168,2.4l2.147.884a2.231,2.231,0,0,1,2.147-1.137,2.374,2.374,0,0,1,2.526,2.021V26.2a5.01,5.01,0,0,0-2.4-.632c-2.274,0-4.547,1.263-4.547,3.537a3.7,3.7,0,0,0,3.916,3.537,3.554,3.554,0,0,0,3.031-1.516h.126v1.263h2.274V26.331a4.78,4.78,0,0,0-5.052-4.421Zm-.253,8.715c-.758,0-1.895-.379-1.895-1.389,0-1.263,1.389-1.642,2.526-1.642a4.885,4.885,0,0,1,2.147.505,2.942,2.942,0,0,1-2.779,2.526Zm13.262-8.336-2.652,6.821h-.126l-2.779-6.821h-2.526l4.168,9.6-2.4,5.3h2.4l6.442-14.9Zm-21.22,10.1h2.4V16.605h-2.4V32.394Z" transform="translate(10.55 4.236)" fill="#fff"/>
        <g id="Group" transform="translate(11.241 7.79)">
          <path id="Shape_2_" d="M1.532.5A2.5,2.5,0,0,0,.9,2.268V30.182a2.5,2.5,0,0,0,.632,1.768l.126.126L17.32,16.415v-.253L1.532.5Z" transform="translate(-0.9 -0.08)" fill="url(#linear-gradient)"/>
          <path id="Shape_3_" d="M19.079,19.536,13.9,14.358v-.379L19.079,8.8l.126.126,6.189,3.537c1.768,1.01,1.768,2.652,0,3.663l-6.315,3.41Z" transform="translate(2.52 2.103)" fill="url(#linear-gradient-2)"/>
          <path id="Shape_4_" d="M22.493,18.3l-5.3-5.3L1.4,28.789c.632.632,1.516.632,2.652.126L22.493,18.3" transform="translate(-0.768 3.208)" fill="url(#linear-gradient-3)"/>
          <path id="Shape_5_" d="M22.493,11.07,4.052.586A2.047,2.047,0,0,0,1.4.713L17.189,16.375l5.3-5.3Z" transform="translate(-0.768 -0.167)" fill="url(#linear-gradient-4)"/>
          <g id="Shape_6_" transform="translate(0.126 21.387)">
            <path id="Caminho_2803" data-name="Caminho 2803" d="M21.367.1,3.052,10.457a2.066,2.066,0,0,1-2.526,0h0L.4,10.584h0l.126.126h0a2.066,2.066,0,0,0,2.526,0L21.367.1Z" transform="translate(0.105 -0.1)" opacity="0.2"/>
            <path id="Caminho_2804" data-name="Caminho 2804" d="M.505,8.668A2.469,2.469,0,0,1,0,6.9v.126A2.52,2.52,0,0,0,.505,8.668Z" transform="translate(0 1.689)" opacity="0.12"/>
          </g>
          <path id="Shape_7_" d="M24.315,14.642,18,18.179l.126.126,6.189-3.663A1.813,1.813,0,0,0,25.578,13h0c0,.632-.505,1.137-1.263,1.642Z" transform="translate(3.599 3.208)" opacity="0.12"/>
          <path id="Shape_8_" d="M4.158.714l24.63,14.02c.758.505,1.263,1.01,1.263,1.642h0a2.1,2.1,0,0,0-1.263-1.768L4.158.587C2.389-.423,1,.461,1,2.482v.126C1,.587,2.389-.3,4.158.714Z" transform="translate(-0.874 -0.168)" fill="#fff" opacity="0.25"/>
        </g>
      </g>
    </g>
    <g id="Grupo_637" data-name="Grupo 637" transform="translate(51.029 6.442)">
      <path id="Caminho_2805" data-name="Caminho 2805" d="M40.4,14.657V6.7h2.274a3.289,3.289,0,0,1,1.895.505,3.028,3.028,0,0,1,1.263,1.263,5.293,5.293,0,0,1,.505,1.895v.505a3.706,3.706,0,0,1-.505,2.021,3.028,3.028,0,0,1-1.263,1.263,4.184,4.184,0,0,1-1.895.505Zm1.389-6.821v5.684h.884a2.182,2.182,0,0,0,1.642-.632,3.1,3.1,0,0,0,.632-1.895v-.505a2.622,2.622,0,0,0-.505-1.895A1.8,1.8,0,0,0,42.8,7.963h-1.01Z" transform="translate(-40.4 -4.679)" fill="#fff"/>
      <path id="Caminho_2806" data-name="Caminho 2806" d="M47.589,14.657H46.2V6.7h1.389Z" transform="translate(-38.874 -4.679)" fill="#fff"/>
      <path id="Caminho_2807" data-name="Caminho 2807" d="M52.747,12.61a.764.764,0,0,0-.379-.758,4.247,4.247,0,0,0-1.263-.505,9.164,9.164,0,0,1-1.516-.632,2.04,2.04,0,0,1-1.137-1.768,1.8,1.8,0,0,1,.758-1.516A3.214,3.214,0,0,1,51.231,6.8a6.34,6.34,0,0,1,1.516.253,1.752,1.752,0,0,1,1.01.884A2.134,2.134,0,0,1,54.136,9.2H52.747a1.434,1.434,0,0,0-.379-1.01,1.544,1.544,0,0,0-1.137-.379,1.957,1.957,0,0,0-1.01.253,1.092,1.092,0,0,0-.379.758,1.092,1.092,0,0,0,.379.758,2.931,2.931,0,0,0,1.263.505A4.215,4.215,0,0,1,53,10.716a2.145,2.145,0,0,1,.758.758,2.38,2.38,0,0,1,.253,1.01A1.8,1.8,0,0,1,53.252,14a3.214,3.214,0,0,1-2.021.632,2.694,2.694,0,0,1-1.516-.379,2.75,2.75,0,0,1-1.137-.884A2.134,2.134,0,0,1,48.2,12.1h1.389a1.025,1.025,0,0,0,.505,1.01,1.886,1.886,0,0,0,1.263.379,1.632,1.632,0,0,0,1.01-.253C52.747,13.115,52.747,12.863,52.747,12.61Z" transform="translate(-38.348 -4.653)" fill="#fff"/>
      <path id="Caminho_2808" data-name="Caminho 2808" d="M55.289,11.752v2.905H53.9V6.7h3.031a3.914,3.914,0,0,1,2.147.632A2.293,2.293,0,0,1,59.836,9.1a2.12,2.12,0,0,1-.758,1.768,3.613,3.613,0,0,1-2.147.632H55.289Zm0-1.137h1.642a1.544,1.544,0,0,0,1.137-.379,1.243,1.243,0,0,0,.379-1.01,1.3,1.3,0,0,0-1.389-1.389H55.289Z" transform="translate(-36.848 -4.679)" fill="#fff"/>
      <path id="Caminho_2809" data-name="Caminho 2809" d="M65.842,10.894a5.236,5.236,0,0,1-.379,2.021A3.088,3.088,0,0,1,64.326,14.3a3.651,3.651,0,0,1-1.768.505,2.329,2.329,0,0,1-1.642-.505,2.541,2.541,0,0,1-1.137-1.389,5.236,5.236,0,0,1-.379-2.021v-.379a5.236,5.236,0,0,1,.379-2.021,3.088,3.088,0,0,1,1.137-1.389A2.539,2.539,0,0,1,62.558,6.6a2.329,2.329,0,0,1,1.642.505,2.541,2.541,0,0,1,1.137,1.389,5.236,5.236,0,0,1,.379,2.021v.379Zm-1.389-.379a3.2,3.2,0,0,0-.505-2.021,1.585,1.585,0,0,0-1.389-.758,1.81,1.81,0,0,0-1.389.632,3.2,3.2,0,0,0-.505,2.021v.505a3.2,3.2,0,0,0,.505,2.021,1.585,1.585,0,0,0,1.389.758,1.81,1.81,0,0,0,1.389-.632,3.2,3.2,0,0,0,.505-2.021Z" transform="translate(-35.401 -4.705)" fill="#fff"/>
      <path id="Caminho_2810" data-name="Caminho 2810" d="M71.815,14.657H70.426L66.889,9.1v5.558H65.5V6.7h1.389l3.537,5.558V6.7h1.389Z" transform="translate(-33.797 -4.679)" fill="#fff"/>
      <path id="Caminho_2811" data-name="Caminho 2811" d="M73.189,15.078H71.8V7.121h1.389ZM72.937,5.1h1.516L72.937,6.742h-1.01Z" transform="translate(-32.139 -5.1)" fill="#fff"/>
      <path id="Caminho_2812" data-name="Caminho 2812" d="M77.11,12.889,79.131,6.7h1.516l-2.905,7.957H76.479L73.7,6.826h1.516Z" transform="translate(-31.639 -4.679)" fill="#fff"/>
      <path id="Caminho_2813" data-name="Caminho 2813" d="M84.447,11.121H81.289v2.4h3.789v1.137H79.9V6.7h5.052V7.837H81.163V9.984h3.284Z" transform="translate(-30.008 -4.679)" fill="#fff"/>
      <path id="Caminho_2814" data-name="Caminho 2814" d="M86.189,13.521h3.537v1.137H84.8V6.7h1.389Z" transform="translate(-28.719 -4.679)" fill="#fff"/>
      <path id="Caminho_2815" data-name="Caminho 2815" d="M98.015,14.657H96.626L93.089,9.1v5.558H91.7V6.7h1.389l3.537,5.558V6.7h1.389Z" transform="translate(-26.904 -4.679)" fill="#fff"/>
      <path id="Caminho_2816" data-name="Caminho 2816" d="M104.342,10.894a5.236,5.236,0,0,1-.379,2.021,3.088,3.088,0,0,1-1.137,1.389,3.651,3.651,0,0,1-1.768.505,2.329,2.329,0,0,1-1.642-.505,2.541,2.541,0,0,1-1.137-1.389,5.236,5.236,0,0,1-.379-2.021v-.379a5.236,5.236,0,0,1,.379-2.021,2.247,2.247,0,0,1,1.01-1.389,3.582,3.582,0,0,1,1.642-.505,2.329,2.329,0,0,1,1.642.505,2.541,2.541,0,0,1,1.137,1.389,5.236,5.236,0,0,1,.379,2.021v.379Zm-1.389-.379a3.2,3.2,0,0,0-.505-2.021,1.585,1.585,0,0,0-1.389-.758,1.81,1.81,0,0,0-1.389.632,3.87,3.87,0,0,0-.505,2.147v.379a3.2,3.2,0,0,0,.505,2.021,1.585,1.585,0,0,0,1.389.758,1.81,1.81,0,0,0,1.389-.632,3.2,3.2,0,0,0,.505-2.021Z" transform="translate(-25.273 -4.705)" fill="#fff"/>
    </g>
  </g>
</svg>
