<svg id="icon-btn-app-store" xmlns="http://www.w3.org/2000/svg" width="168.116" height="48.25" viewBox="0 0 168.116 48.25">
  <g id="badge_appstore_de" transform="translate(0 0)">
    <g id="Group-2">
      <g id="Grupo_635" data-name="Grupo 635">
        <path id="Shape" d="M169.016,44.35a4.8,4.8,0,0,1-4.8,4.8H5.7a4.8,4.8,0,0,1-4.8-4.8V5.7A4.8,4.8,0,0,1,5.7.9H164.217a4.8,4.8,0,0,1,4.8,4.8V44.35Z" transform="translate(-0.9 -0.9)"/>
        <g id="Group" transform="translate(15.035 6.694)">
          <path id="Shape_1_" d="M22.65,15.752a7.412,7.412,0,0,1,3.537-6.189,7.418,7.418,0,0,0-5.936-3.158c-2.526-.253-4.926,1.516-6.189,1.516s-3.284-1.516-5.3-1.389a7.7,7.7,0,0,0-6.568,3.916C-.717,15.373,1.431,22.7,4.209,26.741c1.389,2.021,3.031,4.168,5.052,4.042s2.779-1.263,5.3-1.263c2.4,0,3.158,1.263,5.3,1.263s3.537-2.021,4.926-3.916a14.476,14.476,0,0,0,2.274-4.547,7.557,7.557,0,0,1-4.421-6.568Z" transform="translate(-0.804 1.426)" fill="#fff"/>
          <path id="Shape_2_" d="M15.909,5.379A6.937,6.937,0,0,0,17.551.2a8.31,8.31,0,0,0-4.8,2.4,6.686,6.686,0,0,0-1.642,4.926,5.435,5.435,0,0,0,4.8-2.147Z" transform="translate(1.896 -0.2)" fill="#fff"/>
        </g>
        <g id="Group_1_" transform="translate(52.418 21.851)">
          <path id="Shape_3_" d="M14.673,18H11.768l-1.516-4.926H4.694L3.179,18H.4L5.831,1.2H9.115L14.673,18ZM9.747,11.052,8.357,6.631a18.135,18.135,0,0,1-.884-3.158h0c-.253.632-.505,1.768-.884,3.158L5.2,11.052Z" transform="translate(-0.4 -1.2)" fill="#fff"/>
          <path id="Shape_4_" d="M25.094,10.889a7.048,7.048,0,0,1-1.642,4.926,5.188,5.188,0,0,1-3.663,1.642,3.6,3.6,0,0,1-3.41-1.768h0v6.442H13.726V8.994c0-1.263,0-2.652-.126-4.042H16l.126,1.895h0A4.559,4.559,0,0,1,20.168,4.7,4.308,4.308,0,0,1,23.7,6.342a7.226,7.226,0,0,1,1.389,4.547Zm-2.779.126a5.232,5.232,0,0,0-.758-2.905,2.934,2.934,0,0,0-2.4-1.137,3.018,3.018,0,0,0-1.768.632,2.765,2.765,0,0,0-1.01,1.768,2.466,2.466,0,0,0-.126.884v2.021a3.526,3.526,0,0,0,.758,2.274,2.6,2.6,0,0,0,2.147.884,2.934,2.934,0,0,0,2.4-1.137,6.993,6.993,0,0,0,.758-3.284Z" transform="translate(3.073 -0.279)" fill="#fff"/>
          <path id="Shape_5_" d="M36.094,10.889a7.048,7.048,0,0,1-1.642,4.926,5.188,5.188,0,0,1-3.663,1.642,3.6,3.6,0,0,1-3.41-1.768h0v6.442H24.726V8.994c0-1.263,0-2.652-.126-4.042H27l.126,1.895h0A4.559,4.559,0,0,1,31.168,4.7,4.308,4.308,0,0,1,34.7,6.342a6.54,6.54,0,0,1,1.389,4.547Zm-2.652.126a5.232,5.232,0,0,0-.758-2.905,2.934,2.934,0,0,0-2.4-1.137,3.018,3.018,0,0,0-1.768.632,2.765,2.765,0,0,0-1.01,1.768,2.466,2.466,0,0,0-.126.884v2.021a3.526,3.526,0,0,0,.758,2.274,2.6,2.6,0,0,0,2.147.884,2.934,2.934,0,0,0,2.4-1.137,8.956,8.956,0,0,0,.758-3.284Z" transform="translate(5.967 -0.279)" fill="#fff"/>
          <path id="Shape_6_" d="M48.257,13.326a4.587,4.587,0,0,1-1.516,3.537,6.592,6.592,0,0,1-4.547,1.516,8.3,8.3,0,0,1-4.294-1.01l.632-2.274a7.091,7.091,0,0,0,3.916,1.137,4.493,4.493,0,0,0,2.4-.632,2.469,2.469,0,0,0,.884-1.895,2.494,2.494,0,0,0-.758-1.768A6.33,6.33,0,0,0,42.7,10.673c-2.905-1.137-4.421-2.652-4.421-4.8a4.325,4.325,0,0,1,1.516-3.41A6.1,6.1,0,0,1,43.963,1.2a8.436,8.436,0,0,1,3.789.758l-.884,2.021a6.848,6.848,0,0,0-3.158-.758,3.3,3.3,0,0,0-2.274.758,1.7,1.7,0,0,0-.632,1.516,2.037,2.037,0,0,0,.758,1.642,8.194,8.194,0,0,0,2.4,1.263,9.08,9.08,0,0,1,3.158,2.021,4,4,0,0,1,1.137,2.905Z" transform="translate(9.466 -1.2)" fill="#fff"/>
          <path id="Shape_7_" d="M54.679,7.552H51.647v5.936q0,2.274,1.516,2.274a2.8,2.8,0,0,0,1.137-.126l.126,2.021a5.26,5.26,0,0,1-2.147.253,3.527,3.527,0,0,1-2.526-1.01,4.65,4.65,0,0,1-.884-3.284V7.552H47.1V5.531h1.768V3.258L51.521,2.5V5.531h3.031V7.552Z" transform="translate(11.886 -0.858)" fill="#fff"/>
          <path id="Shape_8_" d="M66.2,10.889a6.108,6.108,0,0,1-1.642,4.547,5.733,5.733,0,0,1-4.421,1.895,5.806,5.806,0,0,1-4.294-1.768A6.562,6.562,0,0,1,54.2,11.142a6.614,6.614,0,0,1,1.642-4.673A5.893,5.893,0,0,1,60.263,4.7a5.806,5.806,0,0,1,4.294,1.768A6,6,0,0,1,66.2,10.889Zm-2.779.126a5.536,5.536,0,0,0-.758-2.905,2.484,2.484,0,0,0-2.4-1.389A2.912,2.912,0,0,0,57.737,8.11a5.232,5.232,0,0,0-.758,2.905,5.536,5.536,0,0,0,.758,2.905,2.71,2.71,0,0,0,4.8-.126,4.082,4.082,0,0,0,.884-2.779Z" transform="translate(13.754 -0.279)" fill="#fff"/>
          <path id="Shape_9_" d="M72.042,7.379c-.253,0-.505-.126-.884-.126a2.527,2.527,0,0,0-2.147,1.01,3.6,3.6,0,0,0-.632,2.4v6.315H65.726V8.642A35.524,35.524,0,0,0,65.6,4.853H68l.126,2.274h.126a4.13,4.13,0,0,1,1.389-1.895A3.759,3.759,0,0,1,71.536,4.6h.632V7.379Z" transform="translate(16.753 -0.306)" fill="#fff"/>
          <path id="Shape_10_" d="M82.463,10.358a3.894,3.894,0,0,1-.126,1.263H74.252A3.527,3.527,0,0,0,75.389,14.4a4.169,4.169,0,0,0,2.652.884,7.266,7.266,0,0,0,3.284-.632l.379,1.895a10.033,10.033,0,0,1-4.042.758,5.632,5.632,0,0,1-4.421-1.642A6,6,0,0,1,71.6,11.242a6.816,6.816,0,0,1,1.516-4.547A5.129,5.129,0,0,1,77.41,4.8a4.423,4.423,0,0,1,3.916,1.895,5.763,5.763,0,0,1,1.137,3.663Zm-2.526-.632a3.443,3.443,0,0,0-.505-2.021,2.34,2.34,0,0,0-2.147-1.137,2.482,2.482,0,0,0-2.147,1.137,3.187,3.187,0,0,0-.758,2.147l5.558-.126Z" transform="translate(18.331 -0.253)" fill="#fff"/>
        </g>
      </g>
    </g>
  </g>
  <g id="Grupo_636" data-name="Grupo 636" transform="translate(54.06 6.442)">
    <path id="Caminho_2791" data-name="Caminho 2791" d="M42.7,5.526A15.312,15.312,0,0,1,45.226,5.4a5.091,5.091,0,0,1,3.663,1.137,4.364,4.364,0,0,1,1.263,3.284,5.228,5.228,0,0,1-1.263,3.537,5.422,5.422,0,0,1-3.916,1.263,10.891,10.891,0,0,1-2.147-.126V5.526Zm1.137,7.957c.253,0,.758.126,1.137.126,2.526,0,3.789-1.389,3.789-3.789,0-2.147-1.137-3.41-3.663-3.41a4.32,4.32,0,0,0-1.389.126v6.947Z" transform="translate(-42.7 -4.895)" fill="#fff"/>
    <path id="Caminho_2792" data-name="Caminho 2792" d="M51.016,6.158a.728.728,0,0,1-.758.758.815.815,0,0,1-.758-.758.728.728,0,0,1,.758-.758A.67.67,0,0,1,51.016,6.158Zm-1.263,8.21V7.926h1.137v6.442Z" transform="translate(-40.911 -4.895)" fill="#fff"/>
    <path id="Caminho_2793" data-name="Caminho 2793" d="M52,12.731a3.1,3.1,0,0,0,1.516.505c.884,0,1.263-.379,1.263-1.01q0-.758-1.137-1.137C52.505,10.584,52,9.952,52,9.195A2.051,2.051,0,0,1,54.274,7.3a3.16,3.16,0,0,1,1.642.379l-.253.884A2.991,2.991,0,0,0,54.4,8.184a1.02,1.02,0,0,0-1.137.884c0,.505.379.758,1.263,1.137,1.137.379,1.642,1.01,1.642,1.895,0,1.137-.884,1.895-2.4,1.895A3.345,3.345,0,0,1,52,13.615Z" transform="translate(-40.253 -4.395)" fill="#fff"/>
    <path id="Caminho_2794" data-name="Caminho 2794" d="M56.3,9.574V7.426h1.01V8.563h0A2.653,2.653,0,0,1,59.584,7.3c1.516,0,2.779,1.263,2.779,3.284,0,2.274-1.389,3.41-2.905,3.41a2.294,2.294,0,0,1-2.021-1.01h0v3.537H56.3Zm1.263,1.642v.505a1.894,1.894,0,0,0,1.768,1.389c1.263,0,1.895-1.01,1.895-2.526,0-1.263-.632-2.4-1.895-2.4a2.026,2.026,0,0,0-1.768,1.389c0,.126-.126.379-.126.505v1.137Z" transform="translate(-39.122 -4.395)" fill="#fff"/>
    <path id="Caminho_2795" data-name="Caminho 2795" d="M68.289,10.584a3.115,3.115,0,0,1-3.158,3.41A2.99,2.99,0,0,1,62.1,10.71,3.123,3.123,0,0,1,65.258,7.3,2.99,2.99,0,0,1,68.289,10.584Zm-5.179.126c0,1.389.758,2.526,2.021,2.526,1.137,0,1.895-1.01,1.895-2.526,0-1.137-.505-2.526-1.895-2.526S63.11,9.447,63.11,10.71Z" transform="translate(-37.596 -4.395)" fill="#fff"/>
    <path id="Caminho_2796" data-name="Caminho 2796" d="M68.1,9.221V7.453h1.01l.126,1.01h0A2.383,2.383,0,0,1,71.384,7.2c.884,0,2.274.505,2.274,2.779v3.789H72.521V10.231c0-1.01-.379-1.895-1.516-1.895a1.516,1.516,0,0,0-1.516,1.137c0,.126-.126.379-.126.505v3.916H68.226V9.221Z" transform="translate(-36.018 -4.421)" fill="#fff"/>
    <path id="Caminho_2797" data-name="Caminho 2797" d="M76.426,5.2,74.784,7.095H73.9L75.037,5.2Zm-2.4,9.221V7.979h1.137v6.442Z" transform="translate(-34.492 -4.947)" fill="#fff"/>
    <path id="Caminho_2798" data-name="Caminho 2798" d="M77.063,7.4l1.263,3.663a11.731,11.731,0,0,1,.505,1.642h0c.126-.505.379-1.01.505-1.642L80.6,7.4h1.263l-2.526,6.442H78.2L75.8,7.4Z" transform="translate(-33.992 -4.369)" fill="#fff"/>
    <path id="Caminho_2799" data-name="Caminho 2799" d="M82.11,10.863a2.059,2.059,0,0,0,2.274,2.274,3.057,3.057,0,0,0,1.768-.379l.253.884a6.528,6.528,0,0,1-2.147.379A2.957,2.957,0,0,1,81.1,10.737c0-2.021,1.137-3.537,3.031-3.537,2.147,0,2.652,1.895,2.652,3.031v.505H82.11Zm3.537-.758c0-.758-.253-1.895-1.642-1.895-1.137,0-1.642,1.137-1.768,1.895Z" transform="translate(-32.598 -4.421)" fill="#fff"/>
    <path id="Caminho_2800" data-name="Caminho 2800" d="M86.7,5h1.137v9.473H86.7Z" transform="translate(-31.124 -5)" fill="#fff"/>
    <path id="Caminho_2801" data-name="Caminho 2801" d="M91.4,9.221V7.453h1.01l.126,1.01h0A2.383,2.383,0,0,1,94.684,7.2c.884,0,2.274.505,2.274,2.779v3.789H95.821V10.231c0-1.01-.379-1.895-1.516-1.895a1.516,1.516,0,0,0-1.516,1.137c0,.126-.126.379-.126.505v3.916H91.526V9.221Z" transform="translate(-29.888 -4.421)" fill="#fff"/>
    <path id="Caminho_2802" data-name="Caminho 2802" d="M100.968,13.894l-.126-.758h0a2.429,2.429,0,0,1-2.021,1.01A1.894,1.894,0,0,1,96.8,12.252c0-1.516,1.389-2.4,3.916-2.4V9.6A1.36,1.36,0,0,0,99.2,8.084a2.329,2.329,0,0,0-1.642.505l-.253-.758A3.613,3.613,0,0,1,99.452,7.2c2.021,0,2.4,1.389,2.4,2.652v2.4a5.662,5.662,0,0,0,.126,1.516h-1.01Zm-.126-3.284c-1.263,0-2.779.253-2.779,1.389A1.06,1.06,0,0,0,99.2,13.136,1.419,1.419,0,0,0,100.716,12c0-.126.126-.253.126-.379Z" transform="translate(-28.467 -4.421)" fill="#fff"/>
  </g>
</svg>
