<svg xmlns="http://www.w3.org/2000/svg" width="180.534" height="101" viewBox="0 0 180.534 101">
  <g id="Grupo_626" data-name="Grupo 626" transform="translate(-3768.663 -2533.168)">
    <g id="Grupo_621" data-name="Grupo 621" transform="translate(3768.663 2594.437)">
      <path id="Caminho_2317" data-name="Caminho 2317" d="M3788.859,3054.83q2.409,2.35,2.41,7.09v12.146h-7.444v-10.931q0-4.348-3.487-4.348a3.982,3.982,0,0,0-3.075,1.253,5.383,5.383,0,0,0-1.156,3.762v10.264h-7.444V3045h7.444v9.795a8.134,8.134,0,0,1,2.86-1.725,10.42,10.42,0,0,1,3.526-.587A8.727,8.727,0,0,1,3788.859,3054.83Z" transform="translate(-3768.663 -3044.996)" fill="#0098c5"/>
      <path id="Caminho_2318" data-name="Caminho 2318" d="M4010.863,3120.358h-15.437a4.325,4.325,0,0,0,1.822,2.527,6.077,6.077,0,0,0,3.389.881,7.325,7.325,0,0,0,2.644-.43,7.8,7.8,0,0,0,2.253-1.41l3.918,4.074q-3.1,3.448-9.05,3.448a14.445,14.445,0,0,1-6.542-1.41,10.72,10.72,0,0,1-.235-19.119,13.37,13.37,0,0,1,11.753-.1,9.985,9.985,0,0,1,4.094,3.8,11.149,11.149,0,0,1,1.509,5.9Q4010.981,3118.6,4010.863,3120.358Zm-14.085-6.582a4.421,4.421,0,0,0-1.468,2.664h8.7a4.427,4.427,0,0,0-1.469-2.664,4.724,4.724,0,0,0-5.76,0Z" transform="translate(-3961.695 -3100.025)" fill="#0098c5"/>
      <rect id="Retângulo_152" data-name="Retângulo 152" width="7.444" height="21.235" transform="translate(52.734 7.836)" fill="#0098c5"/>
      <path id="Caminho_2319" data-name="Caminho 2319" d="M4331.822,3109.858q2.407,2.351,2.409,7.092V3129.1h-7.444v-10.931q0-4.349-3.486-4.349a3.985,3.985,0,0,0-3.076,1.254,5.381,5.381,0,0,0-1.156,3.762V3129.1h-7.444V3107.86h7.091v2.312a8.448,8.448,0,0,1,2.978-1.979,10.1,10.1,0,0,1,3.762-.685A8.727,8.727,0,0,1,4331.822,3109.858Z" transform="translate(-4246.629 -3100.025)" fill="#0098c5"/>
      <path id="Caminho_2320" data-name="Caminho 2320" d="M4529.5,3128.841a13.887,13.887,0,0,1-4.154-1.587l2.233-5.094a12.586,12.586,0,0,0,3.448,1.43,15.405,15.405,0,0,0,3.957.529,6.323,6.323,0,0,0,2.566-.372,1.167,1.167,0,0,0,.764-1.077q0-.706-.921-1a19.046,19.046,0,0,0-2.918-.568,28.742,28.742,0,0,1-4.329-.823,6.668,6.668,0,0,1-3.075-1.881,5.375,5.375,0,0,1-1.293-3.84,5.8,5.8,0,0,1,1.215-3.623,8.057,8.057,0,0,1,3.546-2.509,15.212,15.212,0,0,1,5.583-.92,22.608,22.608,0,0,1,4.584.47,13.221,13.221,0,0,1,3.8,1.332l-2.233,5.054a12.39,12.39,0,0,0-6.112-1.567,6.081,6.081,0,0,0-2.585.411,1.226,1.226,0,0,0-.823,1.077q0,.746.9,1.038a20.642,20.642,0,0,0,2.977.607,32.942,32.942,0,0,1,4.349.9,6.653,6.653,0,0,1,3,1.861,5.3,5.3,0,0,1,1.273,3.781,5.747,5.747,0,0,1-1.214,3.584,7.919,7.919,0,0,1-3.585,2.489,16.091,16.091,0,0,1-5.7.9A22.924,22.924,0,0,1,4529.5,3128.841Z" transform="translate(-4434.764 -3100.025)" fill="#0098c5"/>
      <path id="Caminho_2321" data-name="Caminho 2321" d="M4716.672,3095.965a7.484,7.484,0,0,1-2.292.9,12.712,12.712,0,0,1-2.879.313,9.148,9.148,0,0,1-6.387-2.037q-2.232-2.036-2.233-6.073v-7.13h-3.095v-5.564h3.095v-5.524h7.443v5.524h4.858v5.564h-4.858v7.052a2.5,2.5,0,0,0,.608,1.783,2.125,2.125,0,0,0,1.626.646,3.936,3.936,0,0,0,2.272-.666Z" transform="translate(-4588.325 -3067.757)" fill="#0098c5"/>
      <path id="Caminho_2322" data-name="Caminho 2322" d="M4871.294,3120.358h-15.436a4.318,4.318,0,0,0,1.822,2.527,6.079,6.079,0,0,0,3.389.881,7.331,7.331,0,0,0,2.645-.43,7.8,7.8,0,0,0,2.252-1.41l3.918,4.074q-3.1,3.448-9.05,3.448a14.442,14.442,0,0,1-6.542-1.41,10.721,10.721,0,0,1-.235-19.119,13.37,13.37,0,0,1,11.753-.1,10,10,0,0,1,4.094,3.8,11.158,11.158,0,0,1,1.508,5.9Q4871.413,3118.6,4871.294,3120.358Zm-14.085-6.582a4.422,4.422,0,0,0-1.469,2.664h8.7a4.428,4.428,0,0,0-1.47-2.664,4.724,4.724,0,0,0-5.76,0Z" transform="translate(-4719.127 -3100.025)" fill="#0098c5"/>
      <path id="Caminho_2323" data-name="Caminho 2323" d="M5089.817,3109.858q2.409,2.351,2.409,7.092V3129.1h-7.443v-10.931q0-4.349-3.488-4.349a3.986,3.986,0,0,0-3.076,1.254,5.388,5.388,0,0,0-1.155,3.762V3129.1h-7.443V3107.86h7.09v2.312a8.438,8.438,0,0,1,2.978-1.979,10.1,10.1,0,0,1,3.761-.685A8.727,8.727,0,0,1,5089.817,3109.858Z" transform="translate(-4913.888 -3100.025)" fill="#0098c5"/>
    </g>
    <g id="Grupo_622" data-name="Grupo 622" transform="translate(3813.448 2624.728)">
      <path id="Caminho_2324" data-name="Caminho 2324" d="M4144,3321.105a3.309,3.309,0,0,1-1.218-.669l.39-.823a3.239,3.239,0,0,0,1.081.617,3.973,3.973,0,0,0,1.355.237,2.445,2.445,0,0,0,1.372-.311.959.959,0,0,0,.453-.828.817.817,0,0,0-.248-.617,1.649,1.649,0,0,0-.611-.364c-.243-.084-.585-.179-1.029-.285a10.751,10.751,0,0,1-1.345-.4,2.219,2.219,0,0,1-.874-.617,1.649,1.649,0,0,1-.365-1.124,1.9,1.9,0,0,1,.312-1.065,2.141,2.141,0,0,1,.944-.76,3.836,3.836,0,0,1,1.572-.284,4.962,4.962,0,0,1,1.287.169,3.431,3.431,0,0,1,1.086.485l-.348.844a3.8,3.8,0,0,0-.992-.448,3.7,3.7,0,0,0-1.033-.153,2.278,2.278,0,0,0-1.346.327,1,1,0,0,0-.447.844.805.805,0,0,0,.253.617,1.751,1.751,0,0,0,.627.369,9.749,9.749,0,0,0,1.018.279,10.249,10.249,0,0,1,1.339.4,2.254,2.254,0,0,1,.87.612,1.607,1.607,0,0,1,.363,1.107,1.886,1.886,0,0,1-.315,1.06,2.11,2.11,0,0,1-.96.759,3.967,3.967,0,0,1-1.582.28A5.053,5.053,0,0,1,4144,3321.105Z" transform="translate(-4142.779 -3311.925)" fill="#fff"/>
      <path id="Caminho_2325" data-name="Caminho 2325" d="M4208.485,3320.981v.918h-5.357v-7.383h5.21v.917h-4.155v2.268h3.7v.9h-3.7v2.384Z" transform="translate(-4195.904 -3312.544)" fill="#fff"/>
      <path id="Caminho_2326" data-name="Caminho 2326" d="M4262.451,3321.14a3.334,3.334,0,0,1-.822-2.426v-4.2h1.055v4.155q0,2.373,2.077,2.373a2,2,0,0,0,1.551-.585,2.568,2.568,0,0,0,.538-1.788v-4.155h1.023v4.2a3.331,3.331,0,0,1-.823,2.431,3.564,3.564,0,0,1-4.6-.005Z" transform="translate(-4247.402 -3312.544)" fill="#fff"/>
      <path id="Caminho_2327" data-name="Caminho 2327" d="M4360.678,3315.2a2.577,2.577,0,0,1,0,3.775,3.415,3.415,0,0,1-2.256.686H4356.6v2.236h-1.055v-7.383h2.879A3.417,3.417,0,0,1,4360.678,3315.2Zm-.759,3.116a1.695,1.695,0,0,0,0-2.457,2.382,2.382,0,0,0-1.53-.427H4356.6v3.312h1.792A2.382,2.382,0,0,0,4359.919,3318.319Z" transform="translate(-4330.073 -3312.544)" fill="#fff"/>
      <path id="Caminho_2328" data-name="Caminho 2328" d="M4423.628,3320.981v.918h-5.358v-7.383h5.21v.917h-4.156v2.268h3.7v.9h-3.7v2.384Z" transform="translate(-4385.292 -3312.544)" fill="#fff"/>
      <path id="Caminho_2329" data-name="Caminho 2329" d="M4470.932,3315.434H4468.4v-.917h6.106v.917h-2.531v6.465h-1.044Z" transform="translate(-4429.422 -3312.544)" fill="#fff"/>
      <path id="Caminho_2330" data-name="Caminho 2330" d="M4558.071,3320.981v.918h-5.357v-7.383h5.209v.917h-4.155v2.268h3.7v.9h-3.7v2.384Z" transform="translate(-4503.642 -3312.544)" fill="#fff"/>
      <path id="Caminho_2331" data-name="Caminho 2331" d="M4618.586,3321.9l-.01-5.379-2.669,4.482h-.485l-2.668-4.45v5.347h-1.013v-7.383h.865l3.08,5.189,3.037-5.189h.865l.01,7.383Z" transform="translate(-4555.604 -3312.544)" fill="#fff"/>
      <path id="Caminho_2332" data-name="Caminho 2332" d="M4725.557,3318.719a1.862,1.862,0,0,1,.369,1.187,1.708,1.708,0,0,1-.722,1.477,3.6,3.6,0,0,1-2.1.517h-3.523v-7.383h3.312a3.265,3.265,0,0,1,1.956.506,1.641,1.641,0,0,1,.691,1.4,1.823,1.823,0,0,1-.269,1,1.754,1.754,0,0,1-.722.644A1.887,1.887,0,0,1,4725.557,3318.719Zm-4.924-3.348v2.362h2.161a2.191,2.191,0,0,0,1.25-.3,1.1,1.1,0,0,0,0-1.761,2.191,2.191,0,0,0-1.25-.3Zm3.775,5.378a1.029,1.029,0,0,0,.455-.928q0-1.234-1.8-1.234h-2.425v2.458h2.425A2.5,2.5,0,0,0,4724.408,3320.75Z" transform="translate(-4650.531 -3312.544)" fill="#fff"/>
      <path id="Caminho_2333" data-name="Caminho 2333" d="M4783.168,3320.874a3.627,3.627,0,0,1-1.409-1.355,3.9,3.9,0,0,1,0-3.86,3.627,3.627,0,0,1,1.409-1.355,4.359,4.359,0,0,1,4.018,0,3.6,3.6,0,0,1,1.4,1.35,3.954,3.954,0,0,1,0,3.87,3.6,3.6,0,0,1-1.4,1.35,4.361,4.361,0,0,1-4.018,0Zm3.474-.817a2.712,2.712,0,0,0,1.023-1.018,3,3,0,0,0,0-2.9,2.707,2.707,0,0,0-1.023-1.017,2.89,2.89,0,0,0-1.461-.369,2.946,2.946,0,0,0-1.47.369,2.682,2.682,0,0,0-1.034,1.017,2.992,2.992,0,0,0,0,2.9,2.687,2.687,0,0,0,1.034,1.018,2.953,2.953,0,0,0,1.47.369A2.9,2.9,0,0,0,4786.642,3320.056Z" transform="translate(-4704.818 -3311.925)" fill="#fff"/>
      <path id="Caminho_2334" data-name="Caminho 2334" d="M4855.877,3320.054h-3.923l-.812,1.845h-1.086l3.343-7.383h1.044l3.354,7.383h-1.107Zm-.369-.844-1.593-3.617-1.592,3.617Z" transform="translate(-4765.39 -3312.544)" fill="#fff"/>
      <path id="Caminho_2335" data-name="Caminho 2335" d="M4919.464,3321.105a3.308,3.308,0,0,1-1.218-.669l.392-.823a3.219,3.219,0,0,0,1.081.617,3.963,3.963,0,0,0,1.355.237,2.438,2.438,0,0,0,1.371-.311.959.959,0,0,0,.453-.828.815.815,0,0,0-.248-.617,1.651,1.651,0,0,0-.611-.364q-.365-.127-1.029-.285a10.636,10.636,0,0,1-1.345-.4,2.219,2.219,0,0,1-.875-.617,1.648,1.648,0,0,1-.364-1.124,1.9,1.9,0,0,1,.311-1.065,2.14,2.14,0,0,1,.944-.76,3.835,3.835,0,0,1,1.572-.284,4.955,4.955,0,0,1,1.286.169,3.4,3.4,0,0,1,1.086.485l-.348.844a3.79,3.79,0,0,0-.991-.448,3.707,3.707,0,0,0-1.033-.153,2.276,2.276,0,0,0-1.345.327,1,1,0,0,0-.448.844.809.809,0,0,0,.252.617,1.76,1.76,0,0,0,.628.369,9.729,9.729,0,0,0,1.018.279,10.215,10.215,0,0,1,1.339.4,2.259,2.259,0,0,1,.871.612,1.608,1.608,0,0,1,.364,1.107,1.888,1.888,0,0,1-.317,1.06,2.113,2.113,0,0,1-.959.759,3.968,3.968,0,0,1-1.582.28A5.048,5.048,0,0,1,4919.464,3321.105Z" transform="translate(-4825.417 -3311.925)" fill="#fff"/>
      <path id="Caminho_2336" data-name="Caminho 2336" d="M5009.138,3321.9l-.011-5.379-2.668,4.482h-.485l-2.668-4.45v5.347h-1.012v-7.383h.864l3.081,5.189,3.036-5.189h.865l.011,7.383Z" transform="translate(-4899.404 -3312.544)" fill="#fff"/>
      <path id="Caminho_2337" data-name="Caminho 2337" d="M5082.914,3305.551h-3.924l-.811,1.845h-1.088l3.344-7.383h1.044l3.354,7.383h-1.107Zm-1.65-6.276a4.237,4.237,0,0,1-.46-.316,1.656,1.656,0,0,0-.273-.216.451.451,0,0,0-.233-.069.474.474,0,0,0-.379.175.755.755,0,0,0-.158.48h-.569a1.55,1.55,0,0,1,.3-.939.952.952,0,0,1,1.182-.237,3.3,3.3,0,0,1,.448.321,3.506,3.506,0,0,0,.285.217.4.4,0,0,0,.222.068.482.482,0,0,0,.379-.168.729.729,0,0,0,.158-.465h.569a1.487,1.487,0,0,1-.3.913.9.9,0,0,1-.732.343A.867.867,0,0,1,5081.263,3299.275Zm1.281,5.432-1.593-3.617-1.591,3.617Z" transform="translate(-4965.247 -3298.042)" fill="#fff"/>
      <path id="Caminho_2338" data-name="Caminho 2338" d="M5146.938,3320.874a3.635,3.635,0,0,1-1.408-1.355,3.909,3.909,0,0,1,0-3.86,3.635,3.635,0,0,1,1.408-1.355,4.361,4.361,0,0,1,4.019,0,3.59,3.59,0,0,1,1.4,1.35,3.947,3.947,0,0,1,0,3.87,3.588,3.588,0,0,1-1.4,1.35,4.363,4.363,0,0,1-4.019,0Zm3.475-.817a2.7,2.7,0,0,0,1.023-1.018,3,3,0,0,0,0-2.9,2.7,2.7,0,0,0-1.023-1.017,2.885,2.885,0,0,0-1.459-.369,2.956,2.956,0,0,0-1.472.369,2.693,2.693,0,0,0-1.033,1.017,3,3,0,0,0,0,2.9,2.7,2.7,0,0,0,1.033,1.018,2.963,2.963,0,0,0,1.472.369A2.892,2.892,0,0,0,5150.412,3320.056Z" transform="translate(-5025.044 -3311.925)" fill="#fff"/>
      <path id="Caminho_2339" data-name="Caminho 2339" d="M5219.626,3321.105a3.3,3.3,0,0,1-1.219-.669l.391-.823a3.227,3.227,0,0,0,1.081.617,3.972,3.972,0,0,0,1.355.237,2.441,2.441,0,0,0,1.371-.311.958.958,0,0,0,.453-.828.814.814,0,0,0-.248-.617,1.643,1.643,0,0,0-.611-.364q-.365-.127-1.028-.285a10.683,10.683,0,0,1-1.346-.4,2.224,2.224,0,0,1-.875-.617,1.651,1.651,0,0,1-.363-1.124,1.9,1.9,0,0,1,.31-1.065,2.138,2.138,0,0,1,.945-.76,3.833,3.833,0,0,1,1.571-.284,4.975,4.975,0,0,1,1.288.169,3.431,3.431,0,0,1,1.086.485l-.349.844a3.789,3.789,0,0,0-.992-.448,3.7,3.7,0,0,0-1.033-.153,2.277,2.277,0,0,0-1.345.327,1,1,0,0,0-.448.844.808.808,0,0,0,.252.617,1.77,1.77,0,0,0,.627.369,9.777,9.777,0,0,0,1.019.279,10.215,10.215,0,0,1,1.339.4,2.254,2.254,0,0,1,.87.612,1.608,1.608,0,0,1,.364,1.107,1.88,1.88,0,0,1-.317,1.06,2.115,2.115,0,0,1-.959.759,3.972,3.972,0,0,1-1.582.28A5.042,5.042,0,0,1,5219.626,3321.105Z" transform="translate(-5089.647 -3311.925)" fill="#fff"/>
    </g>
    <g id="Grupo_624" data-name="Grupo 624" transform="translate(3849.614 2567.341)">
      <g id="Grupo_623" data-name="Grupo 623" transform="translate(0 0)">
        <path id="Caminho_2340" data-name="Caminho 2340" d="M4459.917,2842.773a9.025,9.025,0,0,1-.084.909q-.087.682-.219,1.5c-.088.542-.177,1.023-.265,1.439v.228a2.6,2.6,0,0,1-.417,1.4,3.731,3.731,0,0,1-1.28,1.212,3.129,3.129,0,0,1-1.581.455,1.762,1.762,0,0,1-1.363-.607,3.075,3.075,0,0,1-.588-2.008,21.026,21.026,0,0,1,.17-2.217q.1-.814.169-1.61a4.375,4.375,0,0,1-2.273.322q-1.248-.133-1.534-.929a1.947,1.947,0,0,1-.028-1.42,1.879,1.879,0,0,1,.9-.966,23.569,23.569,0,0,1,3.789-1.1q.094-.72.378-3.183t.6-5.456q.313-2.993.474-4.926t.161-3.164a8.855,8.855,0,0,0-1.875.161,7.95,7.95,0,0,0-2.861,1.042,9.231,9.231,0,0,0-2.434,2.065,4.8,4.8,0,0,0-1.183,2.331,5.1,5.1,0,0,0,.075,1.98,2.884,2.884,0,0,0,.682,1.288,1.921,1.921,0,0,0,1.365.577,1.762,1.762,0,0,0,1.344-.388,1.438,1.438,0,0,0,.55-.853c.011-.24.019-.373.019-.4a1.547,1.547,0,0,0-.606-1.175,1.982,1.982,0,0,0-1.09-.265c-.5-.013-.8-.2-.9-.55a1.18,1.18,0,0,1,.038-.89,2.4,2.4,0,0,1,.92-.91,2.655,2.655,0,0,1,1.458-.3,2.862,2.862,0,0,1,1.732.8,4.143,4.143,0,0,1,1.317,2.15,9.8,9.8,0,0,1,.2,1.677,6.757,6.757,0,0,1-.284,1.914,6.459,6.459,0,0,1-1.544,2.689,4.285,4.285,0,0,1-2.861,1.279,5.058,5.058,0,0,1-5.333-3,9,9,0,0,1-.748-3.808,9.8,9.8,0,0,1,.872-3.921,11.183,11.183,0,0,1,2.378-3.391,14.141,14.141,0,0,1,4.755-2.927,17.826,17.826,0,0,1,6.128-1.174,13.745,13.745,0,0,1,5.711.976,8.011,8.011,0,0,1,3.127,2.557,15,15,0,0,1,2.1,4.054,30.164,30.164,0,0,1,1.26,4.963,53.658,53.658,0,0,1,.511,7.664,65.251,65.251,0,0,1-.141,6.848,5.573,5.573,0,0,1-.758,2.217,4.075,4.075,0,0,1-1.308,1.383,2.673,2.673,0,0,1-1.383.436,2.525,2.525,0,0,1-.3-.019,2.172,2.172,0,0,1-1.42-.994,5.8,5.8,0,0,1-.816-2.624c-.05-.5-.1-1.124-.142-1.856s-.079-1.39-.1-1.97-.044-.909-.057-.985Zm.833-4.414a27.887,27.887,0,0,0,3.3-1q.68-.245,1.118-.36a40.189,40.189,0,0,0-.314-4.348,35.891,35.891,0,0,0-.719-3.988,16.893,16.893,0,0,0-.948-2.918q-.5-1.1-.975-1.117l-.189,1.951q-.19,1.838-.446,4.348t-.482,4.641Q4460.865,2837.7,4460.751,2838.359Z" transform="translate(-4444.903 -2818.644)" fill="#f59e00"/>
        <path id="Caminho_2341" data-name="Caminho 2341" d="M4694.461,2888.891a3.189,3.189,0,0,1,.7-2.2,2.42,2.42,0,0,1,1.819-.682c.227,0,.467.013.719.038q.835.133,1.488,1.393a13.578,13.578,0,0,1,1.1,3.258,29.687,29.687,0,0,1,.605,3.894q.16,1.893.1,5.02a21.464,21.464,0,0,1-.567,4.1,6.817,6.817,0,0,1-1.2,2.719,2.1,2.1,0,0,1-1.857.8,1.9,1.9,0,0,1-1.421-.521,2.207,2.207,0,0,1-.312-1.288v-.947a10.868,10.868,0,0,1-2.4,2.576,7.362,7.362,0,0,1-2.566,1.411,8.024,8.024,0,0,1-1.961.294,4.841,4.841,0,0,1-2.046-.606,5.085,5.085,0,0,1-2.111-2.245,13.914,13.914,0,0,1-1.347-3.8,25.732,25.732,0,0,1-.5-4.812,40.1,40.1,0,0,1,.152-4.632,25.976,25.976,0,0,1,.673-3.837,9.758,9.758,0,0,1,.928-2.51,5.159,5.159,0,0,1,1.327-1.658,2.322,2.322,0,0,1,1.4-.549h.246a2.265,2.265,0,0,1,1.743.985,3.176,3.176,0,0,1,.4,1.3c.012.373.02.584.02.635a29.354,29.354,0,0,1-.333,3.41,45.68,45.68,0,0,0-.293,6.346,26.835,26.835,0,0,0,.379,5.257,2.041,2.041,0,0,0,1.3,1.629,1.487,1.487,0,0,0,1.677-.559,6.6,6.6,0,0,0,1.061-2.311,32.061,32.061,0,0,0,.739-5.048Q4694.441,2892.206,4694.461,2888.891Z" transform="translate(-4654.23 -2876.279)" fill="#f59e00"/>
        <path id="Caminho_2342" data-name="Caminho 2342" d="M4849.874,2893.473a3.6,3.6,0,0,1,1.032-1.193,3,3,0,0,1,1.64-.36h.208a3.485,3.485,0,0,1,1.468.379,2.346,2.346,0,0,1,.938.8,7.073,7.073,0,0,1,2.661-1.961,6.662,6.662,0,0,1,2-.369,8.772,8.772,0,0,1,2.236.322,5.19,5.19,0,0,1,2.519,1.61,9.127,9.127,0,0,1,1.714,2.908,12.148,12.148,0,0,1,.7,3.9,20.906,20.906,0,0,1-.2,3.874,18.166,18.166,0,0,1-1.221,4.253,10.627,10.627,0,0,1-2.255,3.4,5.7,5.7,0,0,1-3.647,1.582,8.561,8.561,0,0,1-4.3-.71q-.019.152.057,2t.1,4.547a24.924,24.924,0,0,1-.266,4.31,4.419,4.419,0,0,1-1.088,2.416,2.934,2.934,0,0,1-2.292.748,2.444,2.444,0,0,1-2.027-.824,3.71,3.71,0,0,1-.654-1.733q-.379-3.259-.512-6.195t-.133-4.149q0-5.267.209-10.4.171-4.736.512-7.407A4.492,4.492,0,0,1,4849.874,2893.473Zm6.517,13.924q.946.8,2.226-.758a7.967,7.967,0,0,0,1.677-3.278,21.622,21.622,0,0,0,.474-4.111,7.665,7.665,0,0,0-.332-2.217,1.686,1.686,0,0,0-1.061-1.3,1.828,1.828,0,0,0-1.543.36,5.207,5.207,0,0,0-1.544,2.065,9.762,9.762,0,0,0-.862,3.665,2,2,0,0,1,.739.256,1.634,1.634,0,0,1,.455.417,1.866,1.866,0,0,1,.247.446,1.748,1.748,0,0,1,.094.36l.02.152a2.389,2.389,0,0,0-.985.615,2.174,2.174,0,0,0-.549,1.43v.152A2.274,2.274,0,0,0,4856.391,2907.4Z" transform="translate(-4800.228 -2882.131)" fill="#f59e00"/>
        <path id="Caminho_2343" data-name="Caminho 2343" d="M5014.126,2881.764a12.527,12.527,0,0,1,2.406-3.448,11.556,11.556,0,0,1,3.211-2.33,7.388,7.388,0,0,1,2.634-.862l.938-.028a5.737,5.737,0,0,1,3.2.966,6.212,6.212,0,0,1,2.293,2.577,7.47,7.47,0,0,1,.482,4.2,5.644,5.644,0,0,1-1.97,3.9,7.716,7.716,0,0,1-3.675,1.658,27.149,27.149,0,0,1-3.117.36,7.2,7.2,0,0,1-1.952-.17,11.114,11.114,0,0,0,.436,2.216,6.008,6.008,0,0,0,1.146,2.321,2.341,2.341,0,0,0,1.828.891,1.628,1.628,0,0,0,1.5-.635,2.768,2.768,0,0,0,.407-1.563,8.224,8.224,0,0,0-.114-1.44.934.934,0,0,1,.408-.938,2.311,2.311,0,0,1,1.582-.369,3.133,3.133,0,0,1,2.775,2.51q.075.814.076,1.042a5.752,5.752,0,0,1-.568,2.425,6.887,6.887,0,0,1-2.785,2.719,7.714,7.714,0,0,1-3.675,1.3,8.31,8.31,0,0,1-4.575-1.24,8.07,8.07,0,0,1-2.8-3.183,11.5,11.5,0,0,1-1.193-3.685,23.754,23.754,0,0,1-.208-2.766,17.3,17.3,0,0,1,.171-2.425A14.36,14.36,0,0,1,5014.126,2881.764Zm4.945,2.993a8.432,8.432,0,0,0,2.321.284,2.88,2.88,0,0,0,3.021-2.719,2.177,2.177,0,0,0-.53-2.093,1.555,1.555,0,0,0-1.706-.322,4.178,4.178,0,0,0-1.837,1.686A8.8,8.8,0,0,0,5019.071,2884.757Z" transform="translate(-4944.835 -2868.338)" fill="#f59e00"/>
        <path id="Caminho_2344" data-name="Caminho 2344" d="M5163.007,2871.944q-3.06-.947-3.913-2.709a12.45,12.45,0,0,1-.994-4.764,37.555,37.555,0,0,1,.938-8.459,57.632,57.632,0,0,0,.739-5.854l-.986-.076a1.487,1.487,0,0,1-1.183-.578,1.753,1.753,0,0,1-.351-1.241,1.9,1.9,0,0,1,.379-1.089,1.326,1.326,0,0,1,.948-.445c.58-.038,1.022-.063,1.325-.076a12.422,12.422,0,0,0-.246-1.856,7.115,7.115,0,0,1-.18-1.582,1.7,1.7,0,0,1,.4-1.137,2.484,2.484,0,0,1,1.61-.568q1.222-.123,1.487-.123a2.212,2.212,0,0,1,2.141,1.591,9.032,9.032,0,0,1,.511,3.24v.682l.8.151a8.957,8.957,0,0,1,2.349.55,1.414,1.414,0,0,1,1.043,1.307,2.29,2.29,0,0,1-.587,1.468q-.587.711-3.751.313-.076,1.534-.379,3.751a86.665,86.665,0,0,0-.8,9.586,9.112,9.112,0,0,0,.189,2.1,1.343,1.343,0,0,0,1.307,1.1,2.253,2.253,0,0,0,1.668-.814,1.95,1.95,0,0,0,.568-1.326,1.848,1.848,0,0,0-.891-1.383,7.436,7.436,0,0,1-.653-.616.906.906,0,0,1,.1-1.449,2.02,2.02,0,0,1,1.326-.531c.037,0,.2.01.493.029a2.5,2.5,0,0,1,1.136.512,4,4,0,0,1,1.138,1.184,5.975,5.975,0,0,1,.871,3.22,6.172,6.172,0,0,1-.53,2.539,7.778,7.778,0,0,1-2.122,2.842A7.562,7.562,0,0,1,5163.007,2871.944Z" transform="translate(-5071.978 -2838.664)" fill="#f59e00"/>
      </g>
    </g>
    <g id="Grupo_625" data-name="Grupo 625" transform="translate(3770.884 2533.168)">
      <path id="Caminho_2345" data-name="Caminho 2345" d="M3873.419,2557.252s-1.021-9.679-12.788-9.546-15.673,10.524-16.429,11.978-1.687.5-1.687.5a24.819,24.819,0,0,0-5.372-4.884c-6.3-4.307-14.371-2.427-16.754-1.672a1.734,1.734,0,0,1-2.5-1.569c-1.184-17.879-14.268-18.767-14.268-18.767-9.5-1.051-12.521,4.87-12.166,8.954a9.554,9.554,0,0,0,4.374,7.46c1.82,1.243,6.948,2.009,9.114,1.01a3.24,3.24,0,0,1,3.415.041c3.109,2.664,1.836,6.9,1.836,6.9s-3.167,7.933-6.1,10.952a6.87,6.87,0,0,1-6.128,2.279,34.818,34.818,0,0,0-6.719-.8c-3.4.5-2.886,4.411-2.886,4.411-1.17,1.909-1.14,7.992-1.14,7.992.829,9.887,6.631,11.9,6.631,11.9a5.391,5.391,0,0,0,4.2,4.914,55.134,55.134,0,0,0,13.646.147,51,51,0,0,1,15.23.607c.962.281.8,0,.8,0-6.7-7.46-6.016-21.091-6.016-21.091l-2.464-8.3a1.138,1.138,0,0,1,.2-1.265,1.082,1.082,0,0,1,1.132-.222s7.815,4.019,9.591,4.862,2.368-.222,2.368-.222c4.8-4.47,15.4-3.963,15.4-3.963l6.261-6.76s4.007-5.173,4.118-1.8a10.538,10.538,0,0,0,1.155,5s2.634,3.67,6.9,3.256C3875.669,2568.249,3873.419,2557.252,3873.419,2557.252Zm-79.747,20.724c-1.825-.378-3.059-1.872-2.755-3.337s2.028-2.346,3.854-1.968,3.059,1.872,2.755,3.336S3795.5,2578.354,3793.672,2577.976Zm3.495,17.566v-1.924s10.182,1.628,13.113-4.47l1.746.74S3809.6,2597.14,3797.167,2595.542Z" transform="translate(-3787.22 -2533.167)" fill="#fff"/>
      <path id="Caminho_2346" data-name="Caminho 2346" d="M4142.2,2994.123s3.019-.111,4.107,0,1.132-1.132,1.132-1.132-.777-2.154-4.773-2.4a4.107,4.107,0,0,0-4.484,3.537s-.175,1.48,1.2,1.17S4140.383,2993.968,4142.2,2994.123Z" transform="translate(-4096.166 -2935.826)" fill="#fff"/>
      <path id="Caminho_2347" data-name="Caminho 2347" d="M4287.712,2960.346a8.8,8.8,0,0,1,6.067-2.012c2.191.207,1.44-1.369,1.44-1.369a4.84,4.84,0,0,0-4.075-1.776c-2.685.155-4.717,3.674-4.717,3.674s-.443.777.134,1.254A1.154,1.154,0,0,0,4287.712,2960.346Z" transform="translate(-4226.526 -2904.662)" fill="#fff"/>
      <ellipse id="Elipse_1" data-name="Elipse 1" cx="3.7" cy="2.66" rx="3.7" ry="2.66" transform="translate(52.627 62.921) rotate(-17.394)" fill="#fff"/>
      <path id="Caminho_2348" data-name="Caminho 2348" d="M4380.1,3030.827s6.182-.66,9.868.49,4.562,2.594,4.562,2.594.085.493-.246.626-.864-.307-.864-.307a10.323,10.323,0,0,0-4.359-1.6c-3.022-.537-8.642-1.149-8.642-1.149a.677.677,0,0,1-.583-.228C4379.646,3030.978,4380.1,3030.827,4380.1,3030.827Z" transform="translate(-4308.854 -2971.088)" fill="#fffffe"/>
      <path id="Caminho_2349" data-name="Caminho 2349" d="M4375.086,3051.168c.042.017,6.388.783,9.962,2.842,1.764,1.233,1.67,1.935,1.294,2.181s-.9-.351-.9-.351-.75-1.181-6.2-2.974c-4.3-1.342-4.371-1.369-4.371-1.369s-.481-.115-.408-.258S4375.086,3051.168,4375.086,3051.168Z" transform="translate(-4304.163 -2989.143)" fill="#fffffe"/>
    </g>
  </g>
</svg>
