<svg xmlns="http://www.w3.org/2000/svg" width="41.632" height="50.027" viewBox="0 0 41.632 50.027">
  <g id="noun_Paw_Print_1143832" data-name="noun_Paw Print_1143832" transform="translate(91.95 -99.598)">
    <path id="Caminho_573" data-name="Caminho 573" d="M46.732,10.079A16.939,16.939,0,0,1,48.517,11.7a20.064,20.064,0,0,1,6.165,14.769,19.889,19.889,0,0,1-6.165,14.69,1.98,1.98,0,0,0-.2.376,1.513,1.513,0,0,0-.437.4L36.107,54.327q-2.28,2.6-4.5,0L19.414,41.441l-.2-.277A19.89,19.89,0,0,1,13.05,26.473,20.063,20.063,0,0,1,19.216,11.7a15.044,15.044,0,0,1,1.823-1.625A19.637,19.637,0,0,1,33.906,5.6,19.682,19.682,0,0,1,46.732,10.079Zm5.195,16.335a17.387,17.387,0,0,0-5.314-12.747A17.433,17.433,0,0,0,33.827,8.353a17.386,17.386,0,0,0-12.748,5.314,17.384,17.384,0,0,0-5.313,12.747,17.384,17.384,0,0,0,5.313,12.747,17.386,17.386,0,0,0,12.748,5.314,17.432,17.432,0,0,0,12.786-5.314A17.387,17.387,0,0,0,51.927,26.414Zm-11.539-2.3a2.832,2.832,0,0,1,.219-2.1,2.707,2.707,0,0,1,1.645-1.288,2.676,2.676,0,0,1,2.1.277A2.79,2.79,0,0,1,45.4,24.749a2.674,2.674,0,0,1-1.665,1.288,2.542,2.542,0,0,1-2.061-.239A2.767,2.767,0,0,1,40.388,24.114ZM35.452,15.45a2.716,2.716,0,0,1,2.339.417,3.246,3.246,0,0,1,1.447,2.021,3.394,3.394,0,0,1-.2,2.5,2.8,2.8,0,0,1-4.063,1.13,3.387,3.387,0,0,1-1.488-2.042,3.255,3.255,0,0,1,.238-2.5A2.736,2.736,0,0,1,35.452,15.45Zm4.441,19.587a4.862,4.862,0,0,0-3.489-1.11q-1.9.059-2.934,2.438-1.05,2.4-3.529-.615-2.5-3.073-.912-5.888a7.524,7.524,0,0,1,4.7-3.687,8.45,8.45,0,0,1,6.264.713q3.113,1.586,2.3,5.472Q41.44,36.268,39.893,35.038ZM30.754,20.249a3.3,3.3,0,0,1-.238,2.518,2.619,2.619,0,0,1-1.726,1.487,2.784,2.784,0,0,1-2.3-.337,3.3,3.3,0,0,1-1.447-2.042,3.138,3.138,0,0,1,.2-2.5,2.613,2.613,0,0,1,1.765-1.547,2.527,2.527,0,0,1,2.26.4A3.31,3.31,0,0,1,30.754,20.249Zm-8.485,6.939a2.851,2.851,0,0,1,1.685-1.309,2.509,2.509,0,0,1,2.062.259A2.6,2.6,0,0,1,27.3,27.8a2.56,2.56,0,0,1-.238,2.1A2.624,2.624,0,0,1,25.4,31.191a2.68,2.68,0,0,1-2.061-.238,2.769,2.769,0,0,1-1.289-1.665A2.823,2.823,0,0,1,22.269,27.187Z" transform="translate(-105 94)" fill="#772e8a" fill-rule="evenodd"/>
  </g>
</svg>
