<svg xmlns="http://www.w3.org/2000/svg" xmlns:xlink="http://www.w3.org/1999/xlink" width="45.955" height="9.679" viewBox="0 0 45.955 9.679"> <defs> <clipPath id="clip-path"> <path id="Clip_6" data-name="Clip 6" d="M0,9.679H45.955V0H0Z" transform="translate(0 0.154)" fill="none"></path> </clipPath> </defs> <g id="Group_12" data-name="Group 12" transform="translate(0 -0.167)"> <path id="Fill_1" data-name="Fill 1" d="M4.338,0V2.648H1.909V0H0V6.968H1.909V4.33H4.338V6.968h1.89V0Z" transform="translate(0 2.877)" fill="#58585b"></path> <path id="Fill_2" data-name="Fill 2" d="M0,6.969H1.9V0H0Z" transform="translate(8.561 2.867)" fill="#58585b"></path> <g id="Group_11" data-name="Group 11" transform="translate(0 0.012)"> <path id="Fill_3" data-name="Fill 3" d="M3.48,6.969H0V0H3.451C4.635,0,5.9.513,5.9,1.951A1.357,1.357,0,0,1,5.158,3.3a1.849,1.849,0,0,1,.935,1.623C6.093,6.751,4.266,6.962,3.48,6.969ZM1.88,4.111V5.436H3.49A.625.625,0,0,0,4.2,4.779a.642.642,0,0,0-.714-.668Zm0-2.518V2.658H3.4c.38,0,.608-.193.608-.518a.539.539,0,0,0-.589-.547Z" transform="translate(12.793 2.855)" fill="#58585b"></path> <path id="Clip_6-2" data-name="Clip 6" d="M0,9.679H45.955V0H0Z" transform="translate(0 0.154)" fill="none"></path> <g id="Group_11-2" data-name="Group 11" clip-path="url(#clip-path)"> <path id="Fill_5" data-name="Fill 5" d="M0,6.969H1.9V0H0Z" transform="translate(26.423 2.855)" fill="#f26f21"></path> <path id="Fill_7" data-name="Fill 7" d="M2.893,6.969H0V0H2.893A3.231,3.231,0,0,1,6.421,3.434,3.283,3.283,0,0,1,2.893,6.969Zm-1-5.325V5.306h1c1.026,0,1.639-.707,1.639-1.892A1.57,1.57,0,0,0,2.893,1.643Z" transform="translate(30.655 2.855)" fill="#f26f21"></path> <path id="Fill_8" data-name="Fill 8" d="M2.025,6.969H0L3.028,0H4.955L7.972,6.967H5.929L5.485,5.824H2.468L2.025,6.969ZM3.982,1.951l-.868,2.22H4.84Z" transform="translate(37.982 2.855)" fill="#f26f21"></path> <path id="Fill_9" data-name="Fill 9" d="M3.682,4.5A2.1,2.1,0,0,0,5.109,2.4,2.4,2.4,0,0,0,2.486,0H0A2.828,2.828,0,0,1,.946,1.573H2.486a.776.776,0,0,1,.742.866.722.722,0,0,1-.723.807H1.8V4.765l1.533,2.2H5.524Z" transform="translate(19.165 2.855)" fill="#f26f21"></path> <path id="Fill_10" data-name="Fill 10" d="M0,1.573H1.887L2.981,0H1.174Z" transform="translate(8.561 0.154)" fill="#f26f21"></path> </g> </g> </g> </svg>