<svg height="480pt" viewBox="0 0 480.00222 480" width="480pt" xmlns="http://www.w3.org/2000/svg" style="fill: white;"><path d="m69.496094 69.496094c-49.980469 49.988281-49.980469 131.023437 0 181.007812l11.304687-11.304687c-43.746093-43.738281-43.746093-114.660157 0-158.398438zm0 0"/><path d="m467.441406 405.679688-110.960937-110.878907c-8.140625-8.136719-19.210938-12.660156-30.71875-12.558593-3.570313.054687-7.121094.566406-10.5625 1.519531l-27.4375-27.519531-.160157-.160157c10.539063-13.917969 18.753907-29.453125 24.320313-46 1.835937-5.652343 3.382813-11.394531 4.636719-17.199219.480468-2.160156.882812-4.242187 1.203125-6.402343.316406-2.160157.71875-4.320313.957031-6.480469.242188-1.839844.480469-3.757812.640625-5.597656.402344-4.800782.640625-9.601563.640625-14.402344 0-88.363281-71.632812-160-160-160s-160 71.636719-160 160c0 88.367188 71.632812 160 160 160 4.800781 0 9.601562-.238281 14.398438-.640625 1.839843-.160156 3.761718-.398437 5.601562-.636719 2.160156-.242187 4.320312-.5625 6.480469-.960937 2.160156-.320313 4.320312-.71875 6.398437-1.199219 5.808594-1.257812 11.550782-2.804688 17.199219-4.640625 16.582031-5.546875 32.144531-13.761719 46.082031-24.320313l27.601563 27.597657c-3.9375 14.746093.265625 30.472656 11.039062 41.28125l110.878907 110.960937c8.089843 8.066406 19.054687 12.585938 30.480468 12.558594h.320313c23.992187-.101562 43.417969-19.523438 43.519531-43.519531.117188-11.535157-4.410156-22.632813-12.558594-30.800781zm-307.441406-101.679688c-79.527344 0-144-64.46875-144-144 0-79.527344 64.472656-144 144-144s144 64.472656 144 144c-.09375 79.492188-64.507812 143.910156-144 144zm135.039062-8.957031c-1.441406 1.53125-2.777343 3.164062-4 4.878906l-22.398437-22.480469-.160156-.160156c3.039062-2.800781 6-5.761719 8.800781-8.800781l.160156.160156 22.480469 22.402344c-1.71875 1.21875-3.347656 2.554687-4.882813 4zm0 0"/></svg>