<svg xmlns="http://www.w3.org/2000/svg" xmlns:xlink="http://www.w3.org/1999/xlink" width="290" height="235" viewBox="0 0 290 235">
  <defs>
    <clipPath id="clip-path">
      <rect id="Retângulo_26" data-name="Retângulo 26" width="290" height="235" transform="translate(7116 -488)" fill="#fff" stroke="#707070" stroke-width="1"/>
    </clipPath>
  </defs>
  <g id="Grupo_de_máscara_4" data-name="Grupo de máscara 4" transform="translate(-7116 488)" clip-path="url(#clip-path)">
    <g id="Grupo_92" data-name="Grupo 92" transform="translate(7089.064 -646)">
      <path id="Caminho_233" data-name="Caminho 233" d="M1930.428,1059.882s20.037,4.75,29.9-16.778c12.8-27.93-5.164-54.461-36.146-56.372-44.686-2.756-19.921-74.1-90.434-54.741-19.827,5.443-62.953-22.655-88.339,24.954-4.317,8.1-17.221,7.7-34.414,21.509-30.328,24.362-19.41,81.687,6.143,81.948S1930.428,1059.882,1930.428,1059.882Z" transform="translate(-1651.699 -719.979)" fill="#e1defe"/>
      <path id="Caminho_234" data-name="Caminho 234" d="M2041.632,1121.26s29.407,6.972,43.884-24.623c18.781-40.991-7.579-79.93-53.05-82.734-65.583-4.045-29.236-108.751-132.725-80.341-29.1,7.988-92.392-33.25-129.651,36.623-6.336,11.881-25.275,11.3-50.507,31.567-44.511,35.756-28.488,119.888,9.016,120.27S2041.632,1121.26,2041.632,1121.26Z" transform="translate(-1593.699 -727.979)" fill="#a7e2de" opacity="0.25"/>
      <g id="Grupo_79" data-name="Grupo 79" transform="translate(24.881 136.897)">
        <g id="Grupo_69" data-name="Grupo 69" transform="translate(52.115 30.746)">
          <path id="Caminho_119" data-name="Caminho 119" d="M122.146,239.387s2.14,2.691,12.842-.653l-1.824-4.682S125.782,235.236,122.146,239.387Z" transform="translate(-90.57 -133.88)" fill="#2d84a2"/>
          <g id="Grupo_61" data-name="Grupo 61" transform="translate(39.354 86.389)">
            <g id="Grupo_59" data-name="Grupo 59" transform="translate(6.052 79.283)">
              <path id="Caminho_120" data-name="Caminho 120" d="M150.791,387.155l12.63,9.944L157.142,385l-3.012-1.661Z" transform="translate(-149.914 -372.195)" fill="#fff"/>
              <path id="Caminho_121" data-name="Caminho 121" d="M171.971,361.635l-14.677,11.142,3.012,1.661,14.059-9.809Z" transform="translate(-153.078 -361.635)" fill="#ffb373"/>
              <path id="Caminho_122" data-name="Caminho 122" d="M149.96,390.774l12.63,9.944-.818,1.2-12.689-9.984Z" transform="translate(-149.083 -375.814)" fill="#3793ac"/>
            </g>
            <g id="Grupo_60" data-name="Grupo 60" transform="translate(0 0)">
              <path id="Caminho_123" data-name="Caminho 123" d="M186.25,268.079l-38.687,29.552,3.012,1.661s48.307-24.631,50.613-30.78S165.58,215.5,165.58,215.5l-22.963-8.292s-5.167,14.583-5.322,17.878,51.812,39.131,51.812,39.131a9.892,9.892,0,0,0-1.843.589C186.592,265.14,186.25,268.079,186.25,268.079Z" transform="translate(-137.295 -207.206)" fill="#44484b"/>
            </g>
            <path id="Caminho_124" data-name="Caminho 124" d="M205.68,290.074a236.137,236.137,0,0,0-18.365-15.75c-3.079-2.376-6.2-4.746-9.471-6.849-3.064-1.968-6.518-3.852-10.175-4.35-.166-.023-.245.215-.072.26a34.878,34.878,0,0,1,10.374,4.665c3.146,2.059,6.151,4.351,9.127,6.646a234.188,234.188,0,0,1,18.285,15.676C205.579,290.559,205.877,290.262,205.68,290.074Z" transform="translate(-151.993 -234.416)" fill="#313538"/>
            <path id="Caminho_125" data-name="Caminho 125" d="M256.4,323.374c-.344-1.046-4.145-.522-4.177-.065s1.826,1.525,2.585,1.543S256.536,323.786,256.4,323.374Z" transform="translate(-193.219 -263.437)" fill="#cff0ff" opacity="0.1"/>
          </g>
          <g id="Grupo_63" data-name="Grupo 63" transform="translate(7.777 90.823)">
            <g id="Grupo_62" data-name="Grupo 62" transform="translate(0 93.761)">
              <path id="Caminho_126" data-name="Caminho 126" d="M76.856,435.905l12.964,3.5-8.093-7.883-3.438.115Z" transform="translate(-76.309 -414.555)" fill="#fff"/>
              <path id="Caminho_127" data-name="Caminho 127" d="M87.822,398.472l-8.173,17.083,3.438-.115,8.325-15.623Z" transform="translate(-77.668 -398.472)" fill="#ffb373"/>
              <path id="Caminho_128" data-name="Caminho 128" d="M76.337,440.058l12.964,3.5-.529,1.333L75.79,441.5Z" transform="translate(-75.79 -418.708)" fill="#3793ac"/>
            </g>
            <path id="Caminho_129" data-name="Caminho 129" d="M137.529,219.7l-29.2-3.858s-5.684,9.623-3.536,17.035c.918,3.168-2.64,43.913-2.64,43.913a8.436,8.436,0,0,0-1.758,2.086,33.046,33.046,0,0,0-.21,3.959L79.649,326.688l3.438-.115S114.018,282.127,116,275.866c1.73-5.463,2.984-21.174,7.936-36.639A152.312,152.312,0,0,0,137.529,219.7" transform="translate(-77.668 -215.843)" fill="#44484b"/>
            <path id="Caminho_130" data-name="Caminho 130" d="M128.459,260.811c-.024-.158-.294-.118-.29.037.081,3.107.339,6.2.365,9.313q.036,4.557-.282,9.108a118.381,118.381,0,0,1-2.811,18.584c-.08.343.477.49.556.146a119.54,119.54,0,0,0,2.754-18.518A87.32,87.32,0,0,0,128.459,260.811Z" transform="translate(-99.946 -237.676)" fill="#313538"/>
            <path id="Caminho_131" data-name="Caminho 131" d="M164.6,250.729a5.1,5.1,0,0,0,4.2.989c2.463-.533,3.524-7.6,2.947-11.341a31.5,31.5,0,0,0-1.123-5.244s-1.138,3.794-2.371,7.023S165.058,249.1,164.6,250.729Z" transform="translate(-119.006 -225.229)" fill="#212426" opacity="0.2"/>
          </g>
          <path id="Caminho_132" data-name="Caminho 132" d="M170.4,228.881a48.507,48.507,0,0,1-1.032,4.938,45.971,45.971,0,0,1-1.987,5.257c-.69,1.573-1.424,3.126-2.128,4.691a22.347,22.347,0,0,0-1.846,4.637c-.036.189.222.324.326.138.883-1.582,1.423-3.421,2.171-5.079.733-1.625,1.486-3.241,2.18-4.883,1.259-2.98,2.629-6.373,2.566-9.664C170.651,228.776,170.43,228.735,170.4,228.881Z" transform="translate(-110.647 -131.319)" fill="#313538"/>
          <path id="Caminho_133" data-name="Caminho 133" d="M242.183,318.974a20.343,20.343,0,0,1-2.08-.443,20.1,20.1,0,0,0-2.034-.6.128.128,0,0,0-.14.068.179.179,0,0,0-.179.23,3.08,3.08,0,0,0,.949,1.385c.332.293.893.771,1.359.671a.165.165,0,0,0,.1-.241,1.173,1.173,0,0,0-.469-.318,3.645,3.645,0,0,1-.658-.443,4.246,4.246,0,0,1-.78-.955,11.038,11.038,0,0,0,3.811,1.091C242.348,319.459,242.474,319.023,242.183,318.974Z" transform="translate(-146.819 -174.692)" fill="#313538"/>
          <path id="Caminho_134" data-name="Caminho 134" d="M164.187,382.274c-.978-.569-1.8-1.333-2.73-1.969-.085-.058-.165.066-.1.136A15.677,15.677,0,0,0,164,382.6C164.189,382.738,164.4,382.4,164.187,382.274Z" transform="translate(-109.637 -205.04)" fill="#313538"/>
          <path id="Caminho_135" data-name="Caminho 135" d="M85.359,427.882a6.115,6.115,0,0,0-1.541-.3c-.589-.1-1.171-.244-1.76-.345a.117.117,0,0,0-.063.226,12.341,12.341,0,0,0,1.854.453,4.053,4.053,0,0,0,1.486.14A.1.1,0,0,0,85.359,427.882Z" transform="translate(-70.992 -227.884)" fill="#313538"/>
          <path id="Caminho_136" data-name="Caminho 136" d="M133.055,233.235c-.015-.281-.455-.283-.439,0,.108,1.947.282,3.9.294,5.855a10.284,10.284,0,0,1-.325,2.89,11.5,11.5,0,0,1-1.221,2.429c-.043.078.049.189.131.131,1.245-.886,1.653-2.739,1.787-4.171A48.81,48.81,0,0,0,133.055,233.235Z" transform="translate(-95.05 -133.38)" fill="#313538"/>
          <path id="Caminho_137" data-name="Caminho 137" d="M143.33,297.29q-1.213-.478-2.451-.887a11.067,11.067,0,0,1-2.812-.947,16.877,16.877,0,0,1,6.683-.259c.172.02.195-.247.04-.294a13.862,13.862,0,0,0-7.3.144.277.277,0,0,0-.163.4c.45.9,1.708.978,2.569,1.251,1.568.5,3.082,1.108,4.609,1.718.338.135.531.081.329.248a2.408,2.408,0,0,1-.918.2c-.72.127-1.45.18-2.175.266a8.394,8.394,0,0,0-3.363.912c-.254.151-.087.613.209.5a18.822,18.822,0,0,1,4.66-.975c.553-.072,2.25-.056,2.407-.8C145.834,297.914,143.84,297.491,143.33,297.29Z" transform="translate(-97.941 -163.283)" fill="#313538"/>
          <path id="Caminho_138" data-name="Caminho 138" d="M220.508,272.35c-.538-.852-2.306.7-2.764,1.118-.657.594-1.229,1.273-1.841,1.91-.377.393-1.778,1.985-2.177,1.4-.205-.3.259-1.623.363-2.021a13.775,13.775,0,0,1,.542-1.642,14.314,14.314,0,0,1,1.872-3.279c.109-.144-.137-.336-.252-.194a13.371,13.371,0,0,0-2.183,3.715,8.38,8.38,0,0,0-.773,4.033.222.222,0,0,0,.155.155c.586.189,1.337-.546,1.754-.892a31.645,31.645,0,0,0,2.3-2.336,8.641,8.641,0,0,1,1.339-1.162,5.168,5.168,0,0,1,.647-.379c.834-.4.55.23.445.81-.275,1.518-.851,2.976-1.143,4.494a.148.148,0,0,0,.285.079,31.25,31.25,0,0,0,1.015-3.436C220.228,274.2,220.846,272.887,220.508,272.35Z" transform="translate(-134.894 -151.176)" fill="#313538"/>
          <path id="Caminho_139" data-name="Caminho 139" d="M144.3,331.739c-.107-1.1-3.931-1.415-4.063-.975s1.448,1.887,2.186,2.071S144.344,332.171,144.3,331.739Z" transform="translate(-99.37 -180.848)" fill="#cff0ff" opacity="0.1"/>
          <path id="Caminho_140" data-name="Caminho 140" d="M123.88,336.348a7.092,7.092,0,0,0-.316-2.6.055.055,0,0,0-.093,0c-.538.806-.3,2.1-.213,3.026a7.94,7.94,0,0,0,.715,3.069.256.256,0,0,0,.473-.128C124.4,338.588,124,337.479,123.88,336.348Z" transform="translate(-91.047 -182.38)" fill="#313538"/>
          <path id="Caminho_141" data-name="Caminho 141" d="M82.357,138.948s-19.795,7.146-21.59,9.166,16.157,31.341,16.157,31.341l2.768-2.019-9.5-24.61s12.566-5.386,16.83-6.732Z" transform="translate(-60.641 -87.602)" fill="#ffc5a7"/>
          <path id="Caminho_142" data-name="Caminho 142" d="M79.01,164.1a6.5,6.5,0,0,0-.879-2.3.244.244,0,0,0-.269-.109l-.04.016-.017.008a.242.242,0,0,0-.109.269c.143.781.452,1.528.606,2.311C78.392,164.758,79.12,164.566,79.01,164.1Z" transform="translate(-68.937 -98.665)" fill="#eaa797"/>
          <path id="Caminho_143" data-name="Caminho 143" d="M235.753,47.4s-3.866-2.3-3-2.735,3.2,1.151,3.2,1.151a4.824,4.824,0,0,1-1.014-2.749c-.052-1.129.366-4.09,1.014-4.09s.144,3.336.144,3.336.744-3.772,1.656-3.336c.244.117-.317,3.639-.317,3.639s.989-3.543,1.565-3.255-.024,3.432-.024,3.432.6-2.448,1.176-2.448-.12,2.784-.12,2.784.231,1.642.5,2.87c.216.976-1.774,3.074-1.774,3.074Z" transform="translate(-144.329 -38.937)" fill="#ffc5a7"/>
          <path id="Caminho_144" data-name="Caminho 144" d="M207.1,57.085S200.47,87.246,195.92,92.133c-3.029,3.253-27.228,9.649-27.228,9.649s-3.289-4.893,1.339-11.366c0,0,18.784-5.109,20.635-5.916s13.425-29.087,13.425-29.087Z" transform="translate(-112.667 -46.954)" fill="#ffc5a7"/>
          <path id="Caminho_145" data-name="Caminho 145" d="M211.561,111.675a2.757,2.757,0,0,0-.823,1.174,15.9,15.9,0,0,0-.625,1.52c-.162.454.6.674.727.2a12.125,12.125,0,0,1,.491-1.47,4.234,4.234,0,0,0,.451-1.3A.147.147,0,0,0,211.561,111.675Z" transform="translate(-133.363 -74.321)" fill="#eaa797"/>
          <path id="Caminho_146" data-name="Caminho 146" d="M122.583,124.234s1.194,46.03.111,49.639c0,0-3.712,2.181-2.991,3.625s3.472,2.149,3.472,2.149-2.962,3.969-2.263,5.774c0,0,17.659-9.382,36.063-10.826,0,0-1.444-6.856-3.609-6.856,0,0,2.165-4.33.722-6.134s-7.376-36.293-8.458-38.458C145.63,123.146,131.843,123.918,122.583,124.234Z" transform="translate(-89.336 -79.913)" fill="#3293b4"/>
          <path id="Caminho_147" data-name="Caminho 147" d="M126.152,157.282l25.969-4.2,1.646,8.325-27.485,5.405Z" transform="translate(-92.519 -94.481)" fill="#599bab"/>
          <path id="Caminho_148" data-name="Caminho 148" d="M144.793,79.075a60.365,60.365,0,0,0,12.656-.371,12.832,12.832,0,0,0,3.657-.876,4.912,4.912,0,0,0-2.255-1.185c.128.279,1.664-2.254,2.03-3.2a3.706,3.706,0,0,0-1.523-.114,7.386,7.386,0,0,0,.512-2.9l-19.241,1.4a2.821,2.821,0,0,0-1.226.278,2.872,2.872,0,0,0-1.021,2.351c-.061.644-1.557-.174-1.707.809-.363,2.383,4.139,19.017,6.831,18.311C145.915,92.946,145.415,83.779,144.793,79.075Z" transform="translate(-97.63 -54.261)" fill="#a44e33"/>
          <g id="Grupo_68" data-name="Grupo 68" transform="translate(41.64 22.101)">
            <g id="Grupo_67" data-name="Grupo 67">
              <path id="Caminho_149" data-name="Caminho 149" d="M152.043,103.272,150.3,115.664c-4.016,2.747-6.865-3.369-6.865-3.369l2.459-13.036Z" transform="translate(-142.569 -90.391)" fill="#ffc5a7"/>
              <path id="Caminho_150" data-name="Caminho 150" d="M149.377,107.546s-2.384,9.181,3.952,9.651l.9-6.658Z" transform="translate(-145.247 -94.424)" fill="#eaa797"/>
              <g id="Grupo_66" data-name="Grupo 66" transform="translate(0 8.435)">
                <g id="Grupo_65" data-name="Grupo 65">
                  <g id="Grupo_64" data-name="Grupo 64">
                    <path id="Caminho_151" data-name="Caminho 151" d="M145.625,100.262a1.812,1.812,0,0,1-1.735,2.022,2.075,2.075,0,0,1-2.131-1.844,1.812,1.812,0,0,1,1.735-2.022A2.076,2.076,0,0,1,145.625,100.262Z" transform="translate(-141.748 -98.416)" fill="#ffc5a7"/>
                  </g>
                </g>
              </g>
              <path id="Caminho_152" data-name="Caminho 152" d="M159.635,81.986s.983,18.477-1.488,19.4c-2.915,1.088-7.859,1.9-9.146-1.512-2.364-6.265-3.851-16.889-3.851-16.889Z" transform="translate(-143.403 -81.986)" fill="#ffc5a7"/>
              <path id="Caminho_153" data-name="Caminho 153" d="M168.48,91.925c.037.37,1.613.509,2.528.413s1.2-.428,1.162-.8-1.186-.554-2.1-.458S168.442,91.555,168.48,91.925Z" transform="translate(-154.755 -86.4)" fill="#a44e33"/>
              <path id="Caminho_154" data-name="Caminho 154" d="M157.893,93.012c.037.37-1.478.832-2.393.927s-1.26-.172-1.3-.542,1.051-.787,1.966-.883S157.855,92.641,157.893,93.012Z" transform="translate(-147.808 -87.098)" fill="#a44e33"/>
              <path id="Caminho_155" data-name="Caminho 155" d="M164.845,109.72l-5.745.3s1.454,3.547,3.615,2.985S164.845,109.72,164.845,109.72Z" transform="translate(-150.192 -95.481)" fill="#fff"/>
            </g>
          </g>
          <path id="Caminho_156" data-name="Caminho 156" d="M146.365,90.971c.746-.016-.418-7.152-.362-8.595,1.251.817,7.147.742,9.447.083,3.522-1.01,4.545-2.668,4.7-3.709-15.194-1.3-17.455,1.289-17.281,2.6C143.026,82.54,145.363,91.5,146.365,90.971Z" transform="translate(-100.648 -58.138)" fill="#a44e33"/>
          <path id="Caminho_157" data-name="Caminho 157" d="M148.984,84.784s5.847,3.658,12.254.82a11.02,11.02,0,0,1-4.831-2.259Z" transform="translate(-103.629 -60.546)" fill="#a44e33"/>
          <path id="Caminho_158" data-name="Caminho 158" d="M160.438,97.682a1.33,1.33,0,0,0-1.184-.065,1.554,1.554,0,0,0-.771.8c-.026.068-.132.432.026.444.436.031.656-.612,1.052-.743.532-.176.919.44,1.382.3a.062.062,0,0,0,.042-.045C161.033,98.068,160.688,97.813,160.438,97.682Z" transform="translate(-108.223 -67.437)" fill="#2f3336"/>
          <path id="Caminho_159" data-name="Caminho 159" d="M171.486,96.561a1.522,1.522,0,0,0-1.409.7c-.167.213.071.542.319.377.319-.212.576-.571.99-.579.364-.007.55.257.864.335a.1.1,0,0,0,.118-.073C172.413,96.889,171.848,96.611,171.486,96.561Z" transform="translate(-113.865 -66.971)" fill="#2f3336"/>
          <path id="Caminho_160" data-name="Caminho 160" d="M167.742,102.389a10.753,10.753,0,0,1-.8-1.214c-.15-.343-.217-.749-.567-.935a.034.034,0,0,0-.045.014c-.241.449.078,1.047.282,1.461.179.361.985,1.074.547,1.412a.258.258,0,0,0,.15.469C167.971,103.611,168,102.818,167.742,102.389Z" transform="translate(-112.027 -68.765)" fill="#eaa797"/>
          <path id="Caminho_161" data-name="Caminho 161" d="M145.954,102.28a1.611,1.611,0,0,0-.823-.765c-.3-.123-.759-.241-.957.092a.215.215,0,0,0,.01.222c.165.214.411.173.644.263a1.046,1.046,0,0,1,.382.265,2.527,2.527,0,0,0-.4.3c-.263.247.1.617.388.458.224-.125.432-.27.662-.385A.331.331,0,0,0,145.954,102.28Z" transform="translate(-101.276 -69.326)" fill="#eaa797"/>
          <path id="Caminho_162" data-name="Caminho 162" d="M150.744,126.329a.049.049,0,0,0-.093,0c-.381,1.48-.423,3-.927,4.471a1.83,1.83,0,0,1-2.193,1.492,8.769,8.769,0,0,1-2.158-.614c-2.576-1.071-4.289-3.124-6.5-4.7-.031-.022-.074.022-.052.052a14.576,14.576,0,0,0,8.144,5.628c1.242.264,2.393.223,2.952-1.065A10.2,10.2,0,0,0,150.744,126.329Z" transform="translate(-98.68 -81.445)" fill="#2d84a2"/>
          <path id="Caminho_163" data-name="Caminho 163" d="M168.626,118.2a5.055,5.055,0,0,1,1.315-.79c.467-.107,1.2.4,1.2.4s15.342-4.144,17.419-4.823c0,0-1.172,10.435-2.02,12.455l-17.307,6.62S164.347,124.091,168.626,118.2Z" transform="translate(-112.332 -74.967)" fill="#3293b4"/>
          <path id="Caminho_164" data-name="Caminho 164" d="M101.133,124.838s-1.313-.7-1.874-.358a11.115,11.115,0,0,0-1.21.887l-22.52,9.15s4.039,7.634,8.976,9.99l17.615-5.722S106.2,133.106,101.133,124.838Z" transform="translate(-67.886 -80.517)" fill="#3293b4"/>
          <path id="Caminho_165" data-name="Caminho 165" d="M155.82,214.437a37.251,37.251,0,0,0-5.995,1.521c-2.093.589-4.181,1.209-6.234,1.926a50.5,50.5,0,0,0-11.412,5.348.017.017,0,0,0,.017.028,70.909,70.909,0,0,1,11.694-5.063q2.919-.956,5.88-1.774a48.541,48.541,0,0,0,6.1-1.7C156.009,214.663,156,214.419,155.82,214.437Z" transform="translate(-95.448 -124.335)" fill="#2d84a2"/>
          <path id="Caminho_166" data-name="Caminho 166" d="M151.027,212.273a16.539,16.539,0,0,0-3.981.466q-2.249.4-4.459.985a29.392,29.392,0,0,0-8.017,2.965.047.047,0,0,0,.039.084c1.395-.386,2.724-1.033,4.092-1.509q1.969-.685,3.987-1.222t4.068-.914c1.408-.259,2.927-.294,4.3-.693C151.151,212.407,151.114,212.28,151.027,212.273Z" transform="translate(-96.604 -123.274)" fill="#2d84a2"/>
          <path id="Caminho_167" data-name="Caminho 167" d="M155.05,152.072c-2.319,4.369-4.439,8.832-6.882,13.139s-5.237,8.38-7.845,12.589c-.109.176.17.381.3.213a113.635,113.635,0,0,0,7.814-12.433,105.565,105.565,0,0,0,6.72-13.451C155.183,152.058,155.087,152,155.05,152.072Z" transform="translate(-99.403 -93.973)" fill="#2d84a2"/>
          <path id="Caminho_168" data-name="Caminho 168" d="M167.586,173.172c-.423,1.631-.74,3.284-1.19,4.909-.443,1.6-1.165,3.2-1.455,4.831a.077.077,0,0,0,.142.053,17.643,17.643,0,0,0,1.663-4.8,27,27,0,0,0,.883-4.987C167.63,173.152,167.592,173.15,167.586,173.172Z" transform="translate(-111.393 -104.248)" fill="#2d84a2"/>
          <path id="Caminho_169" data-name="Caminho 169" d="M128,130.044a.2.2,0,0,0-.381.105,16.7,16.7,0,0,1,.53,5.851,16.451,16.451,0,0,1-.548,2.966c-.2.7-.512,2.5-1.287,2.784a.018.018,0,0,0,.005.036l.41.018a.1.1,0,0,0,.086-.049A15.757,15.757,0,0,0,128,130.044Z" transform="translate(-92.593 -83.202)" fill="#2d84a2"/>
          <path id="Caminho_170" data-name="Caminho 170" d="M89.934,152.795c-2.674-2.691-5.26-5.54-8.1-8.06a.158.158,0,0,0-.223.223c2.495,2.859,5.32,5.471,7.985,8.171A.236.236,0,0,0,89.934,152.795Z" transform="translate(-70.826 -90.397)" fill="#2d84a2"/>
          <path id="Caminho_171" data-name="Caminho 171" d="M201.025,115.557c-.008-.226-.36-.227-.353,0a60.06,60.06,0,0,1-1.051,11.857.108.108,0,0,0,.208.058A38.28,38.28,0,0,0,201.025,115.557Z" transform="translate(-128.268 -76.137)" fill="#2d84a2"/>
          <path id="Caminho_172" data-name="Caminho 172" d="M95.125,213.915s3.419,1.657,4.3,1.966.915,3.2.952,3.6-1.1.623-1.1.623.257.952,0,1.318-2.087.293-2.234.622-1.209.525-1.648.538-1.936-3.014-2.273-3.885a15.985,15.985,0,0,1-.764-2.767Z" transform="translate(-76.074 -124.082)" fill="#ffc5a7"/>
        </g>
        <g id="Grupo_78" data-name="Grupo 78" transform="translate(151.835 34.183)">
          <path id="Caminho_173" data-name="Caminho 173" d="M323.048,190.335s6.117,8.59,20.275,5.815A19.126,19.126,0,0,0,323.048,190.335Z" transform="translate(-288.049 -115.634)" fill="#ee8043"/>
          <path id="Caminho_174" data-name="Caminho 174" d="M355.6,105.757s.907.911.682,1.439a1.715,1.715,0,0,1-.593.755s1.715,1.766,1.678,2.437-2.284,3.943-5.195,3.428-4.257-3.4-4.3-6.186S352.162,102.529,355.6,105.757Z" transform="translate(-300.127 -74.124)" fill="#35393a"/>
          <path id="Caminho_175" data-name="Caminho 175" d="M332.052,75.868c-2.245.293-3.941,1.091-4.137,1.591-.628,1.595-.144,3.154-.56,3.471a5.366,5.366,0,0,1-1.415.659,13.093,13.093,0,0,0-2.642,1.346,2.5,2.5,0,0,0-.652,4.056c.539.865,1.912,2.867-.38,4.7a2.7,2.7,0,0,0,3.894-1.89c.162-1.152-1.461-3.356-1.489-3.615-.147-1.327,3.254-2.622,4.89-3.278s2.858-1.825,4.6-2.092a6.349,6.349,0,0,1,2.254-.068,3.317,3.317,0,0,1,2.538,2.732c-.107-.037.218-.034.331-.033.446,0,.894-.255,1.319-.121a1.018,1.018,0,0,1,.633.812,2.822,2.822,0,0,1-.078,1.072,33.029,33.029,0,0,1-1.985,6.279c-.028.065-.074.141-.144.132s-.03-.153.018-.1a3.11,3.11,0,0,0,3.937.4,6.484,6.484,0,0,0,2.243-3.62,10.516,10.516,0,0,0,.481-2.763,9.22,9.22,0,0,0-4.7-7.793A13.814,13.814,0,0,0,332.052,75.868Z" transform="translate(-287.51 -60.287)" fill="#35393a"/>
          <g id="Grupo_74" data-name="Grupo 74" transform="translate(39.207 17.859)">
            <g id="Grupo_73" data-name="Grupo 73">
              <path id="Caminho_176" data-name="Caminho 176" d="M342.763,103.567,340.986,114.6c2.706,3.4,6.749-1.069,6.749-1.069l1.335-11.776Z" transform="translate(-335.984 -90.803)" fill="#ffc5a7"/>
              <path id="Caminho_177" data-name="Caminho 177" d="M346.746,110.443s-.355,6-4.922,5.717l.915-5.477Z" transform="translate(-336.392 -95.028)" fill="#eaa797"/>
              <g id="Grupo_72" data-name="Grupo 72" transform="translate(12.106 10.902)">
                <g id="Grupo_71" data-name="Grupo 71">
                  <g id="Grupo_70" data-name="Grupo 70">
                    <path id="Caminho_178" data-name="Caminho 178" d="M354.96,102.769a1.619,1.619,0,0,0,.949,2.183,1.854,1.854,0,0,0,2.305-1.013,1.619,1.619,0,0,0-.949-2.183A1.854,1.854,0,0,0,354.96,102.769Z" transform="translate(-354.824 -101.652)" fill="#ffc5a7"/>
                  </g>
                </g>
              </g>
              <path id="Caminho_179" data-name="Caminho 179" d="M339.908,83.272a5.009,5.009,0,0,0-6.4,2.655c-2.017,4.639-4.105,11.6.518,13.381C342.36,102.516,347.75,86.3,347.75,86.3Z" transform="translate(-331.244 -81.642)" fill="#ffc5a7"/>
              <path id="Caminho_180" data-name="Caminho 180" d="M338.035,100.231c-.463-.138-1.145-.011-1.282.531-.1.382.371,1.079.811.887a.1.1,0,0,0,.059-.1c-.033-.275-.392-.344-.439-.611-.075-.424.566-.394.818-.45C338.116,100.46,338.173,100.273,338.035,100.231Z" transform="translate(-333.918 -90.034)" fill="#eaa797"/>
              <path id="Caminho_181" data-name="Caminho 181" d="M346.667,80.618a13.893,13.893,0,0,0-.066,1.748,3.431,3.431,0,0,0,.137,1A3.663,3.663,0,0,0,349,85.283a5.3,5.3,0,0,1,2.538,1.628,3.66,3.66,0,0,1,.47,2.25,5.816,5.816,0,0,0-.016,1.235,1.32,1.32,0,0,0,.644,1,6.58,6.58,0,0,0,2.737-3.652,5.568,5.568,0,0,0,.389-3.284,4.855,4.855,0,0,0-1.758-2.413,7.572,7.572,0,0,0-2.1-1.229C350.194,80.187,348.482,80.449,346.667,80.618Z" transform="translate(-338.714 -80.418)" fill="#35393a"/>
              <path id="Caminho_182" data-name="Caminho 182" d="M338.225,89.473c-.129.307-1.511.01-2.267-.313s-.912-.682-.782-.988,1.159-.16,1.915.163S338.355,89.167,338.225,89.473Z" transform="translate(-333.137 -84.109)" fill="#35393a"/>
              <path id="Caminho_183" data-name="Caminho 183" d="M347,93.169c-.13.306,1.042,1.1,1.8,1.422s1.122.186,1.251-.121-.69-.949-1.446-1.271S347.127,92.864,347,93.169Z" transform="translate(-338.905 -86.515)" fill="#35393a"/>
              <path id="Caminho_184" data-name="Caminho 184" d="M334.984,104.878l4.824,1.773s-2.175,2.645-3.873,1.6S334.984,104.878,334.984,104.878Z" transform="translate(-332.984 -92.32)" fill="#fff"/>
            </g>
          </g>
          <path id="Caminho_185" data-name="Caminho 185" d="M344.431,96.813a1.186,1.186,0,0,1,1.028.257,1.385,1.385,0,0,1,.447.888c0,.064,0,.4-.139.372-.381-.089-.4-.7-.7-.912-.408-.291-.9.134-1.259-.105a.053.053,0,0,1-.024-.049C343.821,96.985,344.184,96.858,344.431,96.813Z" transform="translate(-298.138 -70.525)" fill="#2f3336"/>
          <path id="Caminho_186" data-name="Caminho 186" d="M335.492,92.961a1.36,1.36,0,0,1,1.019.971c.086.226-.2.444-.372.238-.216-.265-.341-.639-.693-.755-.309-.1-.537.074-.826.059a.087.087,0,0,1-.081-.094C334.614,93,335.169,92.908,335.492,92.961Z" transform="translate(-293.64 -68.655)" fill="#2f3336"/>
          <path id="Caminho_187" data-name="Caminho 187" d="M356.092,104.786a1.441,1.441,0,0,1,.9-.436c.287-.026.711-.006.793.331a.191.191,0,0,1-.067.186c-.2.14-.4.039-.619.055a.937.937,0,0,0-.4.126,2.232,2.232,0,0,1,.265.36c.159.28-.251.5-.452.289-.158-.166-.3-.344-.463-.5A.3.3,0,0,1,356.092,104.786Z" transform="translate(-304.078 -74.2)" fill="#eaa797"/>
          <path id="Caminho_188" data-name="Caminho 188" d="M357.116,87.422c.381,1.528,1.5,2.87,2.19,2.015a5.253,5.253,0,0,0,.865-3.126,39.557,39.557,0,0,0-.036-4.252,9.11,9.11,0,0,0-.576-3.016,5.245,5.245,0,0,0-4.358-3.11,3.668,3.668,0,0,1-1.28-.19,3.8,3.8,0,0,1-1.12-1.068c-1.3-1.461-3.958-1.818-5.9-1.646s-4.553-.808-5.261,1.484c5.284.725,10.88,5.949,11.545,8.386a13.8,13.8,0,0,1-.615,7.665,1.537,1.537,0,0,0,1.343-.7A4.147,4.147,0,0,0,357.116,87.422Z" transform="translate(-297.094 -58.931)" fill="#ff924f"/>
          <path id="Caminho_189" data-name="Caminho 189" d="M355.885,100.473a2.415,2.415,0,0,1-.895.748c-.181.1-.37.179-.541.292a1.849,1.849,0,0,0-.685,2.137c-.4-.3-.838-.678-.855-1.181a1.1,1.1,0,0,1,.109-.489,3.665,3.665,0,0,1,1.424-1.33,2.231,2.231,0,0,0,1.142-1.527c.009-.126.517.322.548.474A1.288,1.288,0,0,1,355.885,100.473Z" transform="translate(-302.579 -71.649)" fill="#35393a"/>
          <path id="Caminho_190" data-name="Caminho 190" d="M360.886,83.951a8.564,8.564,0,0,0-2.615-4.793,13.177,13.177,0,0,0-2.144-1.6,10.713,10.713,0,0,0-2.917-1.444.09.09,0,0,0-.075.162,20.4,20.4,0,0,0,2.62,1.514,13.047,13.047,0,0,1,2.339,1.751,7.982,7.982,0,0,1,1.617,2.152,15.8,15.8,0,0,0,1.032,2.333C360.8,84.1,360.9,84.025,360.886,83.951Z" transform="translate(-302.671 -60.463)" fill="#ee8043"/>
          <path id="Caminho_191" data-name="Caminho 191" d="M367.276,98.25a.1.1,0,0,0-.192-.032c-.187.548-.247,1.148-.381,1.713s-.338,1.128-.457,1.7c-.02.095.115.178.168.078A7.5,7.5,0,0,0,367.276,98.25Z" transform="translate(-309.068 -71.187)" fill="#ee8043"/>
          <path id="Caminho_192" data-name="Caminho 192" d="M372.527,95.765a.065.065,0,0,0-.106-.033,2.794,2.794,0,0,0-.469.893c-.046.092-.1.179-.151.269a11.067,11.067,0,0,0,.187-2.945c-.017-.321-.525-.336-.5-.015a16.64,16.64,0,0,1-.28,3.725c-.025.166.164.222.282.152a.107.107,0,0,0,.051-.03,4.274,4.274,0,0,0,.745-1.036A1.419,1.419,0,0,0,372.527,95.765Z" transform="translate(-311.481 -69.022)" fill="#ee8043"/>
          <path id="Caminho_193" data-name="Caminho 193" d="M355.584,122.211s3.817-.244,6.363,1.634c2.12,1.564,14.7,33.747,17.8,42.688l-2.25,2.725s-16.086-35.368-18.029-35.737c-1.966-.373-2.842,4.735-2.842,4.735S347.362,136.918,355.584,122.211Z" transform="translate(-302.225 -82.89)" fill="#ffc5a7"/>
          <g id="Grupo_75" data-name="Grupo 75" transform="translate(28.311 191.885)">
            <path id="Caminho_194" data-name="Caminho 194" d="M315.279,431.738a42.585,42.585,0,0,0,.072-4.361c-.122-1.247-1.125-7.631-1.125-7.631l2.562-.359s.667,5.224.724,5.711.7.908.989,1.9C318.5,427,318,433.15,315.279,431.738Z" transform="translate(-312.068 -419.387)" fill="#ffc5a7"/>
            <path id="Caminho_195" data-name="Caminho 195" d="M313.233,438.95s1.41-.074,1.927-.8a18.11,18.11,0,0,0,1.3-3.939l1.642.912-2.631,8.56-5.445,2.311,2.6-3.392Z" transform="translate(-310.022 -426.598)" fill="#44484b"/>
          </g>
          <g id="Grupo_76" data-name="Grupo 76" transform="translate(82.107 115.298)">
            <path id="Caminho_196" data-name="Caminho 196" d="M425.489,278.106a42.506,42.506,0,0,0-3.49,2.616c-.91.86-5.34,5.566-5.34,5.566l-1.854-1.8s3.719-3.729,4.068-4.073.286-1.113.893-1.945C419.766,278.466,424.934,275.087,425.489,278.106Z" transform="translate(-414.805 -273.441)" fill="#ffc5a7"/>
            <path id="Caminho_197" data-name="Caminho 197" d="M429.92,274.873S429,273.8,428.1,273.844a18.072,18.072,0,0,0-3.907,1.39l-.285-1.856,8.376-3.169,5.164,2.886-4.276.022Z" transform="translate(-419.236 -270.209)" fill="#44484b"/>
          </g>
          <path id="Caminho_198" data-name="Caminho 198" d="M259.129,53.13s3.427-2.041,2.662-2.424-2.839,1.02-2.839,1.02a4.278,4.278,0,0,0,.9-2.437c.047-1-.324-3.626-.9-3.626s-.127,2.957-.127,2.957-.66-3.343-1.468-2.957c-.216.1.281,3.226.281,3.226s-.877-3.141-1.387-2.886.021,3.042.021,3.042-.532-2.17-1.042-2.17.106,2.468.106,2.468-.2,1.455-.445,2.544c-.191.866,1.573,2.726,1.573,2.726Z" transform="translate(-254.877 -45.632)" fill="#ffc5a7"/>
          <path id="Caminho_199" data-name="Caminho 199" d="M289.484,96.094C285.04,94.921,271.722,92.4,269,90.6c-5.6-3.707-11.037-28.885-11.037-28.885l2.666-1.483S270.79,85.676,272.38,86.5c1.049.543,20.978,4.974,25.971,5.14h0s-.766,9.221-4.172,12.6C294.178,104.236,291.3,96.574,289.484,96.094Z" transform="translate(-256.381 -52.739)" fill="#ffc5a7"/>
          <path id="Caminho_200" data-name="Caminho 200" d="M287.8,112.368c-.5-.337-1.013-.648-1.521-.968a4.126,4.126,0,0,0-1.425-.737c-.078-.013-.167.067-.113.147a3.9,3.9,0,0,0,1.2.948c.535.347,1.065.706,1.611,1.036C287.825,112.96,288.06,112.544,287.8,112.368Z" transform="translate(-269.401 -77.275)" fill="#eaa797"/>
          <path id="Caminho_201" data-name="Caminho 201" d="M327.584,169.4s-2.143,12.353-2.995,15.88c0,0,12.294,4.616,18.126,4.193,0,0-1.452-12.22-2.31-19.152Z" transform="translate(-288.799 -105.857)" fill="#ffc5a7"/>
          <path id="Caminho_202" data-name="Caminho 202" d="M334.969,121.4s7.935.26,11.389.419c0,0-5,15.31-11.013,13.864C330.8,134.593,334.969,121.4,334.969,121.4Z" transform="translate(-292.999 -82.503)" fill="#ffc5a7"/>
          <path id="Caminho_203" data-name="Caminho 203" d="M342.784,162.855a43.243,43.243,0,0,0-9.512-3.77c-5.161-1.173-10.763-2.045-10.763-2.045l3.106-14.448s-5.262-5.433-3.193-8.756a92.772,92.772,0,0,0,5.97-12.769l2.165.1s-2.618,10.3,1.142,10.63,8.495-10.338,8.495-10.338l1.759.084c-1.629,9.426-2.532,14.074.4,15.672C342.348,137.217,343.223,151.342,342.784,162.855Z" transform="translate(-287.51 -82.338)" fill="#ff924f"/>
          <path id="Caminho_204" data-name="Caminho 204" d="M342.715,204.523a22.854,22.854,0,0,1,3.829,8.488c.786,4.466-5.887,49.136-5.887,49.136a25.39,25.39,0,0,1,2.494-.889,21.894,21.894,0,0,1,4.337-.276l24.894-16.022,1.946,3.013s-26.841,23.5-35.675,26.659-12.969-57.886-14.064-74.3Z" transform="translate(-288.799 -120.908)" fill="#599bab"/>
          <path id="Caminho_205" data-name="Caminho 205" d="M307.571,200.33s-16.66,49.252-17.876,55.332,12.161,61.548,12.161,61.548l3.785-.464L300.153,262.3s.53-4.937-1.559-5.667c0,0,14.937-22.352,21.273-33.7C327.055,210.056,307.571,200.33,307.571,200.33Z" transform="translate(-271.781 -120.908)" fill="#599bab"/>
          <path id="Caminho_206" data-name="Caminho 206" d="M326.947,237.132s-5.532,11.317-5.037,15.148,4.644,3.521,4.644,3.521Z" transform="translate(-287.48 -138.816)" fill="#212426" opacity="0.1"/>
          <path id="Caminho_207" data-name="Caminho 207" d="M319.648,222.748a7.876,7.876,0,0,0-.568-2.693,13.378,13.378,0,0,1-1.362-3.241c-.011-.07-.126-.067-.139,0a3.085,3.085,0,0,0,.341,2.005,10.228,10.228,0,0,1,1.207,3.724c.2,2.542-.036,5.165-.084,7.712q-.095,5.023-.185,10.047a.208.208,0,0,0-.317-.027,77.3,77.3,0,0,0-7.945,11.308c-2.1,3.5-4.633,7.567-4.744,11.766,0,.069.11.087.124.016.846-4.408,2.893-8.132,5.22-11.923s5.013-7.3,7.657-10.881q-.049,2.665-.1,5.329a.245.245,0,0,0,.49,0q.149-7.817.306-15.635C319.6,227.767,319.791,225.234,319.648,222.748Z" transform="translate(-279.682 -128.904)" fill="#458493"/>
          <path id="Caminho_208" data-name="Caminho 208" d="M344.229,216.713c-1.431-1.241-2.807-2.173-3.716-3.911a9.37,9.37,0,0,1-.926-2.71c-.127-.726-.025-1.479-.109-2.2a15.222,15.222,0,0,0,2.725-.015c.1-.012.149-.178.027-.2-1.467-.248-3-.2-4.486-.329q-2.53-.212-5.044-.569c-3.181-.455-6.276-1.193-9.42-1.832a.188.188,0,0,0-.1.361,59.126,59.126,0,0,0,9.622,1.93q2.241.3,4.5.475c.6.046,1.217.106,1.837.153-.494,1.512.257,3.736.9,5.022.8,1.613,2.274,3.51,4.1,3.984C344.224,216.9,344.307,216.78,344.229,216.713Z" transform="translate(-288.049 -123.155)" fill="#458493"/>
          <g id="Grupo_77" data-name="Grupo 77" transform="translate(74.953 81.792)">
            <path id="Caminho_209" data-name="Caminho 209" d="M414.576,209.89a11.476,11.476,0,0,1,.875-1.711,1.913,1.913,0,0,1,.52-.535,2.031,2.031,0,0,1,.684-.217l2.533-.481a.359.359,0,0,1,0,.492c-.384.378-2.615.756-3.066,1.042C415.911,208.615,414.95,209.553,414.576,209.89Z" transform="translate(-407.54 -205.92)" fill="#eaa797"/>
            <path id="Caminho_210" data-name="Caminho 210" d="M414.136,211.622a11.468,11.468,0,0,1,1.078-1.591,1.915,1.915,0,0,1,.581-.468,2.037,2.037,0,0,1,.705-.131l2.573-.168a.36.36,0,0,1-.059.489c-.428.328-2.688.43-3.17.659C415.618,210.519,414.548,211.332,414.136,211.622Z" transform="translate(-407.326 -207.047)" fill="#eaa797"/>
            <path id="Caminho_211" data-name="Caminho 211" d="M401.187,209.522c.973,1.884,3.953.879,4.923.865.788-.012,1.544-.339,2.331-.368a6.638,6.638,0,0,1,1.85.3.742.742,0,0,0,.782-.184c.249-.3-1.708-1.426-2.883-1.314.61-1.229.908-2.224,2.281-2.592s1.88-.695,1.92-1.157c-.464-.353-2.084.109-3.008.6s-.726.487-1.653.967a8.643,8.643,0,0,1-4.295.163C401.43,206.8,400.275,207.807,401.187,209.522Z" transform="translate(-400.871 -204.947)" fill="#ffc5a7"/>
          </g>
          <path id="Caminho_212" data-name="Caminho 212" d="M344.285,162.139a16.949,16.949,0,0,1-4-.7,17.609,17.609,0,0,0-3.354-1.033,7.085,7.085,0,0,0-2.575.266c-.556.14-1.106.311-1.668.427a18.062,18.062,0,0,1-2.141.147c-.111.01-.179.168-.062.228a3.718,3.718,0,0,0,2.514.041c1.392-.306,2.736-.852,4.188-.59,1.163.209,2.234.767,3.369,1.079a9.5,9.5,0,0,0,3.726.284A.072.072,0,0,0,344.285,162.139Z" transform="translate(-291.639 -101.463)" fill="#ee8043"/>
          <path id="Caminho_213" data-name="Caminho 213" d="M343.9,192.307a19.552,19.552,0,0,0-4-1.585c-1.552-.52-3.126-.969-4.721-1.336a39.2,39.2,0,0,0-9.125-1.215.119.119,0,0,0,0,.238,85.846,85.846,0,0,1,9.237,1.373c1.385.324,2.759.7,4.114,1.132,1.478.47,2.92,1.192,4.417,1.569A.1.1,0,0,0,343.9,192.307Z" transform="translate(-289.459 -114.99)" fill="#ee8043"/>
          <path id="Caminho_214" data-name="Caminho 214" d="M341.022,166.319a10.37,10.37,0,0,0-2.295,2.267q-1.321,1.4-2.688,2.758c-1.771,1.758-3.652,3.4-5.418,5.162-.085.085.031.25.133.173a59.357,59.357,0,0,0,5.591-5.029q1.372-1.35,2.7-2.745a9,9,0,0,0,2.087-2.5C341.16,166.339,341.075,166.292,341.022,166.319Z" transform="translate(-291.72 -104.355)" fill="#ee8043"/>
          <path id="Caminho_215" data-name="Caminho 215" d="M346.176,177.877a21.821,21.821,0,0,0-2.149,3.763.164.164,0,0,0,.283.165,21.852,21.852,0,0,0,2.092-3.8C346.446,177.885,346.26,177.771,346.176,177.877Z" transform="translate(-298.247 -109.962)" fill="#ee8043"/>
          <path id="Caminho_216" data-name="Caminho 216" d="M345.77,126.684c-1.888,2.857-3.25,7.135-6.547,8.56-1.955.846-4.266.065-4.569-2.312-.242-1.9.312-3.929.584-5.8.012-.085-.116-.1-.139-.024a21.309,21.309,0,0,0-.673,3.652,7.447,7.447,0,0,0,.061,3A3.35,3.35,0,0,0,338.052,136a6.526,6.526,0,0,0,4.338-2.91,25.08,25.08,0,0,0,3.553-6.318A.1.1,0,0,0,345.77,126.684Z" transform="translate(-293.526 -85.05)" fill="#ee8043"/>
          <path id="Caminho_217" data-name="Caminho 217" d="M320.632,241.251a53.117,53.117,0,0,0-6.356-3.242c-.264-.1-.608.184-.341.378a35.723,35.723,0,0,0,4.967,2.784q-2.525-.053-5.05-.127a.393.393,0,0,0-.39.583c1.063,1.532,3.2,3.322,5.463,3.124.246-.022.365-.292.131-.414-1.622-.847-3.116-1.3-4.3-2.51q2.839.022,5.677.069A.342.342,0,0,0,320.632,241.251Z" transform="translate(-283.355 -139.233)" fill="#67b4c7"/>
          <path id="Caminho_218" data-name="Caminho 218" d="M349.866,245.589a53.723,53.723,0,0,0-6.7-1.372c-.271-.024-.537.3-.243.407a35.764,35.764,0,0,0,5.287,1.291q-2.4.528-4.811,1.04c-.329.069-.462.42-.248.6,1.328,1.09,3.724,2.161,5.829,1.472.229-.074.285-.337.037-.39-1.714-.367-3.224-.423-4.6-1.2q2.694-.628,5.393-1.233C350.2,246.109,350.217,245.667,349.866,245.589Z" transform="translate(-297.658 -142.263)" fill="#67b4c7"/>
          <path id="Caminho_219" data-name="Caminho 219" d="M304.729,306.572a20.089,20.089,0,0,0-1.7,2.53c-.661.869-1.583,1.568-2.171,2.479-.081.125.072.234.185.185a7.335,7.335,0,0,0,2.466-2.34,6.35,6.35,0,0,0,1.531-2.724C305.06,306.535,304.833,306.474,304.729,306.572Z" transform="translate(-277.24 -172.583)" fill="#458493"/>
          <path id="Caminho_220" data-name="Caminho 220" d="M355.143,314.216a.078.078,0,0,0-.149,0,41.464,41.464,0,0,1-1.355,7.378c-.132.387.5.566.615.169A17.618,17.618,0,0,0,355.143,314.216Z" transform="translate(-302.926 -176.299)" fill="#458493"/>
          <path id="Caminho_221" data-name="Caminho 221" d="M415,293.26c-.4-.506-.806-1.008-1.212-1.509a6.614,6.614,0,0,0-1.17-1.289c-.107-.076-.285.053-.233.179a6.436,6.436,0,0,0,.956,1.4c.419.541.838,1.082,1.263,1.618C414.83,293.936,415.223,293.539,415,293.26Z" transform="translate(-331.517 -164.755)" fill="#458493"/>
          <path id="Caminho_222" data-name="Caminho 222" d="M317.286,422.171c-.879.073-1.711.354-2.607.377a7.432,7.432,0,0,0-2.3-.018.047.047,0,0,0-.021.078,3.3,3.3,0,0,0,2.316.458,5.821,5.821,0,0,0,2.7-.559C317.524,422.422,317.47,422.156,317.286,422.171Z" transform="translate(-282.843 -228.856)" fill="#458493"/>
          <path id="Caminho_223" data-name="Caminho 223" d="M290.811,309.994c.44-1.009,4.176-.131,4.165.328s-1.961,1.347-2.719,1.294S290.637,310.392,290.811,309.994Z" transform="translate(-272.351 -174.044)" fill="#cff0ff" opacity="0.1"/>
          <path id="Caminho_224" data-name="Caminho 224" d="M349.8,339.9c-.914-.614.618-4.132,1.067-4.039s.975,2.17.788,2.906S350.163,340.141,349.8,339.9Z" transform="translate(-300.929 -186.856)" fill="#cff0ff" opacity="0.1"/>
          <path id="Caminho_225" data-name="Caminho 225" d="M359.33,231.058c-.675,3.479-1.056,7.036-1.562,10.543-.526,3.652-1.032,7.307-1.564,10.958q-.782,5.363-1.564,10.726c-.486,3.331-1.113,6.739-.211,10.032a.225.225,0,0,0,.433-.121c-.923-3.4-.217-6.944.275-10.377l1.5-10.493c.5-3.5,1.03-6.994,1.537-10.492.516-3.563,1.17-7.143,1.512-10.726A.183.183,0,0,0,359.33,231.058Z" transform="translate(-303.097 -135.795)" fill="#458493"/>
          <path id="Caminho_226" data-name="Caminho 226" d="M309.443,341.06c-.371-4.291-.678-8.588-1.094-12.875a70.351,70.351,0,0,0-1.978-12.784c-.018-.063-.129-.054-.121.016.5,4.413,1.286,8.785,1.726,13.21.433,4.36.731,8.733,1.115,13.1a258.362,258.362,0,0,0,3.56,26.308c.038.2.331.111.3-.082C311.477,359.024,310.222,350.079,309.443,341.06Z" transform="translate(-279.875 -176.882)" fill="#458493"/>
        </g>
        <path id="Caminho_227" data-name="Caminho 227" d="M127.12,156.429a.313.313,0,0,0-.6.166c1.353,5.166,1.192,10.506.961,15.8-.236,5.4-.738,10.832-.754,16.24,0,.137.2.131.208,0,.569-5.54.661-11.158.988-16.717C128.225,166.732,128.35,161.508,127.12,156.429Z" transform="translate(-40.576 -65.255)" fill="#2d84a2"/>
        <path id="Caminho_228" data-name="Caminho 228" d="M255.012,24.337c-.038-.686-.273-2.74-1.5-2.118-1.063.538-.8,2.025-.784,3.023a6.26,6.26,0,0,0,.907,3.591.39.39,0,0,0,.665,0A7.5,7.5,0,0,0,255.012,24.337Z" transform="translate(-101.976)" fill="#d9d9d7"/>
        <path id="Caminho_229" data-name="Caminho 229" d="M272.382,40.24c.534-.434,2.059-1.829.835-2.458-1.06-.545-2.111.541-2.909,1.139a6.26,6.26,0,0,0-2.374,2.842.39.39,0,0,0,.39.539A7.5,7.5,0,0,0,272.382,40.24Z" transform="translate(-109.382 -7.557)" fill="#d9d9d7"/>
        <path id="Caminho_230" data-name="Caminho 230" d="M225.71,31.968c-.476-.5-1.976-1.911-2.316-.784-.294.975.848,1.952,1.517,2.693a7.4,7.4,0,0,0,2.925,2.209.29.29,0,0,0,.407-.357A9.024,9.024,0,0,0,225.71,31.968Z" transform="translate(-87.699 -4.212)" fill="#d9d9d7"/>
        <path id="Caminho_231" data-name="Caminho 231" d="M266.166,32.823a5.506,5.506,0,0,0-1.484,1.4.458.458,0,0,0,.511.665,5.518,5.518,0,0,0,1.739-1.075A.63.63,0,1,0,266.166,32.823Z" transform="translate(-107.785 -5.133)" fill="#d9d9d7"/>
        <path id="Caminho_232" data-name="Caminho 232" d="M242.978,29.1a5.518,5.518,0,0,0,.761,1.9.458.458,0,0,0,.806-.232,5.515,5.515,0,0,0-.36-2.013A.63.63,0,1,0,242.978,29.1Z" transform="translate(-97.233 -2.987)" fill="#d9d9d7"/>
      </g>
      <g id="Elipse_12" data-name="Elipse 12" transform="translate(56 165)" fill="none" stroke="#5d2975" stroke-width="3">
        <circle cx="11" cy="11" r="11" stroke="none"/>
        <circle cx="11" cy="11" r="9.5" fill="none"/>
      </g>
      <g id="Elipse_13" data-name="Elipse 13" transform="translate(287 245)" fill="none" stroke="#5d2975" stroke-width="3" opacity="0.29">
        <circle cx="11" cy="11" r="11" stroke="none"/>
        <circle cx="11" cy="11" r="9.5" fill="none"/>
      </g>
      <g id="Elipse_14" data-name="Elipse 14" transform="translate(54 329)" fill="none" stroke="#5d2975" stroke-width="3" opacity="0.29">
        <circle cx="11" cy="11" r="11" stroke="none"/>
        <circle cx="11" cy="11" r="9.5" fill="none"/>
      </g>
      <rect id="Retângulo_24" data-name="Retângulo 24" width="29" height="6" rx="3" transform="translate(27 365)" fill="#afbfcf"/>
      <rect id="Retângulo_25" data-name="Retângulo 25" width="29" height="6" rx="3" transform="translate(284.5 186.5) rotate(-90)" fill="#afbfcf" opacity="0.43"/>
    </g>
  </g>
</svg>
