<svg xmlns="http://www.w3.org/2000/svg" xmlns:xlink="http://www.w3.org/1999/xlink" width="237" height="226.66" viewBox="0 0 237 226.66">
  <defs>
    <clipPath id="clip-path">
      <rect width="237" height="226.66" fill="none"/>
    </clipPath>
  </defs>
  <g id="Repetição_de_grade_2" data-name="Repetição de grade 2" clip-path="url(#clip-path)">
    <g id="Grupo_48" data-name="Grupo 48" transform="translate(-31.585 -55.753)">
      <g id="Floor" transform="translate(31.585 158.601)">
        <path id="Floor-2" data-name="Floor" d="M66.293,352.7c46.277,24.176,121.308,24.176,167.584,0s46.277-63.372,0-87.547-121.307-24.176-167.585,0S20.015,328.526,66.293,352.7Z" transform="translate(-31.585 -247.023)" fill="#f5f5f5"/>
      </g>
      <g id="Plants" transform="translate(78.779 214.732)">
        <g id="Plants-2" data-name="Plants" transform="translate(0 0)">
          <path id="Caminho_56" data-name="Caminho 56" d="M144.158,383.871c-.343.185-6.674,1.983-9.02-1.115s1.546-7.927-.654-9.707-8.366.01-9.85-3.739,2.915-5.356.443-9.129c-1.557-2.377-5.918-3.691-5.718-5.9.293-3.236,6.247-4.108,11.451-.641s7.626.627,9.278.394,5.211.28,5.1,6.077S144.158,383.871,144.158,383.871Z" transform="translate(-119.353 -351.411)" fill="#455a64"/>
          <g id="Grupo_28" data-name="Grupo 28" transform="translate(3.386 1.377)">
            <path id="Caminho_57" data-name="Caminho 57" d="M147.487,376.81a.345.345,0,0,1-.34-.289c-1.812-11-14.6-19.953-21.248-21.875a.345.345,0,1,1,.191-.662c6.8,1.964,19.878,11.138,21.738,22.425a.345.345,0,0,1-.284.4A.4.4,0,0,1,147.487,376.81Z" transform="translate(-125.649 -353.971)" fill="#fff"/>
          </g>
          <g id="Grupo_29" data-name="Grupo 29" transform="translate(9.802 12.356)">
            <path id="Caminho_58" data-name="Caminho 58" d="M137.927,377.043a.345.345,0,0,1-.177-.642c.207-.123,5.127-3,9.975-1.653a.345.345,0,0,1-.185.665c-4.56-1.266-9.389,1.554-9.437,1.582A.346.346,0,0,1,137.927,377.043Z" transform="translate(-137.581 -374.39)" fill="#fff"/>
          </g>
        </g>
      </g>
      <g id="Pen" transform="translate(141.109 199.563)">
        <g id="Pen-2" data-name="Pen" transform="translate(0 0)">
          <g id="Grupo_30" data-name="Grupo 30" transform="translate(6.734)">
            <path id="Caminho_59" data-name="Caminho 59" d="M365.841,325.352a6.658,6.658,0,0,0,3.016,5.219,2.4,2.4,0,0,0,1.732.367,1.337,1.337,0,0,1-.326.256l.723-.412a.288.288,0,0,1,.041-.026c.037-.022.07-.048.108-.074a.943.943,0,0,0,.133-.115c.026-.026.052-.052.078-.082a.027.027,0,0,0,.015-.015,1.006,1.006,0,0,0,.07-.089,1.8,1.8,0,0,0,.248-.448c.019-.048.037-.1.052-.145a.308.308,0,0,0,.022-.074.876.876,0,0,0,.033-.134,3.116,3.116,0,0,0,.082-.749,6.666,6.666,0,0,0-3.012-5.219,2.721,2.721,0,0,0-1.35-.412H367.5a1.487,1.487,0,0,0-.186.011l-.174.03a.938.938,0,0,0-.1.03l-.063.019a.905.905,0,0,0-.122.052l-.026.011c-.037.019-.078.037-.115.06l-.631.36a1.2,1.2,0,0,1,.326-.115A2.393,2.393,0,0,0,365.841,325.352Zm4.965,5.517c.018-.008.034-.017.052-.025C370.841,330.852,370.824,330.862,370.806,330.869Z" transform="translate(-302.364 -323.201)" fill="#27debf"/>
            <path id="Caminho_60" data-name="Caminho 60" d="M249.432,360.4l4.251,7.389.72-.415,62.046-35.821a1.335,1.335,0,0,0,.326-.256,2.409,2.409,0,0,0,.557-1.695,6.658,6.658,0,0,0-3.016-5.219,2.7,2.7,0,0,0-1.346-.412,1.612,1.612,0,0,0-.382.045,1.2,1.2,0,0,0-.326.115c-.019.008-.037.018-.052.026l-.018.011s0,0-.008,0Z" transform="translate(-248.55 -323.555)" fill="#ebebeb"/>
            <path id="Caminho_61" data-name="Caminho 61" d="M250.805,391.754c-1.664-.961-3.013-.182-3.013,1.74a6.661,6.661,0,0,0,3.013,5.22c1.664.961,3.013.182,3.013-1.74A6.661,6.661,0,0,0,250.805,391.754Z" transform="translate(-247.792 -354.702)" fill="#27debf"/>
          </g>
          <path id="Caminho_62" data-name="Caminho 62" d="M241.118,396.233a.878.878,0,0,1,.074-.085l3.847-4.229s0-.008.007-.011l.03-.032c.023-.027.046-.052.07-.076l.041-.044,0,0a1.942,1.942,0,0,1,2.408,0,6.661,6.661,0,0,1,3.013,5.22,1.961,1.961,0,0,1-1.163,2.071l0,0-.046.01a1.515,1.515,0,0,1-.218.046l-.047.01s-.011,0-.014,0l-5.575,1.217a1.368,1.368,0,0,1-.972-.211,3.8,3.8,0,0,1-1.724-2.982A1.421,1.421,0,0,1,241.118,396.233Z" transform="translate(-237.849 -354.704)" fill="#e0e0e0"/>
          <g id="Grupo_31" data-name="Grupo 31" transform="translate(5.227 13.972)">
            <path id="Caminho_63" data-name="Caminho 63" d="M292.291,349.3a.021.021,0,0,1,.019-.011l.1-.059a.78.78,0,0,1,.7.1,2.38,2.38,0,0,1,1.072,1.858.79.79,0,0,1-.249.645,0,0,0,0,1,0,0l-.13.074L248,378.353l-3.012-1.739Z" transform="translate(-244.989 -349.186)" fill="#455a64"/>
            <path id="Caminho_64" data-name="Caminho 64" d="M252.254,396.62,248,399.075l-3.012-1.74,5.758-3.325A7.246,7.246,0,0,1,252.254,396.62Z" transform="translate(-244.989 -369.908)" fill="#37474f"/>
          </g>
          <g id="Grupo_34" data-name="Grupo 34" transform="translate(1.559 39.292)">
            <g id="Grupo_32" data-name="Grupo 32" transform="translate(0.001)">
              <path id="Caminho_65" data-name="Caminho 65" d="M238.363,400.522h0l0,0,3.489-3.836a.962.962,0,0,1,.094-.1,1.368,1.368,0,0,1,1.719-.013,4.707,4.707,0,0,1,2.13,3.689,1.4,1.4,0,0,1-.811,1.466l-.033.01-.14.03-5.115,1.115,0,0a.777.777,0,0,1-.55-.119,2.142,2.142,0,0,1-.969-1.679A.751.751,0,0,1,238.363,400.522Z" transform="translate(-238.169 -396.274)" fill="#5d2975"/>
              <path id="Caminho_66" data-name="Caminho 66" d="M238.363,400.522h0l0,0,3.489-3.836a.962.962,0,0,1,.094-.1,1.368,1.368,0,0,1,1.719-.013,4.707,4.707,0,0,1,2.13,3.689,1.4,1.4,0,0,1-.811,1.466l-.033.01-.14.03-5.115,1.115,0,0a.777.777,0,0,1-.55-.119,2.142,2.142,0,0,1-.969-1.679A.751.751,0,0,1,238.363,400.522Z" transform="translate(-238.169 -396.274)" fill="none" opacity="0.1"/>
            </g>
            <g id="Grupo_33" data-name="Grupo 33" transform="translate(0 2.053)">
              <path id="Caminho_67" data-name="Caminho 67" d="M238.168,402.84a2.142,2.142,0,0,0,.972,1.679.765.765,0,0,0,.547.117l0,0,2.584-.564c.407-.087.674-.471.674-1.085A3.435,3.435,0,0,0,241.4,400.3a1,1,0,0,0-1.242,0l-.07.077-1.729,1.9,0,0A.751.751,0,0,0,238.168,402.84Z" transform="translate(-238.168 -400.092)" fill="#27debf"/>
              <path id="Caminho_68" data-name="Caminho 68" d="M239.138,404.048c-.536-.309-.969-.059-.969.56a2.143,2.143,0,0,0,.969,1.679c.536.309.969.059.969-.56A2.143,2.143,0,0,0,239.138,404.048Z" transform="translate(-238.168 -401.86)" opacity="0.1"/>
            </g>
          </g>
          <g id="Grupo_35" data-name="Grupo 35" transform="translate(52.647 7.427)">
            <path id="Caminho_69" data-name="Caminho 69" d="M344.466,337.087a.745.745,0,0,1,.757.075,2.345,2.345,0,0,1,1.064,1.847.739.739,0,0,1-.315.694h0L334.7,346.208a.79.79,0,0,0,.249-.645,2.38,2.38,0,0,0-1.072-1.858.78.78,0,0,0-.7-.1Z" transform="translate(-333.178 -337.014)" fill="#fafafa"/>
            <path id="Caminho_70" data-name="Caminho 70" d="M353.59,337.777a2.361,2.361,0,0,0,1.068,1.847.651.651,0,0,0,1.064-.616,2.345,2.345,0,0,0-1.064-1.847.651.651,0,0,0-1.068.616Z" transform="translate(-342.614 -337.014)" fill="#f5f5f5"/>
          </g>
          <path id="Caminho_71" data-name="Caminho 71" d="M357.389,327.518l0,0,.034-.019.047-.027,4.446-2.564c.034-.021.068-.041.1-.06l.025-.014v0a1.951,1.951,0,0,1,1.837.228,5.994,5.994,0,0,1,2.712,4.7,1.9,1.9,0,0,1-.8,1.76h0l-4.5,2.6-.024.014-.026.015,0,0a1.928,1.928,0,0,1-1.877-.209,5.994,5.994,0,0,1-2.712-4.7A1.94,1.94,0,0,1,357.389,327.518Z" transform="translate(-291.382 -323.89)" fill="#5d2975"/>
          <path id="Caminho_72" data-name="Caminho 72" d="M357.389,327.518l0,0,.034-.019.047-.027,4.446-2.564c.034-.021.068-.041.1-.06l.025-.014v0a1.951,1.951,0,0,1,1.837.228,5.994,5.994,0,0,1,2.712,4.7,1.9,1.9,0,0,1-.8,1.76h0l-4.5,2.6-.024.014-.026.015,0,0a1.928,1.928,0,0,1-1.877-.209,5.994,5.994,0,0,1-2.712-4.7A1.94,1.94,0,0,1,357.389,327.518Z" transform="translate(-291.382 -323.89)" fill="none" opacity="0.05"/>
          <path id="Caminho_73" data-name="Caminho 73" d="M359.362,329.912c-1.5-.865-2.712-.163-2.712,1.566a5.994,5.994,0,0,0,2.712,4.7c1.5.865,2.712.164,2.712-1.566A5.994,5.994,0,0,0,359.362,329.912Z" transform="translate(-291.382 -326.132)" opacity="0.36"/>
          <g id="Grupo_36" data-name="Grupo 36" transform="translate(0 44.012)">
            <path id="Caminho_74" data-name="Caminho 74" d="M235.6,406.194h0l1.84-1.1v0a.341.341,0,0,1,.36.027,1.1,1.1,0,0,1,.5.861.348.348,0,0,1-.146.322h0l-1.833,1.109h0a.707.707,0,0,1-.719-1.216Z" transform="translate(-235.269 -405.052)" fill="#455a64"/>
            <path id="Caminho_75" data-name="Caminho 75" d="M235.49,407.246l0,0a1.066,1.066,0,0,1,.1-.077s0,0,.008,0a.377.377,0,0,1,.319.056,1.1,1.1,0,0,1,.5.86.339.339,0,0,1-.141.315.161.161,0,0,1-.037.019.232.232,0,0,1-.036.017.575.575,0,0,1-.227.038.707.707,0,0,1-.7-.708A.69.69,0,0,1,235.49,407.246Z" transform="translate(-235.269 -406.02)" fill="#263238"/>
          </g>
        </g>
      </g>
      <g id="Agreement" transform="translate(102.886 55.753)">
        <g id="Contract">
          <g id="Grupo_37" data-name="Grupo 37">
            <path id="Caminho_76" data-name="Caminho 76" d="M167.133,249.632l-1.876-1.083a2.368,2.368,0,0,1-1.071-1.855V107.662a2.366,2.366,0,0,1,1.071-1.855l86.253-49.8a2.366,2.366,0,0,1,2.141,0l1.877,1.083a2.367,2.367,0,0,1,1.071,1.855V197.979a2.366,2.366,0,0,1-1.071,1.855l-86.253,49.8A2.367,2.367,0,0,1,167.133,249.632Z" transform="translate(-164.185 -55.753)" fill="#27debf"/>
            <path id="Caminho_77" data-name="Caminho 77" d="M256.853,58.773c-.074-.554-.524-.757-1.058-.445l-86.253,49.8a2.174,2.174,0,0,0-.757.8l-4.021-2.319a2.215,2.215,0,0,1,.757-.8l86.253-49.8a2.367,2.367,0,0,1,2.142,0l1.879,1.083A2.4,2.4,0,0,1,256.853,58.773Z" transform="translate(-164.453 -55.753)" fill="#fff" opacity="0.4"/>
            <path id="Caminho_78" data-name="Caminho 78" d="M169.086,293.435a.168.168,0,0,1-.065.025.668.668,0,0,1-.109.039l-.045.015c-.065.02-.129.035-.2.049h-.025a2.414,2.414,0,0,1-1.276-.1,1.709,1.709,0,0,1-.237-.109l-1.879-1.083a2.38,2.38,0,0,1-1.068-1.855V151.379a2.2,2.2,0,0,1,.311-1.058l4.021,2.319a2.165,2.165,0,0,0-.317,1.059V292.732a.889.889,0,0,0,.163.564.559.559,0,0,0,.574.183A.866.866,0,0,0,169.086,293.435Z" transform="translate(-164.185 -99.47)" opacity="0.15"/>
          </g>
          <g id="Grupo_38" data-name="Grupo 38" transform="translate(28.126 14.713)">
            <path id="Caminho_79" data-name="Caminho 79" d="M253.837,94.257c-.049-.03-.1-.059-.158-.094l-1.78-1.024a6.693,6.693,0,0,0-2.077-.737c-.307-.069-.584-.148-.826-.227a6.481,6.481,0,0,1-.787-.322l.134-.163v0l-2.013-1.162v0a2.032,2.032,0,0,0-.529-.213c-.757-.183-1.889.258-3.022.129a2.839,2.839,0,0,1-2.052-1.221,25.033,25.033,0,0,1-1.711-3.888l.529-.781c-.054-.034-.109-.064-.168-.094l-1.844-1.068a2.009,2.009,0,0,0-1.029-.277,3.94,3.94,0,0,0-1.934.628c-4.416,2.552-4.565,8.61-6.157,12.592s-3.843,5.232-5.07,6.949-1.31,2.982-4.025,6.726-2.824,4.659-2.824,5.366v5.579l2.008,1.157,36.148-20.876Zm-33.146,21.5c-.47.267-.856-.094-.856-.821a2.269,2.269,0,0,1,.856-1.81c.469-.272.851.1.851.826A2.257,2.257,0,0,1,220.691,115.755Zm15.88-15.653a1.821,1.821,0,0,1-2.784-.851c-1.4.272-2.443-1.083-2.443-3.408,0-2.74,1.444-5.791,3.225-6.82a1.815,1.815,0,0,1,2.779.851c1.4-.277,2.443,1.073,2.443,3.408C239.791,96.022,238.352,99.073,236.571,100.1Zm12-.45c-.47.272-.851-.094-.851-.816a2.248,2.248,0,0,1,.851-1.805c.475-.272.855.094.855.821A2.235,2.235,0,0,1,248.575,99.652Z" transform="translate(-216.492 -83.114)" fill="#455a64"/>
            <path id="Caminho_80" data-name="Caminho 80" d="M220.507,143.744,216.62,141.5a2.732,2.732,0,0,0-.128.866v5.579L218.5,149.1l2.007-1.159Z" transform="translate(-216.492 -110.105)" fill="#37474f" opacity="0.5"/>
            <path id="Caminho_81" data-name="Caminho 81" d="M228.293,127.133l2.009-4.64-3.192-1.873h0c-.937,1.3-1.209,2.343-2.467,4.4Z" transform="translate(-220.26 -100.452)" fill="#37474f" opacity="0.5"/>
            <path id="Caminho_82" data-name="Caminho 82" d="M242.253,104.731l.26-1.352c-.888-.372-1.478-1.571-1.478-3.319a9.238,9.238,0,0,1,2.447-6.22L240.7,92.233c-1.187,2.7-1.626,5.893-2.6,8.316-.205.515-.422.982-.646,1.413Z" transform="translate(-226.184 -87.33)" fill="#37474f" opacity="0.5"/>
            <path id="Caminho_83" data-name="Caminho 83" d="M255.563,95.252c-.049-.03-.1-.059-.158-.094a7.959,7.959,0,0,0-1.855-.6,5.8,5.8,0,0,1-2.829-1.385,4.113,4.113,0,0,0-.653-.485,1.89,1.89,0,0,0-.539-.217c-1.217-.292-3.432,1.033-5.025-1.029l-.049-.064c-1.113-1.5-1.518-4.842-3.185-5.826-.054-.034-.109-.064-.168-.094a2.983,2.983,0,0,0-2.8.44c-4.416,2.552-4.565,8.61-6.157,12.592s-3.842,5.232-5.069,6.949-1.306,2.982-4.026,6.726-2.819,4.659-2.819,5.366v5.579l36.148-20.876V96.656A1.408,1.408,0,0,0,255.563,95.252ZM224.42,117.908c-.47.272-.851-.094-.851-.821a2.267,2.267,0,0,1,.851-1.81c.475-.272.851.1.851.826A2.241,2.241,0,0,1,224.42,117.908ZM238.3,101.1a1.821,1.821,0,0,1-2.784-.851,5.148,5.148,0,0,1-.44-2.251c0-2.74,1.444-5.791,3.225-6.82a2.613,2.613,0,0,1,.776-.307c1.4-.277,2.443,1.073,2.443,3.407C241.517,97.017,240.078,100.069,238.3,101.1Zm14.011.707c-.475.272-.856-.094-.856-.816a2.237,2.237,0,0,1,.856-1.805c.47-.272.851.094.851.821A2.245,2.245,0,0,1,252.309,101.8Z" transform="translate(-218.218 -84.109)" fill="#37474f"/>
            <path id="Caminho_84" data-name="Caminho 84" d="M254.66,99.064c0,2.74-1.439,5.791-3.22,6.82a1.821,1.821,0,0,1-2.784-.851,2.515,2.515,0,0,0,.781-.307c1.78-1.029,3.22-4.08,3.22-6.82a5.138,5.138,0,0,0-.44-2.25C253.621,95.379,254.66,96.73,254.66,99.064Z" transform="translate(-231.361 -88.896)" fill="#263238"/>
            <path id="Caminho_85" data-name="Caminho 85" d="M227.294,143.631c-.471.272-.855-.094-.855-.818a2.261,2.261,0,0,1,.855-1.809c.471-.272.851.1.851.824a2.246,2.246,0,0,1-.851,1.8" transform="translate(-221.09 -109.834)" fill="#263238"/>
            <path id="Caminho_86" data-name="Caminho 86" d="M279.152,113.694c-.47.272-.854-.093-.854-.818a2.262,2.262,0,0,1,.854-1.809c.471-.272.852.1.852.824a2.244,2.244,0,0,1-.852,1.8" transform="translate(-245.064 -95.995)" fill="#263238"/>
          </g>
          <g id="Grupo_39" data-name="Grupo 39" transform="translate(10.043 21.891)">
            <path id="Caminho_87" data-name="Caminho 87" d="M183.5,139.953,258.56,96.62a1.42,1.42,0,0,1,1.285,0l.724.418a1.42,1.42,0,0,1,.642,1.113v114.5a1.419,1.419,0,0,1-.642,1.113L185.515,257.1a1.42,1.42,0,0,1-1.285,0l-.725-.419a1.42,1.42,0,0,1-.643-1.113v-114.5A1.42,1.42,0,0,1,183.5,139.953Z" transform="translate(-182.862 -96.465)" fill="#f5f5f5"/>
            <path id="Caminho_88" data-name="Caminho 88" d="M261.352,97.955c-.079-.262-.326-.346-.618-.178l-75.056,43.334a1.288,1.288,0,0,0-.455.48l-2.008-1.157a1.25,1.25,0,0,1,.455-.48L258.726,96.62a1.392,1.392,0,0,1,1.281,0l.728.415A1.424,1.424,0,0,1,261.352,97.955Z" transform="translate(-183.025 -96.464)" fill="#fafafa"/>
            <path id="Caminho_89" data-name="Caminho 89" d="M185.363,294.969a1.184,1.184,0,0,1-.237.064l-.124.015a1.73,1.73,0,0,1-.391-.015,1.184,1.184,0,0,1-.237-.064,1.28,1.28,0,0,1-.144-.069l-.722-.416a1.421,1.421,0,0,1-.643-1.113v-114.5a1.267,1.267,0,0,1,.188-.633l2.008,1.157a1.354,1.354,0,0,0-.188.633v114.5C184.873,294.88,185.081,295.053,185.363,294.969Z" transform="translate(-182.863 -134.266)" fill="#e0e0e0"/>
          </g>
          <g id="Grupo_40" data-name="Grupo 40" transform="translate(25.862 18.323)">
            <path id="Caminho_90" data-name="Caminho 90" d="M257.9,109.769l-2-1.157a2.169,2.169,0,0,0-2.008.059c-2.334,1.029-3.343,1.494-4.55,2-.277.113-.559.227-.871.351-.47.188-1.415.03-1.123-1.617l3.1-8.353c-.015-.01-.03-.015-.045-.025l-1.963-1.137a.883.883,0,0,0-.326-.114,1.456,1.456,0,0,0-.218-.019c-1.271-.03-1.632-8.22-1.642-8.472v0l-.089-.049L244.23,90.11a2.174,2.174,0,0,0-1.108-.282,4.058,4.058,0,0,0-1.84.519c-3.052,1.6-6.133,6.35-6.884,10.613-.475,2.69-3.18,6.83-4.743,8.353a4.992,4.992,0,0,0-1.672,2.8l-1.217,6.895-.39,2.206a7.239,7.239,0,0,1-1.973,3.24l-6.3,4.718c-3.941,3.274-5.055,6.578-5.811,10.668,0,.005,0,.025,0,.03-.025.143,0,.242.069.282a.072.072,0,0,0,.069,0v0c.005,0,.005,0,.01,0l.806-.46,43.314-24.981a.95.95,0,0,0,.4-.6s0-.015.01-.02,0-.01,0-.015c.247-1.494.97-4.288.97-4.288ZM245.382,97.113c-.465,2.621-2.354,5.544-4.233,6.528-1.3.678-2.241.257-2.557-.935a1.482,1.482,0,0,1-1.42-.183c-.6-.475,4.916-9.946,5.366-9.738a1.6,1.6,0,0,1,.831,1.132C244.917,93.448,245.8,94.759,245.382,97.113Z" transform="translate(-212.282 -89.828)" fill="#455a64"/>
            <path id="Caminho_91" data-name="Caminho 91" d="M218.561,169.992l-3.155-1.821a17.45,17.45,0,0,0-3.111,7.884c0,.005,0,.025,0,.03-.025.143,0,.242.069.282a.072.072,0,0,0,.069,0v0c.005,0,.005,0,.01,0l.009-.005,2.49-1.972Z" transform="translate(-212.282 -126.045)" fill="#37474f" opacity="0.5"/>
            <path id="Caminho_92" data-name="Caminho 92" d="M238.1,139.771l4.449,2.568,2.008-11.6-4.011-2.316a3.8,3.8,0,0,0-.629,1.531L238.7,136.85l-.39,2.206A3.714,3.714,0,0,1,238.1,139.771Z" transform="translate(-224.219 -107.67)" fill="#37474f" opacity="0.5"/>
            <path id="Caminho_93" data-name="Caminho 93" d="M254.168,100.231a17.259,17.259,0,0,0-2.109,5.539,13.77,13.77,0,0,1-1.573,3.933l3.818,2.2,1.9-4.381a1.464,1.464,0,0,1-1.367-.194c-.31-.244,1-2.867,2.4-5.329Z" transform="translate(-229.943 -94.637)" fill="#37474f" opacity="0.5"/>
            <path id="Caminho_94" data-name="Caminho 94" d="M258.058,110.776l-.03-.015a2.181,2.181,0,0,0-2,.064c-2.864,1.261-3.729,1.677-5.426,2.349-.455.183-1.37.035-1.132-1.513a.753.753,0,0,1,.015-.1l.391-2.206,1.083-6.009s.247-.944-.381-1.3c-.015-.01-.03-.015-.045-.025a1.172,1.172,0,0,0-.5-.109,2.443,2.443,0,0,1-1.79-1.143,4.515,4.515,0,0,1-.673-3.437c.455-2.577-.045-4.382-1.187-5.055a.788.788,0,0,0-.089-.054,3.067,3.067,0,0,0-2.883.282c-3.052,1.6-6.133,6.35-6.885,10.613-.474,2.691-3.18,6.83-4.743,8.353a4.99,4.99,0,0,0-1.672,2.8l-1.217,6.894-.39,2.206a7.231,7.231,0,0,1-1.978,3.239l-6.291,4.718a15.177,15.177,0,0,0-5.178,7.839s-2.359,1.83-2.507,1.978v0s0,0,.005,0l0,0,.806-.46,43.438-24.971s.5-.272.608-.341,1.859-1.721,1.859-1.721C259.2,112.225,258.785,111.212,258.058,110.776ZM245.506,98.106c-.465,2.621-2.354,5.544-4.233,6.528-1.3.678-2.241.257-2.557-.935a4.964,4.964,0,0,1-.005-2.033c.465-2.621,2.359-5.544,4.239-6.523a3.308,3.308,0,0,1,.544-.233C245.041,94.441,245.921,95.751,245.506,98.106Z" transform="translate(-212.405 -90.821)" fill="#37474f"/>
            <path id="Caminho_95" data-name="Caminho 95" d="M268,100.548c-.465,2.621-2.354,5.544-4.233,6.528-1.3.678-2.241.257-2.557-.935a3.56,3.56,0,0,0,.549-.228c1.879-.984,3.773-3.907,4.233-6.528a4.882,4.882,0,0,0,0-2.033C267.537,96.883,268.417,98.193,268,100.548Z" transform="translate(-234.901 -93.263)" fill="#263238"/>
            <path id="Caminho_96" data-name="Caminho 96" d="M266.1,97.539h0a1.029,1.029,0,0,1,.906.438c.779,1.106.033,3.927-.29,4.828-.45,1.256-3.361,4.2-4.166,4.2a1.958,1.958,0,0,1-1.314-.84,4.911,4.911,0,0,1,0-1.959c.459-2.588,2.332-5.475,4.174-6.435a3.241,3.241,0,0,1,.511-.22c.061-.006.119-.009.175-.009m0-.124a2,2,0,0,0-.2.01,3.308,3.308,0,0,0-.544.233c-1.879.979-3.774,3.9-4.239,6.523a4.963,4.963,0,0,0,.005,2.033,2.105,2.105,0,0,0,1.422.912h.017c.87,0,3.8-2.969,4.271-4.281.46-1.284,1.483-5.431-.732-5.431Z" transform="translate(-234.809 -93.335)" fill="#263238"/>
            <path id="Caminho_97" data-name="Caminho 97" d="M212.558,159.781,256.8,134.346s.5-.274.61-.34,1.859-1.725,1.859-1.725L215.061,157.8S212.382,159.874,212.558,159.781Z" transform="translate(-212.406 -109.453)" fill="#263238"/>
          </g>
          <g id="Grupo_47" data-name="Grupo 47" transform="translate(20.087 51.076)">
            <g id="Grupo_42" data-name="Grupo 42">
              <g id="Grupo_41" data-name="Grupo 41">
                <path id="Caminho_98" data-name="Caminho 98" d="M201.542,186.149v1.007c0,.546.383.768.857.495l58.556-33.8a1.893,1.893,0,0,0,.857-1.484v-1.01c0-.546-.383-.768-.857-.495L202.4,184.665A1.894,1.894,0,0,0,201.542,186.149Z" transform="translate(-201.542 -150.74)" fill="#e0e0e0"/>
                <path id="Caminho_99" data-name="Caminho 99" d="M201.542,197.456v1.007c0,.546.383.768.857.495l58.556-33.8a1.893,1.893,0,0,0,.857-1.484v-1.01c0-.546-.383-.767-.857-.494L202.4,195.971A1.9,1.9,0,0,0,201.542,197.456Z" transform="translate(-201.542 -155.967)" fill="#e0e0e0"/>
                <path id="Caminho_100" data-name="Caminho 100" d="M201.542,208.7v1.007c0,.546.383.767.857.495l58.556-33.8a1.893,1.893,0,0,0,.857-1.484V173.9c0-.546-.383-.768-.857-.495L202.4,207.215A1.894,1.894,0,0,0,201.542,208.7Z" transform="translate(-201.542 -161.165)" fill="#e0e0e0"/>
              </g>
            </g>
            <g id="Grupo_44" data-name="Grupo 44" transform="translate(0 25.518)">
              <g id="Grupo_43" data-name="Grupo 43">
                <path id="Caminho_101" data-name="Caminho 101" d="M201.542,233.606v1.007c0,.546.383.768.857.495l58.556-33.8a1.892,1.892,0,0,0,.857-1.484v-1.01c0-.546-.383-.768-.857-.495L202.4,232.122A1.893,1.893,0,0,0,201.542,233.606Z" transform="translate(-201.542 -198.197)" fill="#e0e0e0"/>
                <path id="Caminho_102" data-name="Caminho 102" d="M201.542,244.912v1.007c0,.546.383.768.857.495l58.556-33.8a1.894,1.894,0,0,0,.857-1.484v-1.01c0-.546-.383-.768-.857-.495L202.4,243.428A1.893,1.893,0,0,0,201.542,244.912Z" transform="translate(-201.542 -203.424)" fill="#e0e0e0"/>
                <path id="Caminho_103" data-name="Caminho 103" d="M201.542,256.156v1.007c0,.546.383.768.857.495l58.556-33.8a1.893,1.893,0,0,0,.857-1.484v-1.01c0-.546-.383-.768-.857-.495L202.4,254.672A1.893,1.893,0,0,0,201.542,256.156Z" transform="translate(-201.542 -208.622)" fill="#e0e0e0"/>
              </g>
            </g>
            <g id="Grupo_46" data-name="Grupo 46" transform="translate(0 51.036)">
              <g id="Grupo_45" data-name="Grupo 45">
                <path id="Caminho_104" data-name="Caminho 104" d="M201.542,281.062v1.007c0,.546.383.768.857.495l58.556-33.8a1.893,1.893,0,0,0,.857-1.484v-1.01c0-.546-.383-.768-.857-.495L202.4,279.578A1.894,1.894,0,0,0,201.542,281.062Z" transform="translate(-201.542 -245.653)" fill="#e0e0e0"/>
                <path id="Caminho_105" data-name="Caminho 105" d="M201.542,292.368v1.007c0,.546.383.768.857.495l58.556-33.8a1.893,1.893,0,0,0,.857-1.484v-1.01c0-.546-.383-.768-.857-.495L202.4,290.884A1.894,1.894,0,0,0,201.542,292.368Z" transform="translate(-201.542 -250.88)" fill="#e0e0e0"/>
                <path id="Caminho_106" data-name="Caminho 106" d="M201.542,303.612v1.007c0,.546.383.767.857.495l58.556-33.8a1.894,1.894,0,0,0,.857-1.484v-1.01c0-.546-.383-.768-.857-.495L202.4,302.128A1.894,1.894,0,0,0,201.542,303.612Z" transform="translate(-201.542 -256.078)" fill="#e0e0e0"/>
              </g>
            </g>
          </g>
          <path id="Caminho_107" data-name="Caminho 107" d="M257.584,320.607l30.134-17.4v.58l-30.135,17.4Z" transform="translate(-207.362 -170.148)" fill="#e0e0e0"/>
          <path id="Caminho_108" data-name="Caminho 108" d="M267.458,309.658c1.253-.842,2.652-2.254,2.426-3.929a1.282,1.282,0,0,0-1.9-1.047c-1.835.7-2.994,3.465-3.635,5.131-.56,1.457-1.27,4.2.916,4.669,2.568.546,4.552-3.22,5.129-5.182.081-.274-.365-.423-.491-.178-.229.446-1.741,3.39-.078,3.024.591-.131.933-1.049,1.144-1.517a12.154,12.154,0,0,1,1.159-2.728l-.436-.2a2.68,2.68,0,0,0,.518,1.9.264.264,0,0,0,.365.063c.847-.792.909-2.076,1.843-2.793l-.382-.181c-.011.245-.11.95-.129,1.281-.009.154.211.254.336.208a.729.729,0,0,0,.534-.462l-.408-.149c.353,1.894,1.973.011,2.528-.721a12.079,12.079,0,0,0,2.81-7.215c0-.221-.416-.331-.421-.066-.039,2.116-.962,4.059-1.558,6.056a67.17,67.17,0,0,0-1.6,6.569l.384.138A13.186,13.186,0,0,1,277.7,307.8a8.92,8.92,0,0,1,2.034-3.4l-.353-.133a3.841,3.841,0,0,1-.86,3.129c-.114.147.14.417.254.274.591-.743,1.565-.979,2.2-1.7a19.1,19.1,0,0,0,1.589-2.56l-.29-.146c-.039,1.8,1.666-1.011,1.9-1.314l-.28-.107c.113.373.267.619.686.623.831.006,1.145-1.214,1.772-1.356.005,0,.277.235.372.243a1.549,1.549,0,0,0,1.006-.189,4.683,4.683,0,0,0,1.648-1.838c.094-.17-.233-.386-.343-.2-.41.7-1.7,2.552-2.641,1.643-.056-.054-.183-.1-.245-.028-.251.31-1.7,1.969-1.966,1.094-.033-.109-.19-.226-.28-.106-.219.291-.4.615-.6.918-.111.166-.745,1.227-.721.689.006-.126-.2-.281-.29-.146a13.226,13.226,0,0,1-1.831,2.808c-.608.544-1.409.745-1.932,1.394l.254.274a4.132,4.132,0,0,0,.982-3.4.224.224,0,0,0-.352-.133,9.141,9.141,0,0,0-2.071,3.472,13.55,13.55,0,0,0-1.207,4.62c0,.167.342.353.384.138a64.5,64.5,0,0,1,1.769-7.078,20.277,20.277,0,0,0,1.432-5.662l-.421-.066a10.462,10.462,0,0,1-1.865,5.75c-.305.471-.621.936-.964,1.379-.153.2-1.486,1.939-1.659.928-.025-.146-.31-.347-.408-.149l-.388.343.336.208c.026-.436.111-.847.132-1.285.008-.171-.257-.277-.382-.182-.95.726-1.017,2.011-1.876,2.8l.365.063a2.915,2.915,0,0,1-.4-1.621c0-.187-.291-.373-.436-.2a13.513,13.513,0,0,0-1.293,2.954c-.237.5-1.095,1.835-.8.41a7.024,7.024,0,0,1,.754-1.669l-.491-.178c-.508,1.71-1.856,4.307-3.7,4.859-2.357.707-1.948-2.214-1.515-3.512a14.429,14.429,0,0,1,2.245-4.207,5.32,5.32,0,0,1,.606-.7c.479-.433.622-.516,1.288-.159.7.375.7.6.514,1.311a3.859,3.859,0,0,1-.44,1.018,6.679,6.679,0,0,1-1.582,1.689c-.086.068.039.3.137.233Z" transform="translate(-210.226 -168.233)" fill="#455a64"/>
        </g>
      </g>
    </g>
  </g>
</svg>
