<svg xmlns="http://www.w3.org/2000/svg" width="102" height="141.856" viewBox="0 0 102 141.856">
  <g id="Grupo_92" data-name="Grupo 92" transform="translate(-65.684 -68.168)">
    <path id="Caminho_109" data-name="Caminho 109" d="M166.684,124.264c0,27.614-50,67.9-50,67.9s-50-40.287-50-67.9a50,50,0,1,1,100,0Z" transform="translate(0 -1.304)" fill="#bf3028"/>
    <path id="Caminho_110" data-name="Caminho 110" d="M166.684,119.168c0,27.614-50,67.9-50,67.9s-50-40.287-50-67.9a50,50,0,1,1,100,0Z" transform="translate(0)" fill="#e2564e"/>
    <path id="Caminho_111" data-name="Caminho 111" d="M66.684,119.168a50,50,0,1,1,100,0" transform="translate(0)" fill="none" stroke="#ff8b85" stroke-miterlimit="10" stroke-width="2"/>
    <ellipse id="Elipse_7" data-name="Elipse 7" cx="35.698" cy="4.379" rx="35.698" ry="4.379" transform="translate(80.986 201.267)" fill="#cecfc8"/>
    <path id="Caminho_112" data-name="Caminho 112" d="M157.254,123.937c0,19.675-15.95,40.348-35.624,40.348S86,143.612,86,123.937s15.95-30.9,35.624-30.9S157.254,104.263,157.254,123.937Z" transform="translate(-4.945 -6.109)" fill="#bf3028"/>
    <circle id="Elipse_8" data-name="Elipse 8" cx="35.624" cy="35.624" r="35.624" transform="translate(81.06 80.794)" fill="#f1f2ea"/>
    <path id="Caminho_113" data-name="Caminho 113" d="M86,120.418a35.624,35.624,0,0,1,71.249,0" transform="translate(-4.945 -4)" fill="none" stroke="#fff" stroke-miterlimit="10" stroke-width="2"/>
    <path id="Caminho_114" data-name="Caminho 114" d="M121.629,163.228a35.621,35.621,0,0,1-35.552-33.461c-.043.716-.072,1.436-.072,2.163a35.624,35.624,0,0,0,71.249,0c0-.727-.028-1.447-.071-2.163A35.622,35.622,0,0,1,121.629,163.228Z" transform="translate(-4.945 -15.511)" fill="#cecfc8"/>
  </g>
</svg>
