<svg xmlns="http://www.w3.org/2000/svg" width="279" height="174.506" viewBox="0 0 279 174.506">
  <g id="Grupo_92" data-name="Grupo 92" transform="translate(-1666.327 -546.417)">
    <g id="Grupo_24" data-name="Grupo 24" transform="translate(1666.327 546.417)">
      <g id="Grupo_23" data-name="Grupo 23" transform="translate(0 0)">
        <path id="Caminho_1" data-name="Caminho 1" d="M1930.428,1059.882s20.037,4.75,29.9-16.778c12.8-27.93-5.164-54.461-36.146-56.372-44.686-2.756-19.921-74.1-90.434-54.741-19.827,5.443-62.953-22.655-88.339,24.954-4.317,8.1-17.221,7.7-34.414,21.509-30.328,24.362-19.41,81.687,6.143,81.948S1930.428,1059.882,1930.428,1059.882Z" transform="translate(-1689.699 -885.979)" fill="#e1defe"/>
        <path id="Caminho_2" data-name="Caminho 2" d="M1952.237,1942.589s.931-6.1,12.817-7.745,22.936-14.807,42.536-12.9,35.864,13.9,58.175,10.227,36.281,1.009,41.285,4.7,25.715-.867,27.245,5.9Z" transform="translate(-1920.329 -1768.27)" fill="#703ece"/>
        <path id="Caminho_3" data-name="Caminho 3" d="M2323.31,805.247s-13.414-.656-6.3,40.227c0,0,4.787,13.878-1.256,22.822h88.96V805.247Z" transform="translate(-2242.546 -776.361)" fill="#bcb4fb"/>
        <g id="Grupo_7" data-name="Grupo 7" transform="translate(31.908 84.675)">
          <g id="Grupo_2" data-name="Grupo 2" transform="translate(47.488 35.467)">
            <path id="Caminho_4" data-name="Caminho 4" d="M2448.965,1638s-6.215-7.25-.383-11.856c0,0,4.26-2.579,7.733-2.369,0,0-4.922,8.253-3.329,9.074s4.821-9.592,4.821-9.592,9.694-.94,12.812.56c0,0-8.287,6.781-6.542,7.185s10.7-6.252,10.7-6.252,9.022,1.535,8.541,7.039-3.59,7.2-4.956,7.057-9.359-3.2-9.533-2.078,4.637,4.778,8.006,4.949c0,0-6.361,7.015-10.588,4.99s-4.588-5.234-7.223-6.437-4.885-1.2-3.8.027,5.857,2.421,7.364,5.086,2.859,4.463-1.514,3.805-11.483-3.858-11.8-7.523Z" transform="translate(-2438.46 -1622.962)" fill="#5039c9"/>
            <g id="Grupo_1" data-name="Grupo 1" transform="translate(0 8.928)">
              <path id="Caminho_5" data-name="Caminho 5" d="M2458.389,1703s-24.5-.944-29.916,6.064a17.722,17.722,0,0,1-4.88,6.848l-.574,1.564s4.246-4.477,5.766-4.748C2428.785,1712.733,2426.409,1704.05,2458.389,1703Z" transform="translate(-2417.968 -1702.962)" fill="#5039c9"/>
              <path id="Caminho_6" data-name="Caminho 6" d="M2383.385,1814.132a15.386,15.386,0,0,0-5.625,10.84l.955.085s1.68-7.186,4.716-10S2383.385,1814.132,2383.385,1814.132Z" transform="translate(-2377.76 -1801.177)" fill="#5039c9"/>
            </g>
          </g>
          <g id="Grupo_4" data-name="Grupo 4" transform="translate(0 15.782)">
            <path id="Caminho_7" data-name="Caminho 7" d="M1988.5,1472.168s9.886-5.536,5.273-13.05c0,0-3.691-4.614-7.646-5.8,0,0,2.109,11.2,0,11.468s-1.45-12.655-1.45-12.655-10.414-5.009-14.5-4.614c0,0,6.459,10.941,4.35,10.677s-9.359-11.336-9.359-11.336-10.677-1.977-12.391,4.35,1.055,9.491,2.636,9.886,11.732.263,11.468,1.582-7.118,3.427-10.941,2.241c0,0,4.218,10.414,9.755,9.886s7.25-3.954,10.677-4.218,5.932.659,4.218,1.582-7.514.3-10.282,2.656-5.009,3.8.132,4.858,14.368.4,16.214-3.559Z" transform="translate(-1952.237 -1446.566)" fill="#a74294"/>
            <g id="Grupo_3" data-name="Grupo 3" transform="translate(5.418 6.62)">
              <path id="Caminho_8" data-name="Caminho 8" d="M2000.785,1505.883s27.682,8.964,30.845,18.982a21.029,21.029,0,0,0,2.636,9.623v1.977s-2.9-6.723-4.482-7.646C2029.785,1528.819,2035.98,1520.119,2000.785,1505.883Z" transform="translate(-2000.785 -1505.883)" fill="#a74294"/>
              <path id="Caminho_9" data-name="Caminho 9" d="M2290.272,1752.4a18.258,18.258,0,0,1,1.835,14.374l-1.1-.295s1.066-8.692-1.167-13.063S2290.272,1752.4,2290.272,1752.4Z" transform="translate(-2256.79 -1723.795)" fill="#a74294"/>
            </g>
          </g>
          <g id="Grupo_6" data-name="Grupo 6" transform="translate(43.424)">
            <path id="Caminho_10" data-name="Caminho 10" d="M2349.912,1338.9s-13.032-7.3-6.95-17.2c0,0,4.865-6.082,10.078-7.646,0,0-2.78,14.77,0,15.117s1.911-16.681,1.911-16.681,13.727-6.6,19.114-6.082c0,0-8.514,14.422-5.734,14.075s12.337-14.943,12.337-14.943,14.074-2.606,16.333,5.734-1.39,12.511-3.475,13.032-15.465.348-15.117,2.085,9.383,4.518,14.422,2.954c0,0-5.561,13.727-12.858,13.032s-9.557-5.213-14.074-5.56-7.819.869-5.561,2.085,9.9.4,13.553,3.5,6.6,5.013-.174,6.4-18.94.521-21.373-4.692Z" transform="translate(-2341.344 -1305.155)" fill="#703ece"/>
            <g id="Grupo_5" data-name="Grupo 5" transform="translate(1.684 8.726)">
              <path id="Caminho_11" data-name="Caminho 11" d="M2431.109,1383.347s-36.49,11.816-40.66,25.021a27.722,27.722,0,0,1-3.475,12.684v2.606s3.823-8.862,5.908-10.078C2392.882,1413.581,2384.715,1402.113,2431.109,1383.347Z" transform="translate(-2383.566 -1383.347)" fill="#8271d0"/>
              <path id="Caminho_12" data-name="Caminho 12" d="M2359.846,1708.3a24.067,24.067,0,0,0-2.419,18.948l1.448-.389s-1.405-11.457,1.539-17.22S2359.846,1708.3,2359.846,1708.3Z" transform="translate(-2356.438 -1670.595)" fill="#8271d0"/>
            </g>
          </g>
          <path id="Caminho_13" data-name="Caminho 13" d="M2210.963,1889.906a25.528,25.528,0,0,0,25.527-25.528h-51.055A25.528,25.528,0,0,0,2210.963,1889.906Z" transform="translate(-2159.41 -1801.969)" fill="#fba46e"/>
          <path id="Caminho_14" data-name="Caminho 14" d="M2242.011,1889.709a25.546,25.546,0,0,1-28.7-25.333h6.342A25.532,25.532,0,0,0,2242.011,1889.709Z" transform="translate(-2184.177 -1801.968)" fill="#f28e50"/>
          <path id="Caminho_15" data-name="Caminho 15" d="M2234.036,2079.69h-51.76a3.15,3.15,0,0,1,3.15-3.15h45.461a3.15,3.15,0,0,1,3.15,3.15Z" transform="translate(-2156.604 -1990.453)" fill="#fba46e"/>
          <rect id="Retângulo_2" data-name="Retângulo 2" width="52.475" height="0.783" transform="translate(25.185 62.409)" fill="#f28e50"/>
        </g>
        <g id="Grupo_9" data-name="Grupo 9" transform="translate(161.703 37.444)">
          <path id="Caminho_16" data-name="Caminho 16" d="M3230.265,894.511s-4.472-8.438,2.229-11.651c0,0,4.722-1.581,8.064-.614,0,0-6.613,6.971-5.24,8.122s6.809-8.3,6.809-8.3,9.664,1.211,12.377,3.358c0,0-9.573,4.8-7.959,5.574s11.808-3.752,11.808-3.752,8.465,3.478,6.788,8.742-5.083,6.24-6.384,5.8-8.429-5.173-8.844-4.12,3.475,5.68,6.724,6.586c0,0-7.745,5.448-11.425,2.544s-3.327-6.113-5.634-7.866-4.5-2.243-3.71-.807,5.183,3.647,6.068,6.579,1.81,4.982-2.313,3.38-10.356-6.285-9.856-9.929Z" transform="translate(-3216.134 -881.933)" fill="#5039c9"/>
          <g id="Grupo_8" data-name="Grupo 8" transform="translate(0 10.226)">
            <path id="Caminho_17" data-name="Caminho 17" d="M3215.363,976.565s-23.7-6.3-30.518-.651a17.72,17.72,0,0,1-6.264,5.61l-.9,1.4s5.125-3.436,6.668-3.367C3184.345,979.558,3183.932,970.566,3215.363,976.565Z" transform="translate(-3170.714 -973.562)" fill="#5039c9"/>
            <path id="Caminho_18" data-name="Caminho 18" d="M3123.146,1042.342a15.389,15.389,0,0,0-7.867,9.341l.913.293s3.216-6.643,6.8-8.718S3123.146,1042.342,3123.146,1042.342Z" transform="translate(-3115.279 -1034.38)" fill="#5039c9"/>
          </g>
        </g>
        <g id="Grupo_11" data-name="Grupo 11" transform="translate(137.468)">
          <path id="Caminho_19" data-name="Caminho 19" d="M2907.038,581.219s-13.244-6.907-7.46-16.988c0,0,4.682-6.224,9.846-7.942,0,0-2.339,14.846.45,15.111s1.414-16.731,1.414-16.731,13.525-7.009,18.924-6.648c0,0-8.081,14.669-5.312,14.239s11.886-15.3,11.886-15.3,13.991-3.024,16.5,5.245-1.017,12.547-3.085,13.13-15.448.808-15.048,2.534,9.513,4.236,14.5,2.523c0,0-5.149,13.887-12.465,13.409s-9.708-4.926-14.234-5.139-7.79,1.1-5.5,2.25,9.912.1,13.652,3.1,6.749,4.815.017,6.406-18.916,1.085-21.5-4.053Z" transform="translate(-2898.116 -546.417)" fill="#703ece"/>
          <g id="Grupo_10" data-name="Grupo 10" transform="translate(2.777 8.582)">
            <path id="Caminho_20" data-name="Caminho 20" d="M2993.309,623.313s-36.122,12.9-39.9,26.221a27.72,27.72,0,0,1-3.1,12.783l.078,2.6s3.557-8.972,5.605-10.249C2956,654.672,2947.494,643.452,2993.309,623.313Z" transform="translate(-2947.268 -623.313)" fill="#8271d0"/>
            <path id="Caminho_21" data-name="Caminho 21" d="M2926.052,959.507a24.067,24.067,0,0,0-1.854,19.011l1.436-.432s-1.746-11.411,1.025-17.258S2926.052,959.507,2926.052,959.507Z" transform="translate(-2923.004 -920.503)" fill="#8271d0"/>
          </g>
        </g>
        <rect id="Retângulo_3" data-name="Retângulo 3" width="92.877" height="121.124" transform="translate(86.404 53.084)" fill="#a89fef"/>
        <rect id="Retângulo_4" data-name="Retângulo 4" width="91.316" height="121.124" transform="translate(89.441 53.084)" fill="#fdfdff"/>
        <path id="Caminho_22" data-name="Caminho 22" d="M3714.145,1942.183h-18.4c-.986-.837.682-2.736,2.425-2.864a10.772,10.772,0,0,1,2.809.333c.253-3.363,1.7-18.482,7.149-17.875,6.128.68,0,6.658-1.732,10.2a84.114,84.114,0,0,0-3.255,8.155c.5.108,1.012.213,1.539.31.812-2.494,3.834-10.882,7.677-10.393,4.512.572,2.7,3.935-.5,5.932-2.346,1.468-5.228,3.555-6.6,4.563a19.562,19.562,0,0,0,3.6.288C3712.009,1940.754,3713.548,1941.683,3714.145,1942.183Z" transform="translate(-3468.999 -1768.271)" fill="#703ece"/>
        <path id="Caminho_23" data-name="Caminho 23" d="M2496.566,829.445h-91.317c.505-6.905-.256-11.92-1.476-15.526-2.342-6.934-6.378-8.673-6.378-8.673h86.12c7.35,0,13.05,4.428,14.6,10.306.058.221.112.441.158.661C2499.748,822.94,2496.627,829.322,2496.566,829.445Z" transform="translate(-2315.809 -776.362)" fill="#fdfdff"/>
        <path id="Caminho_24" data-name="Caminho 24" d="M2547.337,898.487H2456.02c.505-6.905-.256-11.92-1.475-15.526,9.332,1.709,32.445,5.35,57.185,4.737,16-.4,28.652-1.468,37.316-2.443C2550.519,891.982,2547.4,898.364,2547.337,898.487Z" transform="translate(-2366.58 -845.404)" fill="#fdfdff"/>
        <g id="Grupo_13" data-name="Grupo 13" transform="translate(101.295 78.743)">
          <rect id="Retângulo_5" data-name="Retângulo 5" width="50.234" height="2.272" rx="0.349" transform="translate(6.01 0)" fill="#c7c0fc"/>
          <rect id="Retângulo_6" data-name="Retângulo 6" width="31.301" height="2.272" rx="0.349" transform="translate(6.01 3.822)" fill="#c7c0fc"/>
          <g id="Grupo_12" data-name="Grupo 12">
            <path id="Caminho_25" data-name="Caminho 25" d="M2575.333,1257.722v-4.64h-.612q-.558,0-.557-.464,0-.334.436-.473a3.246,3.246,0,0,1,.71-.111q.487-.037.784-.037t.362.116a1.38,1.38,0,0,1,.074.589v5.02h.631q.612,0,.612.529,0,.556-.612.557h-2.543a.7.7,0,0,1-.45-.144.486.486,0,0,1-.181-.4q0-.538.622-.538Z" transform="translate(-2573.988 -1251.997)" fill="#c7c0fc"/>
          </g>
        </g>
        <g id="Grupo_15" data-name="Grupo 15" transform="translate(101.257 102.665)">
          <rect id="Retângulo_7" data-name="Retângulo 7" width="50.234" height="2.271" rx="0.349" transform="translate(6.048)" fill="#dbd7fd"/>
          <rect id="Retângulo_8" data-name="Retângulo 8" width="31.301" height="2.271" rx="0.349" transform="translate(6.048 3.822)" fill="#dbd7fd"/>
          <g id="Grupo_14" data-name="Grupo 14" transform="translate(0 0)">
            <path id="Caminho_26" data-name="Caminho 26" d="M2577.566,1471.981q0,.464-.648.463h-2.69q-.582,0-.583-.467a.593.593,0,0,1,.156-.345q.23-.262.672-.787.673-.845,1.124-1.46.155-.2.443-.623a1.505,1.505,0,0,0,.238-.705.724.724,0,0,0-.205-.529.7.7,0,0,0-.525-.209.8.8,0,0,0-.541.2.933.933,0,0,0-.246.492,5.5,5.5,0,0,1-.148.541.415.415,0,0,1-.4.262.46.46,0,0,1-.386-.18.615.615,0,0,1-.131-.41,1.98,1.98,0,0,1,.09-.582,1.749,1.749,0,0,1,.7-.968,2.023,2.023,0,0,1,1.156-.32,1.791,1.791,0,0,1,1.246.452,1.58,1.58,0,0,1,.517,1.216,2.117,2.117,0,0,1-.369,1.134q-.2.32-.844,1.134-.328.419-1.034,1.216h1.771Q2577.566,1471.5,2577.566,1471.981Z" transform="translate(-2573.646 -1466.351)" fill="#dbd7fd"/>
          </g>
        </g>
        <g id="Grupo_17" data-name="Grupo 17" transform="translate(101.153 122.367)">
          <rect id="Retângulo_9" data-name="Retângulo 9" width="50.234" height="2.272" rx="0.349" transform="translate(6.152 0.252)" fill="#dbd7fd"/>
          <rect id="Retângulo_10" data-name="Retângulo 10" width="31.301" height="2.271" rx="0.349" transform="translate(6.152 4.074)" fill="#dbd7fd"/>
          <g id="Grupo_16" data-name="Grupo 16">
            <path id="Caminho_27" data-name="Caminho 27" d="M2576.742,1647.341a1.758,1.758,0,0,1-.612,1.4,2.156,2.156,0,0,1-1.467.5,2.054,2.054,0,0,1-1.173-.327,1.494,1.494,0,0,1-.771-1.249.524.524,0,0,1,.134-.361.439.439,0,0,1,.344-.151.526.526,0,0,1,.411.293q.31.486.36.536a.936.936,0,0,0,.713.293.89.89,0,0,0,.838-.436,1.158,1.158,0,0,0,.117-.553q0-.821-.964-.914-.545-.05-.545-.461a.438.438,0,0,1,.316-.428q.591-.218.6-.226a.809.809,0,0,0,.316-.729.656.656,0,0,0-.184-.49.674.674,0,0,0-.493-.18.9.9,0,0,0-.6.184,1.2,1.2,0,0,0-.309.545.382.382,0,0,1-.385.293.394.394,0,0,1-.33-.176.638.638,0,0,1-.129-.386,1.073,1.073,0,0,1,.142-.52,1.609,1.609,0,0,1,.721-.679,2.108,2.108,0,0,1,.972-.226,1.694,1.694,0,0,1,1.186.432,1.465,1.465,0,0,1,.474,1.136,1.556,1.556,0,0,1-.7,1.341A1.519,1.519,0,0,1,2576.742,1647.341Z" transform="translate(-2572.718 -1642.898)" fill="#dbd7fd"/>
          </g>
        </g>
        <g id="Grupo_18" data-name="Grupo 18" transform="translate(111.809 58.49)">
          <rect id="Retângulo_11" data-name="Retângulo 11" width="32.045" height="2.639" rx="0.405" transform="translate(8.079)" fill="#c7c0fc"/>
          <path id="Retângulo_12" data-name="Retângulo 12" d="M.4,0H47.8a.4.4,0,0,1,.4.4V2.234a.405.405,0,0,1-.405.405H.405A.405.405,0,0,1,0,2.234V.4A.4.4,0,0,1,.4,0Z" transform="translate(0 4.069)" fill="#c7c0fc"/>
        </g>
        <g id="Grupo_19" data-name="Grupo 19" transform="translate(95.008 69.828)">
          <path id="Caminho_28" data-name="Caminho 28" d="M2555.016,1195.551a111.838,111.838,0,0,1-26.425-3.032c-7.11-1.8-10.939-4.749-10.939-7.362,0-2.368,3.121-4.547,9.026-6.3h0c-5.659,1.68-8.685,4.146-8.685,6.3,0,2.389,3.923,4.754,10.762,6.489,7.012,1.778,16.339,2.757,26.261,2.757s19.249-.979,26.261-2.757c6.84-1.734,10.762-4.1,10.762-6.489,0-2.53-4.131-5.675-10.78-8.207-7.56-2.879-16.881-3.947-26.243-3.947-17.578,0-24.814,2.052-31.092,4.623h0c6.305-2.583,13.452-5.51,31.092-5.51a76.042,76.042,0,0,1,26.357,4.485c6.79,2.585,11.008,5.863,11.008,8.555,0,2.613-3.916,5.045-11.025,6.848A108.975,108.975,0,0,1,2555.016,1195.551Z" transform="translate(-2517.651 -1172.116)" fill="#fba46e"/>
        </g>
        <g id="Grupo_22" data-name="Grupo 22" transform="translate(140.668 64.29)">
          <path id="Caminho_29" data-name="Caminho 29" d="M3361.809,1585.865a19.763,19.763,0,0,1-.687,3.787,13.553,13.553,0,0,1-2.542,2.9c-.652.378.4-2.536.265-3.1s-.537,1.035-.824,1.073-.214-1.4-.224-1.929,1.4-1.82,1.895-2.937S3361.809,1585.865,3361.809,1585.865Z" transform="translate(-3309.697 -1533.573)" fill="#fcb995"/>
          <path id="Caminho_30" data-name="Caminho 30" d="M3000.67,1283.992l-.732-1.381s.363-2.461-2.72-4.017a1.5,1.5,0,0,0-1.763.46c-.585.847,1.117.694,1.025,2.142a2.663,2.663,0,0,0,1.553,2.77l.79.916Z" transform="translate(-2987.683 -1261.071)" fill="#fcb995"/>
          <path id="Caminho_31" data-name="Caminho 31" d="M3048.723,1294.5a24.425,24.425,0,0,1-17.219,17.242c-4.548,1.326-14.882-13.65-14.882-13.65s.364-1.38,2.639-1.063c0,0,10.062,6.661,11.328,7.385,1.124.642,8.516-8.254,11.885-9.689A8.6,8.6,0,0,1,3048.723,1294.5Z" transform="translate(-3006.596 -1274.883)" fill="#f28e50"/>
          <g id="Grupo_20" data-name="Grupo 20" transform="translate(0 17.064)">
            <rect id="Retângulo_13" data-name="Retângulo 13" width="2.722" height="13.69" transform="translate(2.939 2.69) rotate(-81.268)" fill="#fba46e"/>
            <path id="Caminho_32" data-name="Caminho 32" d="M2926.793,1276.255l2.94,1.828.413-2.69Z" transform="translate(-2926.793 -1275.394)" fill="#fcb995"/>
            <path id="Caminho_33" data-name="Caminho 33" d="M3076.23,1295.151l-.131.85a.958.958,0,0,1-1.092.8l-.626-.1.413-2.69.681.1A.9.9,0,0,1,3076.23,1295.151Z" transform="translate(-3057.91 -1291.938)" fill="#fcb995"/>
          </g>
          <g id="Grupo_21" data-name="Grupo 21" transform="translate(26.72 49.035)">
            <path id="Caminho_34" data-name="Caminho 34" d="M3408.016,2024.136s1.808,1.65,1.455,2.822-1.984,1.953-2.2,3.386-1.1,2.214-1.9,2.214h-3.784s-.584-1.008.827-1.312,1.943-1.987,1.855-3.55a27.522,27.522,0,0,1,.132-3.647l3-.695Z" transform="translate(-3375.214 -1971.854)" fill="#572cb7"/>
            <path id="Caminho_35" data-name="Caminho 35" d="M3176.847,2057.023s.324,3.754-.469,4.145l-10.156-.02s0-1.172,1.631-1.433,4.5-1.216,4.982-3.343S3176.847,2057.023,3176.847,2057.023Z" transform="translate(-3166.221 -2000.473)" fill="#572cb7"/>
            <path id="Caminho_36" data-name="Caminho 36" d="M3184.6,1586.125s.536,6.581,1.165,14.491c.856,10.746,1.885,23.946,1.987,26.446.176,4.342.882,11.288.882,11.288s1.674,1.65,5.026.955a112.1,112.1,0,0,0,3.84-20.406c.013-.172.026-.345.04-.518.794-10.68,2.028-33.168,2.028-33.168Z" transform="translate(-3182.546 -1582.608)" fill="#703ece"/>
            <path id="Caminho_37" data-name="Caminho 37" d="M3184.6,1586.125s.536,6.581,1.165,14.491L3197.5,1618.9c.013-.172.026-.345.04-.518.794-10.68,2.028-33.168,2.028-33.168Z" transform="translate(-3182.546 -1582.608)" fill="#572cb7"/>
            <path id="Caminho_38" data-name="Caminho 38" d="M3206.518,1566.171s9.656,23.833,16,35.034,8.333,14.326,8.333,14.326,3.637-1.433,3.968-2.41c0,0-2.428-21.623-6.679-26.894-2.4-2.979-5.225-11.917-5.357-15.043s-.86-9.312-.86-9.312Z" transform="translate(-3202.021 -1561.873)" fill="#703ece"/>
          </g>
          <path id="Caminho_39" data-name="Caminho 39" d="M3238.362,1208.25s-6.533,3.152-10.3,1.983a8.886,8.886,0,0,1,2.55-2.04c-.13-.756-.232-1.412-.29-1.968a18.231,18.231,0,0,1-.159-2.011l2.52-1.983,2.39-1.9A9.631,9.631,0,0,0,3238.362,1208.25Z" transform="translate(-3194.441 -1191.647)" fill="#fcb995"/>
          <path id="Caminho_40" data-name="Caminho 40" d="M3198.867,1293.125c.014.4-.84.856-1.217,1.027a26.683,26.683,0,0,1-8.358,2.368c-3.491.357-7.62-.428-9.039-.4a.59.59,0,0,1-.391-.157c-.1-.072-.174-4.279-.1-9.571,0-.214,0-.428.014-.642v-.071c.029-2.068.1-4.236.2-6.4a71.168,71.168,0,0,1,1.217-11.9,12.9,12.9,0,0,1,4.085-6.418l1.3-1.141a6.265,6.265,0,0,0,4.056-.485c1.506-.728,3.129-1.512,3.39-1.313,1.97,1.441,3.3,4.678,4.012,8.815a45.851,45.851,0,0,1,.594,7.845c0,1.027-.029,2.082-.087,3.124a98.483,98.483,0,0,0,.2,13.393C3198.81,1292.026,3198.853,1292.668,3198.867,1293.125Z" transform="translate(-3151.503 -1242.869)" fill="#fba46e"/>
          <path id="Caminho_41" data-name="Caminho 41" d="M3259.492,1363.289c-22.877-.046-4.219-24.824-4.219-24.824l3.706-1.2a71.879,71.879,0,0,1,.43,8.381c0,1.1-.021,2.225-.063,3.337C3259.094,1355.014,3259.345,1360.256,3259.492,1363.289Z" transform="translate(-3212.244 -1313.293)" fill="#f28e50"/>
          <path id="Caminho_42" data-name="Caminho 42" d="M3251.839,1217.476a8.658,8.658,0,0,1-4.795,3.851,18.228,18.228,0,0,1-.159-2.011l2.521-1.983Z" transform="translate(-3211.163 -1206.749)" fill="#f4ab89"/>
          <path id="Caminho_43" data-name="Caminho 43" d="M3226.905,1153.5s6.233,1.02,6.818-2.812,1.783-6.28-2.171-7.093-4.953.534-5.464,1.766S3225.3,1153.136,3226.905,1153.5Z" transform="translate(-3192.333 -1141.02)" fill="#fcb995"/>
          <path id="Caminho_44" data-name="Caminho 44" d="M3219.954,1124.608c.057-.065.187-.117.477-.133a1.177,1.177,0,0,0-.542-.153,1.462,1.462,0,0,0-.971-1.292.871.871,0,0,1,.422.628c-.8-.827-2.53-1.428-7.306-1.051-6.295.5-4.22,4.527-3.406,5.008s2.866-.837,4.385-.716,1.807,2.314,2.322,2.616.313-.231,1.009-.546.763.84.562,1.591.756,1.741.756,1.741l.968-1.042c.968-1.042,1.879-5.456,1.44-6.4C3220.032,1124.777,3219.994,1124.692,3219.954,1124.608Z" transform="translate(-3176.299 -1122.492)" fill="#392e64"/>
          <path id="Caminho_45" data-name="Caminho 45" d="M3284.062,1257.99s3.943,1.867,5.834,4.738c2.933,4.453,6.332,20.681,6.4,22.184s-2.481,12.112-2.481,12.112-2.58-.17-3.246-1.472c0,0,.515-10.9.189-11.6s-10.756-14.622-9.584-17.593S3284.062,1257.99,3284.062,1257.99Z" transform="translate(-3241.539 -1242.868)" fill="#fba46e"/>
          <path id="Caminho_46" data-name="Caminho 46" d="M3021.171,1294.882s.215-.847-.373-1.228-1.128-1.416-1.376-1.276c-.513.291.281,1.194.135,2.321C3019.507,1295.094,3020.426,1296.129,3021.171,1294.882Z" transform="translate(-3008.93 -1273.408)" fill="#fcb995"/>
        </g>
        <path id="Caminho_47" data-name="Caminho 47" d="M2043.005,1871.706s-9.263-23.718-15.759-19.941S2043.005,1871.706,2043.005,1871.706Z" transform="translate(-1985.912 -1705.726)" fill="#703ece"/>
        <path id="Caminho_48" data-name="Caminho 48" d="M1988.107,1963.21s-12.237-10.575-17.826-8.611S1988.107,1963.21,1988.107,1963.21Z" transform="translate(-1935.594 -1797.23)" fill="#703ece"/>
        <path id="Caminho_49" data-name="Caminho 49" d="M3297.858,1994.706s2.82-9.8,6.128-8.648S3297.858,1994.706,3297.858,1994.706Z" transform="translate(-3115.779 -1825.31)" fill="#703ece"/>
        <path id="Caminho_50" data-name="Caminho 50" d="M3320.917,2031.293s7.2-4.725,8.781-3.265S3320.917,2031.293,3320.917,2031.293Z" transform="translate(-3136.265 -1862.432)" fill="#703ece"/>
        <path id="Caminho_51" data-name="Caminho 51" d="M2648.045,1860.515h-56.152a.685.685,0,0,1-.683-.683h0a.685.685,0,0,1,.683-.683h56.152a.685.685,0,0,1,.683.683h0A.685.685,0,0,1,2648.045,1860.515Z" transform="translate(-2487.993 -1712.647)" fill="#dbd7fd"/>
        <path id="Caminho_52" data-name="Caminho 52" d="M2648.045,1885.023h-56.152a.685.685,0,0,1-.683-.683h0a.685.685,0,0,1,.683-.683h56.152a.685.685,0,0,1,.683.683h0A.685.685,0,0,1,2648.045,1885.023Z" transform="translate(-2487.993 -1734.42)" fill="#dbd7fd"/>
        <path id="Caminho_53" data-name="Caminho 53" d="M2648.045,1912.183h-56.152a.685.685,0,0,1-.683-.683h0a.685.685,0,0,1,.683-.683h56.152a.685.685,0,0,1,.683.683h0A.685.685,0,0,1,2648.045,1912.183Z" transform="translate(-2487.993 -1758.549)" fill="#dbd7fd"/>
        <rect id="Retângulo_14" data-name="Retângulo 14" width="50.101" height="1.367" rx="0.21" transform="translate(103.217 155.298)" fill="#dbd7fd"/>
        <path id="Retângulo_15" data-name="Retângulo 15" d="M.092,0H278.909A.091.091,0,0,1,279,.091V.5a.092.092,0,0,1-.092.092H.09A.09.09,0,0,1,0,.5V.092A.092.092,0,0,1,.092,0Z" transform="translate(0 173.912)" fill="#2c1f8a"/>
      </g>
    </g>
  </g>
</svg>
