<svg xmlns="http://www.w3.org/2000/svg" xmlns:xlink="http://www.w3.org/1999/xlink" width="181.42" height="58.676" viewBox="0 0 181.42 58.676">
  <defs>
    <clipPath id="clip-path">
      <path id="Clip_6" data-name="Clip 6" d="M0,58.676H181.42V0H0Z" transform="translate(0 0.324)" fill="none"/>
    </clipPath>
  </defs>
  <g id="Page_1" data-name="Page 1" transform="translate(0 -1)">
    <path id="Fill_1" data-name="Fill 1" d="M17.127,0V10.123H7.538V0H0V26.641H7.538V16.555h9.589V26.641h7.461V0Z" transform="translate(0 11.363)" fill="#58585b"/>
    <path id="Fill_2" data-name="Fill 2" d="M0,26.643H7.5V0H0Z" transform="translate(33.795 11.324)" fill="#58585b"/>
    <g id="Group_27" data-name="Group 27" transform="translate(0 0.676)">
      <path id="Fill_3" data-name="Fill 3" d="M13.74,26.642H0V0H13.627a11.88,11.88,0,0,1,6.831,1.817,6.592,6.592,0,0,1,2.835,5.642c0,2.542-.986,4.284-2.929,5.177a6.967,6.967,0,0,1,2.774,2.7,7.125,7.125,0,0,1,.918,3.5,6.724,6.724,0,0,1-3.331,6.127A14.047,14.047,0,0,1,13.74,26.642ZM7.422,15.719v5.062h6.355c1.791,0,2.819-.916,2.819-2.512a2.5,2.5,0,0,0-2.819-2.55Zm0-9.629v4.072h6.014c1.5,0,2.4-.74,2.4-1.979a1.992,1.992,0,0,0-.6-1.489,2.43,2.43,0,0,0-1.717-.6Z" transform="translate(50.502 10.649)" fill="#58585b"/>
      <path id="Clip_6-2" data-name="Clip 6" d="M0,58.676H181.42V0H0Z" transform="translate(0 0.324)" fill="none"/>
      <g id="Group_27-2" data-name="Group 27" clip-path="url(#clip-path)">
        <path id="Fill_5" data-name="Fill 5" d="M0,26.643H7.5V0H0Z" transform="translate(104.313 10.648)" fill="#f26f21"/>
        <path id="Fill_7" data-name="Fill 7" d="M11.418,26.642H0V0H11.418a17.434,17.434,0,0,1,6.143,1.019,11.822,11.822,0,0,1,4.348,2.792,13,13,0,0,1,3.439,9.32,13.64,13.64,0,0,1-3.382,9.51,11.767,11.767,0,0,1-4.34,2.923A16.864,16.864,0,0,1,11.418,26.642ZM7.461,6.281v14h3.957c4.052,0,6.471-2.7,6.471-7.23,0-4.242-2.419-6.774-6.471-6.774Z" transform="translate(121.019 10.649)" fill="#f26f21"/>
        <path id="Fill_8" data-name="Fill 8" d="M7.994,26.643H0L11.951,0h7.614L31.476,26.641H23.408l-1.752-4.377H9.744L7.994,26.643ZM15.719,7.459h0l-3.426,8.488h6.815L15.719,7.459Z" transform="translate(149.943 10.648)" fill="#f26f21"/>
        <path id="Fill_9" data-name="Fill 9" d="M14.533,17.2c4.492-1.979,5.633-4.758,5.633-8.031C20.166,4.377,16.627,0,9.814,0H0A10.747,10.747,0,0,1,3.732,6.014H9.814c1.979,0,2.93,1.636,2.93,3.31A2.793,2.793,0,0,1,9.89,12.408H7.111v5.807l6.053,8.427h8.642Z" transform="translate(75.66 10.649)" fill="#f26f21"/>
        <path id="Fill_10" data-name="Fill 10" d="M0,6.014H7.451L11.77,0H4.637Z" transform="translate(33.795 0.324)" fill="#f26f21"/>
        <path id="Fill_11" data-name="Fill 11" d="M0,6.646H1.607V0H0Z" transform="translate(0 52.184)" fill="#939597"/>
        <path id="Fill_12" data-name="Fill 12" d="M0,0H2.184l3.1,4.619h.02V0H6.914V6.646h-2.1L1.627,1.916h-.02v4.73H0Z" transform="translate(8.588 52.184)" fill="#939597"/>
        <path id="Fill_13" data-name="Fill 13" d="M2.082,1.3H0V0H5.773V1.3H3.691v5.35H2.082Z" transform="translate(21.83 52.183)" fill="#939597"/>
        <path id="Fill_14" data-name="Fill 14" d="M0,0H4.957V1.352H1.608v1.24H4.771V3.943H1.608V5.3H5.143V6.646H0Z" transform="translate(33.992 52.184)" fill="#939597"/>
        <path id="Fill_15" data-name="Fill 15" d="M0,0H1.607V5.3H4.586V6.646H0Z" transform="translate(46 52.184)" fill="#939597"/>
        <path id="Fill_16" data-name="Fill 16" d="M0,6.646H1.609V0H0Z" transform="translate(56.965 52.184)" fill="#939597"/>
        <path id="Fill_17" data-name="Fill 17" d="M7,6.346a6.179,6.179,0,0,1-1.484.488,8.249,8.249,0,0,1-1.577.151,4.93,4.93,0,0,1-1.578-.244,3.733,3.733,0,0,1-1.246-.7,3.221,3.221,0,0,1-.82-1.1A3.476,3.476,0,0,1,0,3.492,3.49,3.49,0,0,1,.293,2.045a3.2,3.2,0,0,1,.82-1.1,3.665,3.665,0,0,1,1.246-.7A4.875,4.875,0,0,1,3.937,0,6.355,6.355,0,0,1,5.551.192,3.267,3.267,0,0,1,6.844.854L5.711,1.981a2.253,2.253,0,0,0-.742-.469,2.872,2.872,0,0,0-1.032-.16,2.569,2.569,0,0,0-.931.16,2.108,2.108,0,0,0-.719.445,1.929,1.929,0,0,0-.457.68,2.254,2.254,0,0,0-.16.855,2.223,2.223,0,0,0,.16.858,1.939,1.939,0,0,0,.457.678,2.171,2.171,0,0,0,.719.445,2.612,2.612,0,0,0,.931.16,3.353,3.353,0,0,0,.907-.109A3.52,3.52,0,0,0,5.451,5.3V4.223H4.144V2.873H7Z" transform="translate(65.16 52.015)" fill="#939597"/>
        <path id="Fill_18" data-name="Fill 18" d="M0,0H4.957V1.352H1.607v1.24H4.771V3.943H1.607V5.3H5.143V6.646H0Z" transform="translate(79.146 52.184)" fill="#939597"/>
        <path id="Fill_19" data-name="Fill 19" d="M0,0H2.186l3.1,4.619h.022V0H6.916V6.646h-2.1L1.629,1.916H1.607v4.73H0Z" transform="translate(91.092 52.184)" fill="#939597"/>
        <path id="Fill_20" data-name="Fill 20" d="M5.164,1.9a1.552,1.552,0,0,0-.582-.4,2.1,2.1,0,0,0-.8-.141,2.167,2.167,0,0,0-.84.16,2,2,0,0,0-.67.446,2.018,2.018,0,0,0-.443.679,2.294,2.294,0,0,0-.158.856,2.258,2.258,0,0,0,.158.857,2.068,2.068,0,0,0,.438.678,2.018,2.018,0,0,0,.654.445,2.065,2.065,0,0,0,.81.16,1.929,1.929,0,0,0,.875-.189,1.658,1.658,0,0,0,.629-.526l1.34.913A2.758,2.758,0,0,1,5.4,6.7a3.961,3.961,0,0,1-1.465.281A4.909,4.909,0,0,1,2.361,6.74a3.76,3.76,0,0,1-1.248-.7,3.194,3.194,0,0,1-.818-1.1A3.475,3.475,0,0,1,0,3.492,3.492,3.492,0,0,1,.295,2.044a3.174,3.174,0,0,1,.818-1.1,3.675,3.675,0,0,1,1.248-.7A4.854,4.854,0,0,1,3.937,0a4.149,4.149,0,0,1,.645.05,3.883,3.883,0,0,1,.66.164,3.135,3.135,0,0,1,.623.3A2.433,2.433,0,0,1,6.4.974Z" transform="translate(104.613 52.016)" fill="#939597"/>
        <path id="Fill_21" data-name="Fill 21" d="M0,6.646H1.609V0H0Z" transform="translate(117.559 52.184)" fill="#939597"/>
        <path id="Fill_22" data-name="Fill 22" d="M1.773,6.648H0L3.154,0h1.33L7.657,6.646H5.843L5.216,5.239H2.382L1.773,6.647Zm2-4.714L2.886,4H4.669Z" transform="translate(125.393 52.183)" fill="#939597"/>
        <path id="Fill_23" data-name="Fill 23" d="M0,0H1.752L2.916,4.262h.022L4.463,0H5.957L7.473,4.375h.019L8.719,0h1.629L8.215,6.646H6.781l-1.607-4.6h-.02l-1.609,4.6H2.164Z" transform="translate(147.1 52.184)" fill="#939597"/>
        <path id="Fill_24" data-name="Fill 24" d="M0,0H4.957V1.352H1.607v1.24H4.771V3.943H1.607V5.3H5.143V6.646H0Z" transform="translate(163.744 52.184)" fill="#939597"/>
        <path id="Fill_25" data-name="Fill 25" d="M2.99,6.646H0V0H2.72a7.8,7.8,0,0,1,.955.06A2.807,2.807,0,0,1,4.535.3a1.606,1.606,0,0,1,.619.514,1.461,1.461,0,0,1,.238.873,1.336,1.336,0,0,1-.345.934,1.927,1.927,0,0,1-.914.528v.021a2.228,2.228,0,0,1,.655.183,1.684,1.684,0,0,1,.5.348,1.436,1.436,0,0,1,.324.491,1.564,1.564,0,0,1,.113.6,1.5,1.5,0,0,1-.247.879,1.89,1.89,0,0,1-.639.566,2.973,2.973,0,0,1-.882.311A5.224,5.224,0,0,1,2.99,6.646ZM1.609,3.9V5.408H3.052a1.978,1.978,0,0,0,.375-.039,1.017,1.017,0,0,0,.346-.131A.764.764,0,0,0,4.025,5a.652.652,0,0,0,.1-.367.561.561,0,0,0-.129-.381.825.825,0,0,0-.324-.221,1.771,1.771,0,0,0-.424-.1A3.538,3.538,0,0,0,2.824,3.9Zm0-2.656V2.658H2.773a1.756,1.756,0,0,0,.365-.039A1.059,1.059,0,0,0,3.463,2.5.675.675,0,0,0,3.7,2.271a.614.614,0,0,0,.087-.337.571.571,0,0,0-.1-.341.68.68,0,0,0-.254-.211,1.276,1.276,0,0,0-.349-.11A2.389,2.389,0,0,0,2.7,1.24Z" transform="translate(175.69 52.184)" fill="#939597"/>
        <path id="Fill_26" data-name="Fill 26" d="M2.072,0,0,2.262H1.392l.639-.731.648.731H4.1Z" transform="translate(79.537 48.082)" fill="#939597"/>
      </g>
    </g>
  </g>
</svg>
