<svg id="icon_2" xmlns="http://www.w3.org/2000/svg" width="23.478" height="23.478" viewBox="0 0 23.478 23.478"><path id="Caminho_54" data-name="Caminho 54" d="M154.1,189.626a1.378,1.378,0,0,1-.974-.407l-2.072-2.072a1.382,1.382,0,0,1,1.954-1.954l1.167,1.167,3.86-3.308a1.381,1.381,0,0,1,1.8,2.072L155,189.267A1.382,1.382,0,0,1,154.1,189.626Z" transform="translate(-143.744 -174.435)" fill="#00b72b"/><path id="Caminho_55" data-name="Caminho 55" d="M11.739,23.478A11.739,11.739,0,1,1,23.478,11.739,11.739,11.739,0,0,1,11.739,23.478Zm0-20.715a8.977,8.977,0,1,0,8.977,8.977A8.976,8.976,0,0,0,11.739,2.762Z" fill="#00b72b"/></svg>